<svg width="24" height="25" viewBox="0 0 24 25" fill="none" xmlns="http://www.w3.org/2000/svg">
<g id="icons/notification/ic_shipping">
<g id="on-time">
<path id="Combined Shape" fill-rule="evenodd" clip-rule="evenodd" d="M23.9846 13.5765L20.4739 9.75155C20.2159 9.47019 19.8516 9.31003 19.4698 9.31006H15.1113V13.5765V19.7824H16.7785C16.7785 18.4653 17.8463 17.3975 19.1634 17.3975C20.4806 17.3975 21.5484 18.4653 21.5484 19.7824H22.6217C22.9832 19.7825 23.3299 19.6389 23.5855 19.3833C23.8411 19.1277 23.9847 18.781 23.9846 18.4195V13.5765Z" fill="url(#paint0_linear_0_8865)"/>
<circle id="Oval" cx="19.1632" cy="19.7824" r="2.38493" fill="#7A4F01"/>
<path id="Path" fill-rule="evenodd" clip-rule="evenodd" d="M15.1111 13.5764V19.7823H7.85246C7.85246 18.465 6.78457 17.3971 5.46725 17.3971C4.14994 17.3971 3.08204 18.465 3.08204 19.7823H1.3786C1.0171 19.7824 0.670387 19.6388 0.414766 19.3832C0.159146 19.1275 0.0155658 18.7808 0.015625 18.4193V7.03998C0.0155658 6.67848 0.159146 6.33176 0.414766 6.07614C0.670387 5.82052 1.0171 5.67694 1.3786 5.677H2.85711C2.94212 8.08008 4.91485 9.98428 7.31944 9.98428C9.72402 9.98428 11.6968 8.08008 11.7818 5.677H13.7481C14.5008 5.67706 15.111 6.28725 15.1111 7.03998V13.5764Z" fill="#B78103"/>
<path id="Path_2" fill-rule="evenodd" clip-rule="evenodd" d="M11.7847 5.52688C11.7847 5.57712 11.7842 5.62735 11.7819 5.67702C11.6969 8.08011 9.72419 9.9843 7.31961 9.9843C4.91502 9.9843 2.94228 8.08011 2.85728 5.67702C2.85505 5.62735 2.85449 5.57712 2.85449 5.52688C2.85449 3.06087 4.85359 1.06177 7.31961 1.06177C9.78562 1.06177 11.7847 3.06087 11.7847 5.52688Z" fill="#74CAFF" stroke="#74CAFF"/>
<path id="Path_3" fill-rule="evenodd" clip-rule="evenodd" d="M5.46696 17.3975C6.78412 17.3975 7.85189 18.4652 7.85189 19.7824C7.85189 21.0996 6.78412 22.1673 5.46696 22.1673C4.1498 22.1673 3.08203 21.0996 3.08203 19.7824C3.08206 18.4652 4.14981 17.3975 5.46696 17.3975Z" fill="#7A4F01"/>
<path id="Path_4" fill-rule="evenodd" clip-rule="evenodd" d="M8.80953 7.31285C8.71036 7.31297 8.61487 7.27525 8.54257 7.20736L7.05234 5.81201C6.97346 5.73814 6.9287 5.63488 6.92871 5.5268V2.63118C6.92871 2.4154 7.10363 2.24048 7.31941 2.24048C7.53518 2.24048 7.71011 2.4154 7.71011 2.63118V5.35769L9.07666 6.63722C9.19373 6.74683 9.23193 6.91685 9.17299 7.06601C9.11406 7.21516 8.96996 7.31315 8.80959 7.31313L8.80953 7.31285Z" fill="#0C53B7"/>
</g>
</g>
<defs>
<linearGradient id="paint0_linear_0_8865" x1="10.6747" y1="14.5462" x2="21.0049" y2="23.2991" gradientUnits="userSpaceOnUse">
<stop stop-color="#FFE16A"/>
<stop offset="1" stop-color="#B78103"/>
</linearGradient>
</defs>
</svg>
