<svg width="24" height="25" viewBox="0 0 24 25" fill="none" xmlns="http://www.w3.org/2000/svg">
<path d="M7.53598 4.20447H10.4952V14.5096C10.4952 15.9545 10.0993 17.1131 9.3075 17.9855C8.51569 18.8579 7.49572 19.2941 6.24761 19.2941C4.90555 19.2941 3.8621 18.8886 3.11726 18.0775C2.37242 17.2665 2 16.1385 2 14.6936H4.9693C4.9693 16.0976 5.3954 16.7996 6.24761 16.7996C7.10653 16.7996 7.53598 15.9886 7.53598 14.3665V4.20447Z" fill="#212B36"/>
<path d="M19.0106 15.1843C19.0106 14.5778 18.8562 14.1211 18.5476 13.8144C18.2456 13.5009 17.692 13.1772 16.8868 12.8432C15.4172 12.2775 14.3603 11.6164 13.7162 10.8599C13.072 10.0965 12.7499 9.19687 12.7499 8.1609C12.7499 6.90684 13.186 5.90154 14.0584 5.14501C14.9374 4.38167 16.0513 4 17.4001 4C18.2993 4 19.1012 4.19424 19.8057 4.58273C20.5103 4.9644 21.0505 5.50624 21.4263 6.20824C21.8088 6.91024 22 7.70767 22 8.6005H19.0508C19.0508 7.90532 18.9032 7.37711 18.608 7.01589C18.3194 6.64785 17.9 6.46383 17.3498 6.46383C16.8331 6.46383 16.4305 6.62058 16.1419 6.9341C15.8534 7.2408 15.7091 7.65655 15.7091 8.18135C15.7091 8.59028 15.8702 8.96173 16.1922 9.29569C16.5143 9.62284 17.0847 9.96362 17.9034 10.318C19.3327 10.8428 20.3694 11.4869 21.0136 12.2502C21.6645 13.0136 21.9899 13.9848 21.9899 15.1639C21.9899 16.4588 21.584 17.471 20.772 18.2002C19.9601 18.9295 18.8562 19.2941 17.4605 19.2941C16.5143 19.2941 15.6521 19.0965 14.8737 18.7012C14.0953 18.3059 13.4847 17.7402 13.0418 17.0041C12.6056 16.268 12.3875 15.399 12.3875 14.3971H15.3568C15.3568 15.2559 15.5212 15.8795 15.85 16.268C16.1788 16.6565 16.7157 16.8507 17.4605 16.8507C18.4939 16.8507 19.0106 16.2953 19.0106 15.1843Z" fill="#212B36"/>
</svg>
