<svg width="24" height="25" viewBox="0 0 24 25" fill="none" xmlns="http://www.w3.org/2000/svg">
<path d="M11.73 6.70919H8.25844V19.0897H5.41369V6.70919H2V4.20447H11.73V6.70919Z" fill="#212B36"/>
<path d="M19.136 15.1843C19.136 14.5778 18.9881 14.1211 18.6924 13.8144C18.4031 13.5009 17.8727 13.1772 17.1013 12.8432C15.6933 12.2775 14.6808 11.6164 14.0636 10.8599C13.4465 10.0965 13.1379 9.19687 13.1379 8.1609C13.1379 6.90684 13.5558 5.90154 14.3915 5.14501C15.2337 4.38167 16.3009 4 17.5931 4C18.4545 4 19.2228 4.19424 19.8978 4.58273C20.5728 4.9644 21.0903 5.50624 21.4503 6.20824C21.8168 6.91024 22 7.70767 22 8.6005H19.1745C19.1745 7.90532 19.0331 7.37711 18.7502 7.01589C18.4738 6.64785 18.072 6.46383 17.5448 6.46383C17.0498 6.46383 16.6641 6.62058 16.3877 6.9341C16.1112 7.2408 15.973 7.65655 15.973 8.18135C15.973 8.59028 16.1273 8.96173 16.4359 9.29569C16.7445 9.62284 17.2909 9.96362 18.0752 10.318C19.4446 10.8428 20.4378 11.4869 21.055 12.2502C21.6786 13.0136 21.9904 13.9848 21.9904 15.1639C21.9904 16.4588 21.6014 17.471 20.8235 18.2002C20.0456 18.9295 18.9881 19.2941 17.6509 19.2941C16.7445 19.2941 15.9184 19.0965 15.1726 18.7012C14.4269 18.3059 13.8419 17.7402 13.4176 17.0041C12.9997 16.268 12.7907 15.399 12.7907 14.3971H15.6355C15.6355 15.2559 15.793 15.8795 16.108 16.268C16.423 16.6565 16.9373 16.8507 17.6509 16.8507C18.641 16.8507 19.136 16.2953 19.136 15.1843Z" fill="#212B36"/>
</svg>
