<svg width="24" height="25" viewBox="0 0 24 25" fill="none" xmlns="http://www.w3.org/2000/svg">
<g clip-path="url(#clip0_1255_158073)">
<path fill-rule="evenodd" clip-rule="evenodd" d="M6.12082 0.00976562H14.1479L20.9502 7.09983V20.8889C20.9502 22.608 19.5484 24.0098 17.8294 24.0098H6.12082C4.39442 24.0098 3 22.608 3 20.8889V3.13058C3 1.40418 4.39442 0.00976563 6.12082 0.00976563V0.00976562Z" fill="#00B8D9"/>
<path opacity="0.4" fill-rule="evenodd" clip-rule="evenodd" d="M14.1396 0.00976562V7.04082H20.9493L14.1396 0.00976562Z" fill="white"/>
<path d="M14.1177 15.7835C14.3464 15.3999 14.5014 14.913 14.5309 14.4334C14.5456 14.1235 14.4792 13.7989 14.3317 13.4964C14.0956 13.0169 13.6972 12.7513 13.3061 12.4857C13.0184 12.2938 12.7454 12.1094 12.5536 11.8512L12.5167 11.8069C12.406 11.652 12.2732 11.4749 12.2511 11.3273C12.2363 11.1798 12.0961 11.0765 11.956 11.0839C11.801 11.0986 11.6904 11.2167 11.6904 11.3716V16.4328C11.4543 16.2852 11.1591 16.1967 10.8345 16.1967C10.0525 16.1967 9.41797 16.7058 9.41797 17.3329C9.41797 17.96 10.0525 18.469 10.8345 18.469C11.6166 18.469 12.2584 17.96 12.2584 17.3329V14.0202C12.6863 14.1899 13.3799 14.6031 13.5717 15.5696C13.5348 15.6212 13.5053 15.6802 13.461 15.7245C13.3577 15.8425 13.3725 16.0196 13.4905 16.1303C13.6086 16.2335 13.7856 16.2188 13.8889 16.1007C13.9627 16.0122 14.0365 15.9163 14.0955 15.8056C14.1029 15.7983 14.1103 15.7909 14.1177 15.7835Z" fill="white"/>
</g>
<defs>
<clipPath id="clip0_1255_158073">
<rect width="24" height="24" fill="white" transform="translate(0 0.00976562)"/>
</clipPath>
</defs>
</svg>
