<svg width="24" height="25" viewBox="0 0 24 25" fill="none" xmlns="http://www.w3.org/2000/svg">
<g clip-path="url(#clip0_1255_158121)">
<path fill-rule="evenodd" clip-rule="evenodd" d="M6.14621 0.00976562H14.1733L20.9756 7.09983V20.8889C20.9756 22.608 19.5738 24.0098 17.8548 24.0098H6.14621C4.41981 24.0098 3.02539 22.608 3.02539 20.8889V3.13058C3.02539 1.40418 4.41981 0.00976563 6.14621 0.00976563V0.00976562Z" fill="#FFD666"/>
<path opacity="0.4" fill-rule="evenodd" clip-rule="evenodd" d="M14.165 0.00976562V7.04082H20.9747L14.165 0.00976562Z" fill="white"/>
<path d="M15.1616 15.658H8.83883C8.54372 15.658 8.30762 15.8941 8.30762 16.1892C8.30762 16.477 8.54372 16.7131 8.83883 16.7131H15.1616C15.4567 16.7131 15.6928 16.477 15.6928 16.1892C15.6928 15.8941 15.4567 15.658 15.1616 15.658ZM15.1616 17.7681H8.83883C8.54372 17.7681 8.30762 18.0042 8.30762 18.2993C8.30762 18.5871 8.54372 18.8231 8.83883 18.8231H15.1616C15.4567 18.8231 15.6928 18.587 15.6928 18.2993C15.6928 18.0042 15.4567 17.7681 15.1616 17.7681ZM11.9449 11.4453H8.83883C8.54372 11.4453 8.30762 11.674 8.30762 11.9691C8.30762 12.2642 8.54372 12.4929 8.83883 12.4929H11.9449C12.24 12.4929 12.4761 12.2642 12.4761 11.9691C12.4761 11.674 12.24 11.4453 11.9449 11.4453ZM15.1616 13.548H8.83883C8.54372 13.548 8.30762 13.7841 8.30762 14.0792C8.30762 14.3669 8.54372 14.603 8.83883 14.603H15.1616C15.4567 14.603 15.6928 14.3669 15.6928 14.0792C15.6928 13.7841 15.4567 13.548 15.1616 13.548Z" fill="#B76E00"/>
</g>
<defs>
<clipPath id="clip0_1255_158121">
<rect width="24" height="24" fill="white" transform="translate(0 0.00976562)"/>
</clipPath>
</defs>
</svg>
