<svg width="24" height="25" viewBox="0 0 24 25" fill="none" xmlns="http://www.w3.org/2000/svg">
<path d="M19.4297 4.51118H14.1422L11.1852 2.14399C11.078 2.05758 10.9446 2.01024 10.8069 2.00977H2.20451C1.61984 2.00977 1.05912 2.24202 0.645693 2.65545C0.232269 3.06887 9.93363e-06 3.6296 9.93363e-06 4.21427V21.3337C-0.000852098 21.4849 0.054418 21.6309 0.155111 21.7437C0.255805 21.8564 0.394753 21.9277 0.545034 21.9438H0.610111C0.749992 21.9433 0.885502 21.895 0.994225 21.807C1.10295 21.719 1.17837 21.5965 1.20801 21.4598L3.70129 9.66451C3.75115 9.44483 3.87575 9.24929 4.0538 9.11131C4.23185 8.97332 4.45229 8.90145 4.67745 8.90798H21.02C21.1818 8.90798 21.337 8.8437 21.4514 8.72929C21.5659 8.61487 21.6301 8.45969 21.6301 8.29788V6.71568C21.6301 6.13172 21.3984 5.57161 20.9859 5.1583C20.5734 4.74499 20.0137 4.51226 19.4297 4.51118Z" fill="#FFAB00"/>
<path d="M23.5214 8.52156C23.315 8.26104 23.0522 8.05067 22.7528 7.90626C22.4534 7.76185 22.1252 7.68714 21.7928 7.68775H4.67742C4.17813 7.68657 3.69334 7.85554 3.30295 8.16682C2.91257 8.47809 2.63989 8.91308 2.52986 9.4001L0.032514 21.1954C0.0112684 21.2838 0.0100516 21.3758 0.0289526 21.4648C0.0478537 21.5537 0.0863946 21.6373 0.141757 21.7094C0.197119 21.7816 0.267902 21.8404 0.34893 21.8817C0.429959 21.9229 0.519182 21.9455 0.610077 21.9479H19.7591C20.2588 21.9481 20.7436 21.7783 21.134 21.4663C21.5243 21.1544 21.7968 20.7189 21.9067 20.2314L23.9404 10.3966C24.0175 10.0728 24.0198 9.73562 23.9472 9.41074C23.8746 9.08586 23.729 8.78178 23.5214 8.52156Z" fill="#FFD666"/>
</svg>
