<svg width="24" height="25" viewBox="0 0 24 25" fill="none" xmlns="http://www.w3.org/2000/svg">
<path fill-rule="evenodd" clip-rule="evenodd" d="M6.12082 0.00976562H14.1479L20.9502 7.09983V20.8889C20.9502 22.608 19.5484 24.0098 17.8294 24.0098H6.12082C4.39442 24.0098 3 22.608 3 20.8889V3.13058C3 1.40418 4.39442 0.00976563 6.12082 0.00976563V0.00976562Z" fill="#FF5630"/>
<path opacity="0.302" fill-rule="evenodd" clip-rule="evenodd" d="M14.1396 0.00976562V7.04082H20.9493L14.1396 0.00976562Z" fill="white"/>
<path d="M11.6754 11.9101C9.87523 11.9986 8.44394 13.4963 8.46607 15.3186C8.49558 17.1336 9.97114 18.6165 11.7861 18.6386C13.6158 18.6681 15.1135 17.2368 15.1946 15.4367C15.202 15.3481 15.1282 15.2743 15.0397 15.2743H11.9927C11.9041 15.2743 11.8303 15.2006 11.8303 15.1194V12.065C11.8304 11.9764 11.764 11.9101 11.6754 11.9101ZM12.487 11.4157V14.4628C12.487 14.5513 12.5534 14.6177 12.6419 14.6177H15.6963C15.7848 14.6177 15.8512 14.5439 15.8512 14.4554C15.7701 12.729 14.383 11.3419 12.6493 11.2608C12.5607 11.2534 12.487 11.3272 12.487 11.4157Z" fill="white"/>
<path fill-rule="evenodd" clip-rule="evenodd" d="M6.14982 0.00976563H14.1738L20.9744 7.09823V20.8853C20.9744 22.6125 19.5771 24.0098 17.8559 24.0098H6.14982C4.42269 24.0098 3.02539 22.6125 3.02539 20.8853V3.13419C3.02536 1.40706 4.42266 0.00976562 6.14982 0.00976562V0.00976563Z" fill="#FF5630"/>
<path opacity="0.4" fill-rule="evenodd" clip-rule="evenodd" d="M14.168 0.00976562V7.04425H20.9746L14.168 0.00976562Z" fill="white"/>
<path d="M6.79785 17.1792V12.8193H8.65092C9.10669 12.8193 9.47251 12.9453 9.74837 13.2031C10.0182 13.455 10.1562 13.7909 10.1562 14.2166C10.1562 14.6364 10.0182 14.9782 9.74837 15.2301C9.47251 15.482 9.10669 15.6079 8.65092 15.6079H7.90728V17.1792H6.79785ZM7.90731 14.6604H8.52501C8.69292 14.6604 8.81885 14.6244 8.91483 14.5465C9.00477 14.4685 9.04677 14.3546 9.04677 14.2166C9.04677 14.0727 9.0048 13.9648 8.91483 13.8868C8.81888 13.8088 8.69295 13.7669 8.52501 13.7669H7.90731V14.6604ZM10.6239 17.1792V12.8193H12.477C12.9328 12.8193 13.2986 12.9453 13.5745 13.2031C13.8503 13.455 13.9823 13.7909 13.9823 14.2166C13.9823 14.6364 13.8503 14.9782 13.5745 15.2301C13.2986 15.482 12.9328 15.6079 12.477 15.6079H11.7394V17.1792H10.6239ZM11.7394 14.6604H12.3511C12.519 14.6604 12.6509 14.6244 12.7409 14.5465C12.8308 14.4685 12.8788 14.3546 12.8788 14.2166C12.8788 14.0727 12.8309 13.9648 12.7409 13.8868C12.6509 13.8088 12.519 13.7669 12.3511 13.7669H11.7394V14.6604ZM15.5835 17.1792V13.7669H14.3421V12.8193H17.9463V13.7669H16.6989V17.1792H15.5835Z" fill="white"/>
</svg>
