<svg width="24" height="25" viewBox="0 0 24 25" fill="none" xmlns="http://www.w3.org/2000/svg">
<g clip-path="url(#clip0_1255_158096)">
<path fill-rule="evenodd" clip-rule="evenodd" d="M6.14982 0.00976563H14.1738L20.9744 7.09823V20.8853C20.9744 22.6125 19.5771 24.0098 17.8559 24.0098H6.14982C4.42269 24.0098 3.02539 22.6125 3.02539 20.8853V3.13419C3.02536 1.40706 4.42266 0.00976562 6.14982 0.00976562V0.00976563Z" fill="#212B36"/>
<path opacity="0.4" fill-rule="evenodd" clip-rule="evenodd" d="M14.168 0.00976562V7.04425H20.9746L14.168 0.00976562Z" fill="white"/>
<path d="M7.5589 17.5332V14.1209H6.31152V13.1733H9.91574V14.1209H8.67436V17.5332H7.5589ZM13.9697 17.5332H12.8003L12.0027 16.1958L11.2051 17.5332H10.0297L11.415 15.2063L10.2036 13.1733H11.373L12.0027 14.2288L12.6264 13.1733H13.8018L12.5904 15.2123L13.9697 17.5332ZM15.325 17.5332V14.1209H14.0836V13.1733H17.6879V14.1209H16.4405V17.5332H15.325Z" fill="white"/>
</g>
<defs>
<clipPath id="clip0_1255_158096">
<rect width="24" height="24" fill="white" transform="translate(0 0.00976562)"/>
</clipPath>
</defs>
</svg>
