<svg width="24" height="25" viewBox="0 0 24 25" fill="none" xmlns="http://www.w3.org/2000/svg">
<path d="M6.14751 0.00976563H14.1777L20.9753 7.10172V20.8876C20.9753 22.6121 19.5776 24.0098 17.8531 24.0098H6.14751C4.42305 24.0098 3.02539 22.6121 3.02539 20.8876V3.13189C3.02539 1.40746 4.42305 0.00976562 6.14751 0.00976562V0.00976563Z" fill="#00AB55"/>
<path opacity="0.4" fill-rule="evenodd" clip-rule="evenodd" d="M14.168 0.00976562V7.04346H20.9752L14.168 0.00976562Z" fill="white"/>
<path d="M5.92383 17.1346V13.1615H7.33122C7.61269 13.1615 7.87478 13.2036 8.11743 13.2812C8.36008 13.3621 8.58008 13.4786 8.77746 13.6339C8.97481 13.7892 9.13013 13.9963 9.24336 14.2551C9.35659 14.5139 9.41484 14.8116 9.41484 15.148C9.41484 15.4845 9.35659 15.7822 9.24336 16.041C9.13013 16.2998 8.97481 16.5069 8.77746 16.6622C8.58011 16.8175 8.36008 16.9339 8.11743 17.0148C7.87478 17.0925 7.61272 17.1346 7.33122 17.1346H5.92383ZM6.91709 16.2707H7.2115C7.37004 16.2707 7.51887 16.2513 7.6515 16.2157C7.78739 16.1769 7.91032 16.1154 8.02679 16.0345C8.14327 15.9536 8.23384 15.8372 8.29856 15.6851C8.36651 15.5363 8.39884 15.3551 8.39884 15.148C8.39884 14.941 8.36648 14.7598 8.29856 14.6077C8.23384 14.4589 8.14327 14.3424 8.02679 14.2615C7.91032 14.1774 7.78739 14.1192 7.6515 14.0804C7.51887 14.0448 7.37004 14.0254 7.2115 14.0254H6.91709V16.2707ZM11.8252 17.1799C11.2266 17.1799 10.7316 16.9857 10.3401 16.6007C9.94866 16.2157 9.75453 15.7304 9.75453 15.1481C9.75453 14.5657 9.94866 14.0804 10.3401 13.6954C10.7316 13.3104 11.2266 13.1163 11.8252 13.1163C12.414 13.1163 12.9025 13.3104 13.294 13.6954C13.6823 14.0804 13.8764 14.5657 13.8764 15.1481C13.8764 15.7304 13.6823 16.2157 13.294 16.6007C12.9025 16.9857 12.414 17.1799 11.8252 17.1799ZM11.0616 15.986C11.259 16.206 11.5113 16.316 11.8187 16.316C12.126 16.316 12.3752 16.206 12.5725 15.986C12.7699 15.7628 12.8669 15.4845 12.8669 15.148C12.8669 14.8116 12.7699 14.5333 12.5725 14.3101C12.3752 14.0901 12.126 13.98 11.8187 13.98C11.5113 13.98 11.259 14.0901 11.0616 14.3101C10.8643 14.5333 10.764 14.8116 10.764 15.148C10.764 15.4845 10.8643 15.7628 11.0616 15.986ZM16.2382 17.1799C15.6591 17.1799 15.177 16.9987 14.7952 16.6428C14.4102 16.2837 14.2194 15.7854 14.2194 15.148C14.2194 14.5139 14.4135 14.0156 14.8017 13.6565C15.1932 13.2974 15.6688 13.1162 16.2382 13.1162C16.7527 13.1162 17.1732 13.2424 17.5065 13.498C17.8365 13.7503 18.0274 14.0868 18.0759 14.5074L17.073 14.7113C17.0309 14.4912 16.9306 14.3133 16.7753 14.1806C16.62 14.048 16.4388 13.98 16.2318 13.98C15.947 13.98 15.7108 14.0804 15.52 14.2842C15.3291 14.4912 15.232 14.7759 15.232 15.148C15.232 15.5201 15.3291 15.8048 15.5167 16.0086C15.7076 16.2157 15.9438 16.316 16.2317 16.316C16.4388 16.316 16.6167 16.2578 16.7623 16.1413C16.9079 16.0248 16.9985 15.8695 17.0373 15.6754L18.063 15.9083C17.9691 16.3095 17.762 16.6201 17.4385 16.8434C17.1182 17.0666 16.7171 17.1799 16.2382 17.1799Z" fill="white"/>
</svg>
