<svg width="24" height="25" viewBox="0 0 24 25" fill="none" xmlns="http://www.w3.org/2000/svg">
<g id="icons/notification/ic_package">
<g id="receive">
<path id="Path" fill-rule="evenodd" clip-rule="evenodd" d="M15.0478 20.0297C13.957 18.1498 14.2655 15.7715 15.7998 14.2321C17.3342 12.6928 19.7114 12.3765 21.5949 13.4611C23.4784 14.5457 24.398 16.7606 23.8367 18.8603C23.2754 20.96 21.3733 22.4205 19.1998 22.4207C17.4869 22.4271 15.902 21.5144 15.0478 20.0297Z" fill="url(#paint0_linear_0_8848)"/>
<path id="Path_2" fill-rule="evenodd" clip-rule="evenodd" d="M19.1996 5.58717V12.8207C17.4829 12.8208 15.897 13.7377 15.0402 15.2253C14.1834 16.7128 14.1863 18.5447 15.0476 20.0297L9.59961 23.1747V11.1287L19.1986 5.58667L19.1996 5.58717Z" fill="#FFE16A"/>
<path id="Path_3" fill-rule="evenodd" clip-rule="evenodd" d="M9.59984 11.1287L6.25684 9.19874L15.8563 3.65674L19.1988 5.58674L9.59984 11.1287Z" fill="#FFC107"/>
<path id="Path_4" fill-rule="evenodd" clip-rule="evenodd" d="M15.8565 3.65664L6.25705 9.19864L3.81055 7.78614L13.4095 2.24414L15.8565 3.65664Z" fill="url(#paint1_linear_0_8848)"/>
<path id="Path_5" fill-rule="evenodd" clip-rule="evenodd" d="M9.59998 0.0446777L13.4095 2.24418L3.81048 7.78618H3.80998L0.000976562 5.58668L9.59998 0.0446777Z" fill="#FFE16A"/>
<path id="Path_6" fill-rule="evenodd" clip-rule="evenodd" d="M9.6 11.1287V23.1747L0 17.6322V5.58717L0.001 5.58667L3.81 7.78617V15.7737L4.9725 15.2937L6.24 16.7337V9.20867L6.257 9.19867L9.6 11.1287Z" fill="#FFC107"/>
<path id="Path_7" fill-rule="evenodd" clip-rule="evenodd" d="M6.25657 9.19863L6.23957 9.20863V16.7336L4.97207 15.2936L3.80957 15.7736V7.78613H3.81007L6.25657 9.19863Z" fill="url(#paint2_linear_0_8848)"/>
<path id="Path_8" fill-rule="evenodd" clip-rule="evenodd" d="M1.2416 17.7282C1.0483 17.7282 0.891602 17.5715 0.891602 17.3782V16.0822C0.891602 15.8889 1.0483 15.7322 1.2416 15.7322C1.4349 15.7322 1.5916 15.8889 1.5916 16.0822V17.3782C1.5916 17.5715 1.4349 17.7282 1.2416 17.7282Z" fill="#FFE16A"/>
<path id="Path_9" fill-rule="evenodd" clip-rule="evenodd" d="M2.6625 18.5596C2.4692 18.5596 2.3125 18.4029 2.3125 18.2096V17.0421C2.3125 16.8488 2.4692 16.6921 2.6625 16.6921C2.8558 16.6921 3.0125 16.8488 3.0125 17.0421V18.2096C3.0125 18.4029 2.8558 18.5596 2.6625 18.5596Z" fill="#FFE16A"/>
<path id="Path_10" fill-rule="evenodd" clip-rule="evenodd" d="M4.08437 19.3801C3.89108 19.3801 3.73438 19.2234 3.73438 19.0301V18.0021C3.73437 17.8088 3.89108 17.6521 4.08437 17.6521C4.27767 17.6521 4.43437 17.8088 4.43437 18.0021V19.0301C4.43437 19.2234 4.27767 19.3801 4.08437 19.3801Z" fill="#FFE16A"/>
<path id="Path_11" fill-rule="evenodd" clip-rule="evenodd" d="M5.50527 20.2006C5.31197 20.2006 5.15527 20.0439 5.15527 19.8506V18.9621C5.15527 18.7688 5.31197 18.6121 5.50527 18.6121C5.69857 18.6121 5.85527 18.7688 5.85527 18.9621V19.8506C5.85527 20.0439 5.69857 20.2006 5.50527 20.2006Z" fill="#FFE16A"/>
<path id="Path_12" fill-rule="evenodd" clip-rule="evenodd" d="M6.92617 21.0403C6.73287 21.0403 6.57617 20.8836 6.57617 20.6903V19.9223C6.57617 19.729 6.73287 19.5723 6.92617 19.5723C7.11947 19.5723 7.27617 19.729 7.27617 19.9223V20.6903C7.27617 20.8836 7.11947 21.0403 6.92617 21.0403Z" fill="#FFE16A"/>
<path id="Path_13" fill-rule="evenodd" clip-rule="evenodd" d="M11.5888 18.0566C11.4302 18.0568 11.2914 17.9505 11.2503 17.7973C11.2092 17.6442 11.2761 17.4826 11.4135 17.4034L13.008 16.4829C13.1163 16.4204 13.2497 16.4204 13.358 16.4829C13.4663 16.5455 13.533 16.661 13.533 16.7861C13.533 16.9111 13.4663 17.0267 13.358 17.0892L11.7635 18.0096C11.7104 18.0404 11.6501 18.0566 11.5888 18.0566Z" fill="#B78103"/>
<path id="Path_14" d="M18.1105 19.3298C18.008 19.3299 17.9106 19.285 17.8441 19.207L16.6841 17.848C16.6018 17.753 16.5768 17.6213 16.6185 17.5027C16.6602 17.3842 16.7622 17.2971 16.8858 17.2746C17.0094 17.252 17.1356 17.2974 17.2165 17.3936L18.1545 18.4925L21.2295 15.9908C21.3264 15.9109 21.4587 15.8891 21.5761 15.9336C21.6935 15.9781 21.7781 16.082 21.7977 16.206C21.8174 16.33 21.7692 16.4551 21.6713 16.5337L18.3313 19.2513C18.269 19.3021 18.1909 19.3299 18.1105 19.3298Z" fill="#005249"/>
<path id="Path_15" fill-rule="evenodd" clip-rule="evenodd" d="M12.5423 11.3414C12.4651 11.2597 12.3533 11.22 12.2419 11.2347C12.1304 11.2495 12.0328 11.3169 11.9795 11.416L11.1345 12.988C11.0762 13.0964 11.0791 13.2275 11.1423 13.3332C11.2054 13.4389 11.3194 13.5037 11.4425 13.5038C11.5731 13.5041 11.6936 13.4335 11.7571 13.3194L11.9498 12.9721V15.9807C11.9498 16.174 12.1065 16.3307 12.2998 16.3307C12.4931 16.3307 12.6498 16.174 12.6498 15.9807V12.4623L12.9343 12.77C12.9975 12.8375 13.0849 12.8769 13.1773 12.8796C13.2696 12.8823 13.3592 12.8479 13.4261 12.7842C13.4935 12.7203 13.5327 12.6322 13.5351 12.5394C13.5374 12.4465 13.5028 12.3565 13.4388 12.2892L12.5423 11.3414Z" fill="#B78103"/>
</g>
</g>
<defs>
<linearGradient id="paint0_linear_0_8848" x1="9.59914" y1="17.6206" x2="19.1993" y2="27.2212" gradientUnits="userSpaceOnUse">
<stop stop-color="#5BE584"/>
<stop offset="1" stop-color="#00AB55"/>
</linearGradient>
<linearGradient id="paint1_linear_0_8848" x1="-2.21245" y1="5.72139" x2="3.81021" y2="16.1533" gradientUnits="userSpaceOnUse">
<stop stop-color="#FFE16A"/>
<stop offset="1" stop-color="#B78103"/>
</linearGradient>
<linearGradient id="paint2_linear_0_8848" x1="2.58607" y1="12.2599" x2="7.1395" y2="13.5052" gradientUnits="userSpaceOnUse">
<stop stop-color="#FFE16A"/>
<stop offset="1" stop-color="#B78103"/>
</linearGradient>
</defs>
</svg>
