<svg width="24" height="24" viewBox="0 0 24 24" fill="none" xmlns="http://www.w3.org/2000/svg">
<g opacity="0.4">
<path d="M12 10.75C16.7038 10.75 19.4773 10.6481 20.868 10.5744C21.5117 10.5403 22 10.0077 22 9.36306V8.19426C22 7.74456 21.8551 7.30336 21.5366 6.98586C19.6683 5.12346 15.3747 2.7232 12.465 2.08806C12.1576 2.02094 11.8424 2.02094 11.535 2.08806C8.62535 2.7232 4.33171 5.12346 2.4634 6.98586C2.1449 7.30336 2 7.74456 2 8.19426V9.36306C2 10.0077 2.48829 10.5403 3.13195 10.5744C4.52271 10.6481 7.29615 10.75 12 10.75Z" fill="#637381"/>
<path d="M2.1787 18.7286C2.30863 18.3514 2.68627 18.1799 3.0846 18.1573C4.11911 18.0985 6.6517 18 12 18C17.3483 18 19.8809 18.0985 20.9154 18.1573C21.3137 18.1799 21.6914 18.3514 21.8213 18.7286C21.9176 19.0081 22 19.4175 22 20C22 20.5825 21.9176 20.9918 21.8213 21.2713C21.6914 21.6485 21.3137 21.8201 20.9154 21.8427C19.8809 21.9014 17.3483 22 12 22C6.6517 22 4.11911 21.9014 3.0846 21.8427C2.68627 21.8201 2.30863 21.6485 2.1787 21.2713C2.08243 20.9918 2 20.5825 2 20C2 19.4175 2.08243 19.0081 2.1787 18.7286Z" fill="#637381"/>
</g>
<path d="M12 9C13.1046 9 14 8.10457 14 7C14 5.89543 13.1046 5 12 5C10.8954 5 10 5.89543 10 7C10 8.10457 10.8954 9 12 9Z" fill="#637381"/>
<path d="M13.9467 10.7438C13.3382 10.7478 12.6899 10.75 12 10.75C11.3101 10.75 10.6618 10.7478 10.0533 10.7438C10.0277 11.3951 10 12.5511 10 14.5C10 16.2195 10.0216 17.3217 10.0442 18.0047C10.65 18.0017 11.3009 18 12 18C12.6991 18 13.35 18.0017 13.9558 18.0047C13.9784 17.3217 14 16.2195 14 14.5C14 12.5511 13.9723 11.3951 13.9467 10.7438Z" fill="#637381"/>
<path d="M16.0542 10.7212C16.0284 11.3682 16 12.5284 16 14.5C16 16.2343 16.022 17.3407 16.0448 18.0223C17.8468 18.0443 19.1022 18.0792 19.9521 18.1123C19.976 17.4396 20 16.3128 20 14.5C20 12.4185 19.9684 11.2414 19.9415 10.6177C19.0121 10.6562 17.7369 10.6956 16.0542 10.7212Z" fill="#637381"/>
<path d="M4.05845 10.6177C4.98788 10.6562 6.26314 10.6956 7.94583 10.7212C7.97163 11.3682 8 12.5284 8 14.5C8 16.2343 7.97805 17.3407 7.9552 18.0223C6.15324 18.0443 4.89779 18.0792 4.04791 18.1123C4.024 17.4396 4 16.3128 4 14.5C4 12.4185 4.03165 11.2414 4.05845 10.6177Z" fill="#637381"/>
</svg>
