<svg width="24" height="24" viewBox="0 0 24 24" fill="none" xmlns="http://www.w3.org/2000/svg">
<path opacity="0.4" d="M16 5.58989C15.4034 5.56036 14.7474 5.5367 14.027 5.52107C13.4011 5.5075 12.7265 5.5 12 5.5C11.2735 5.5 10.5989 5.5075 9.97305 5.52107C9.25258 5.5367 8.59657 5.56036 8 5.58989V21.91C7.011 21.8611 6.1853 21.7961 5.5 21.7248V5.77514C4.81793 5.84603 4.27492 5.92304 3.84836 5.99635C2.96568 6.1481 2.35356 6.82915 2.25458 7.7193C2.1303 8.837 2 10.7291 2 13.75C2 16.7709 2.1303 18.663 2.25458 19.7807C2.35356 20.6709 2.96567 21.3519 3.84836 21.5037C5.1866 21.7337 7.6709 22 12 22C16.3291 22 18.8134 21.7337 20.1516 21.5037C21.0343 21.3519 21.6465 20.6709 21.7454 19.7807C21.8697 18.663 22 16.7709 22 13.75C22 10.7291 21.8697 8.837 21.7454 7.7193C21.6465 6.82915 21.0343 6.1481 20.1516 5.99635C19.7251 5.92304 19.1821 5.84603 18.5 5.77514V21.7248C17.8147 21.7961 16.989 21.8611 16 21.91V5.58989Z" fill="#637381"/>
<path d="M10.7917 2C9.68059 2 8.70279 2.73333 8.39169 3.8L7.8677 5.59658C8.49922 5.56393 9.19892 5.53786 9.97305 5.52107L10.3117 4.36C10.3739 4.14667 10.5695 4 10.7917 4H13.2083C13.4306 4 13.6261 4.14667 13.6883 4.36L14.027 5.52107C14.8011 5.53786 15.5008 5.56393 16.1324 5.59659L15.6083 3.8C15.2972 2.73333 14.3195 2 13.2083 2H10.7917Z" fill="#637381"/>
<path fill-rule="evenodd" clip-rule="evenodd" d="M18.5 21.7248C17.8147 21.7961 16.989 21.8611 16 21.91V5.58985C16.989 5.6388 17.8147 5.70385 18.5 5.7751V21.7248ZM8 5.58985V21.91C7.011 21.8611 6.1853 21.7961 5.5 21.7248V5.7751C6.1853 5.70385 7.011 5.6388 8 5.58985Z" fill="#637381"/>
</svg>
