<svg width="24" height="24" viewBox="0 0 24 24" fill="none" xmlns="http://www.w3.org/2000/svg">
<path opacity="0.4" fill-rule="evenodd" clip-rule="evenodd" d="M4.12319 2.24369C5.3177 2.12083 7.30475 2 10.5 2C13.6952 2 15.6823 2.12083 16.8768 2.24369C17.8972 2.34863 18.6398 3.10549 18.7572 4.12444C18.8797 5.18775 19 6.7933 19 9C19 11.2067 18.8797 12.8123 18.7572 13.8756C18.6398 14.8945 17.8973 15.6514 16.877 15.7563C15.822 15.8648 14.1489 15.9717 11.571 15.9952C11.1714 15.9989 10.7875 16.1592 10.507 16.4437L8.816 18.1584C8.08185 18.9029 6.8125 18.4707 6.6853 17.4328L6.55145 16.3414C6.52175 16.099 6.3197 15.9137 6.0759 15.9011C5.26545 15.859 4.62502 15.8079 4.12397 15.7564C3.10365 15.6515 2.36022 14.8945 2.24278 13.8756C2.12023 12.8123 2 11.2067 2 9C2 6.7933 2.12023 5.18775 2.24278 4.12444C2.36022 3.10549 3.10287 2.34863 4.12319 2.24369ZM7 6C6.4477 6 6 6.4477 6 7C6 7.5523 6.4477 8 7 8H14C14.5523 8 15 7.5523 15 7C15 6.4477 14.5523 6 14 6H7ZM7 10.5C6.4477 10.5 6 10.9477 6 11.5C6 12.0523 6.4477 12.5 7 12.5H11C11.5523 12.5 12 12.0523 12 11.5C12 10.9477 11.5523 10.5 11 10.5H7Z" fill="#637381"/>
<path d="M5.99902 7C5.99902 6.4477 6.44672 6 6.99902 6H13.999C14.5513 6 14.999 6.4477 14.999 7C14.999 7.5523 14.5513 8 13.999 8H6.99902C6.44672 8 5.99902 7.5523 5.99902 7Z" fill="#637381"/>
<path d="M5.99902 11.5C5.99902 10.9477 6.44672 10.5 6.99902 10.5H10.999C11.5513 10.5 11.999 10.9477 11.999 11.5C11.999 12.0523 11.5513 12.5 10.999 12.5H6.99902C6.44672 12.5 5.99902 12.0523 5.99902 11.5Z" fill="#637381"/>
<path d="M10.0257 16.9308L10.506 16.4437C10.7866 16.1592 11.1705 15.9989 11.57 15.9952C14.1479 15.9717 15.821 15.8648 16.876 15.7563C17.8963 15.6514 18.6388 14.8945 18.7562 13.8755C18.8363 13.1809 18.9154 12.2547 18.9606 11.0808C19.4674 11.1109 19.8664 11.1462 20.1773 11.1811C20.8028 11.2514 21.2614 11.7033 21.3392 12.3279C21.4206 12.9808 21.499 13.9995 21.499 15.5C21.499 17.0005 21.4206 18.0192 21.3392 18.6721C21.2614 19.2967 20.8021 19.7486 20.1766 19.8189C19.7585 19.8659 19.1808 19.9136 18.3962 19.9483C18.1641 19.9585 17.9673 20.1252 17.9223 20.3531L17.7516 21.219C17.6396 21.7868 16.9538 22.0192 16.5197 21.6364L15.0712 20.3589C14.8029 20.1223 14.4575 19.9901 14.0999 19.9816C12.7849 19.9504 11.9009 19.884 11.3222 19.819C10.6967 19.7488 10.2366 19.2967 10.1588 18.6721C10.1066 18.2528 10.0555 17.6826 10.0257 16.9308Z" fill="#637381"/>
</svg>
