<svg width="24" height="24" viewBox="0 0 24 24" fill="none" xmlns="http://www.w3.org/2000/svg">
<path d="M22 10.5C22 13.2058 21.9268 15.3259 21.8596 16.7018C21.8139 17.6385 20.9066 18.311 19.9771 18.1857C18.4531 17.9803 15.8791 17.75 12 17.75C8.1209 17.75 5.54695 17.9803 4.02285 18.1857C3.09341 18.311 2.18614 17.6385 2.14039 16.7018C2.07321 15.3259 2 13.2058 2 10.5C2 7.79427 2.07321 5.67417 2.14039 4.29829C2.18614 3.36156 3.09341 2.68909 4.02285 2.81433C5.54695 3.0197 8.1209 3.25002 12 3.25002C15.8791 3.25002 18.4531 3.0197 19.9771 2.81433C20.9066 2.68909 21.8139 3.36156 21.8596 4.29829C21.9268 5.67417 22 7.79427 22 10.5Z" fill="#637381"/>
<g opacity="0.4">
<path d="M5.59096 18.0096C5.28385 18.7423 4.94579 19.6105 4.65668 20.5C4.5685 20.7713 4.73269 21.0577 5.01662 21.0852C5.48092 21.1304 5.97612 21.1092 6.35562 21.0766C6.76872 21.0412 7.13172 20.805 7.35657 20.4566C7.94702 19.542 8.51881 18.5894 8.97868 17.8008C7.63073 17.8483 6.50815 17.9246 5.59096 18.0096Z" fill="#637381"/>
<path d="M15.022 17.8008C15.4818 18.5894 16.0536 19.542 16.6441 20.4566C16.8689 20.805 17.2319 21.0412 17.645 21.0766C18.0245 21.1092 18.5197 21.1304 18.984 21.0852C19.268 21.0577 19.4321 20.7713 19.344 20.5C19.0549 19.6105 18.7168 18.7424 18.4097 18.0097C17.4925 17.9246 16.37 17.8483 15.022 17.8008Z" fill="#637381"/>
</g>
</svg>
