<svg width="212" height="166" viewBox="0 0 212 166" fill="none" xmlns="http://www.w3.org/2000/svg">
<g opacity="0.4">
<mask id="path-1-inside-1_1262_224180" fill="white">
<path d="M113.665 164.375C90.1857 164.375 68.9685 148.087 63.6938 124.235C58.8106 102.155 72.8016 80.2186 94.882 75.3354C103.394 73.4528 112.306 75.0289 119.656 79.7169C127.007 84.4049 132.194 91.8208 134.076 100.333C137.202 114.544 128.235 128.604 114.031 131.763C104.323 133.87 94.4506 128.974 90.2536 119.97C90.2065 119.869 90.2171 119.751 90.2813 119.66C90.3456 119.569 90.4537 119.519 90.5646 119.529C90.6756 119.54 90.7725 119.609 90.8186 119.71C94.8919 128.449 104.474 133.201 113.896 131.155C127.765 128.072 136.521 114.343 133.469 100.467C129.623 83.0767 112.407 72.0967 95.0162 75.9427C73.2516 80.7819 59.5111 102.326 64.301 124.101C70.3217 151.325 97.3672 168.575 124.592 162.554C142.798 158.54 158.303 146.692 166.959 130.18C167.011 130.081 167.111 130.018 167.222 130.013C167.333 130.009 167.439 130.064 167.498 130.158C167.557 130.252 167.562 130.371 167.51 130.469C158.769 147.144 143.111 159.108 124.726 163.161C121.094 163.967 117.385 164.374 113.665 164.375Z"/>
<path d="M174.172 94.3697C174.013 94.3697 173.88 94.2497 173.863 94.0918C173.61 91.7412 173.228 89.4064 172.717 87.0979C164.596 50.3744 131.452 24.249 93.9078 25.0126C93.7361 25.016 93.5941 24.8795 93.5906 24.7078C93.5873 24.5361 93.7237 24.3941 93.8954 24.3906C131.89 23.6851 165.116 49.8597 173.325 86.9637C173.84 89.2946 174.226 91.6521 174.482 94.0256C174.491 94.1076 174.466 94.1897 174.415 94.2539C174.363 94.3181 174.288 94.3591 174.206 94.3679C174.195 94.3697 174.183 94.3697 174.172 94.3697Z"/>
<path d="M2.6715 145.369C2.52573 145.369 2.39964 145.267 2.3682 145.125C-5.60722 109.186 6.8926 71.7786 34.8717 47.854C34.9559 47.7809 35.0729 47.7585 35.1782 47.7954C35.2835 47.8322 35.361 47.9226 35.3813 48.0323C35.4016 48.142 35.3616 48.2542 35.2765 48.3263C7.47176 72.1016 -4.95022 109.276 2.97541 144.991C2.99586 145.083 2.97337 145.179 2.91426 145.253C2.85515 145.326 2.76584 145.369 2.6715 145.369Z"/>
</mask>
<path d="M113.665 164.375V164.875H113.665L113.665 164.375ZM63.6938 124.235L64.182 124.127L63.6938 124.235ZM94.882 75.3354L94.9899 75.8236L94.882 75.3354ZM119.656 79.7169L119.387 80.1384L119.656 79.7169ZM134.076 100.333L134.564 100.226L134.564 100.225L134.076 100.333ZM114.031 131.763L114.137 132.251L114.139 132.251L114.031 131.763ZM90.2536 119.97L89.8004 120.181L89.8004 120.182L90.2536 119.97ZM90.2813 119.66L90.6899 119.948L90.2813 119.66ZM90.5646 119.529L90.5177 120.027L90.5646 119.529ZM90.8186 119.71L90.3633 119.917L90.3654 119.922L90.8186 119.71ZM113.896 131.155L114.002 131.644L114.005 131.643L113.896 131.155ZM133.469 100.467L133.957 100.36L133.957 100.359L133.469 100.467ZM95.0162 75.9427L94.9082 75.4545L94.9077 75.4547L95.0162 75.9427ZM64.301 124.101L63.8127 124.209L63.8128 124.209L64.301 124.101ZM124.592 162.554L124.484 162.066L124.484 162.066L124.592 162.554ZM166.959 130.18L167.402 130.412L167.402 130.412L166.959 130.18ZM167.222 130.013L167.242 130.513L167.222 130.013ZM167.498 130.158L167.075 130.425L167.498 130.158ZM167.51 130.469L167.068 130.236L167.067 130.237L167.51 130.469ZM124.726 163.161L124.618 162.673L124.618 162.673L124.726 163.161ZM173.863 94.0918L174.36 94.0385L174.36 94.0383L173.863 94.0918ZM172.717 87.0979L173.206 86.99V86.9899L172.717 87.0979ZM93.9078 25.0126L93.9177 25.5125L93.918 25.5125L93.9078 25.0126ZM93.5906 24.7078L93.0907 24.7176L93.0907 24.718L93.5906 24.7078ZM93.8954 24.3906L93.8861 23.8907L93.8853 23.8907L93.8954 24.3906ZM173.325 86.9637L173.813 86.8557L173.813 86.8557L173.325 86.9637ZM174.482 94.0256L174.979 93.9724L174.979 93.9721L174.482 94.0256ZM174.415 94.2539L174.804 94.5678L174.415 94.2539ZM174.206 94.3679L174.153 93.8707L174.139 93.8722L174.125 93.8744L174.206 94.3679ZM2.3682 145.125L2.85643 145.017L2.85632 145.017L2.3682 145.125ZM34.8717 47.854L35.1966 48.2341L35.1994 48.2317L34.8717 47.854ZM35.1782 47.7954L35.0131 48.2673L35.1782 47.7954ZM35.3813 48.0323L34.8896 48.1233V48.1233L35.3813 48.0323ZM35.2765 48.3263L34.9533 47.9447L34.9515 47.9462L35.2765 48.3263ZM2.97541 144.991L2.48728 145.099L2.4873 145.099L2.97541 144.991ZM2.91426 145.253L3.30397 145.566H3.30397L2.91426 145.253ZM113.665 163.875C113.346 163.875 113.028 163.872 112.711 163.866L112.692 164.866C113.016 164.872 113.34 164.875 113.665 164.875V163.875ZM108.91 163.649C108.277 163.589 107.646 163.517 107.018 163.433L106.886 164.424C107.526 164.51 108.169 164.583 108.815 164.645L108.91 163.649ZM103.265 162.787C102.643 162.655 102.024 162.512 101.409 162.358L101.166 163.328C101.793 163.485 102.424 163.631 103.058 163.765L103.265 162.787ZM97.7529 161.292C97.15 161.091 96.5514 160.88 95.9574 160.657L95.6063 161.593C96.212 161.82 96.8224 162.036 97.4371 162.241L97.7529 161.292ZM92.4438 159.187C91.8674 158.921 91.2962 158.643 90.7306 158.355L90.277 159.246C90.8537 159.54 91.4361 159.823 92.0238 160.095L92.4438 159.187ZM87.403 156.502C86.8601 156.173 86.3234 155.833 85.7932 155.484L85.243 156.319C85.7836 156.675 86.3308 157.021 86.8843 157.357L87.403 156.502ZM82.693 153.272C82.1904 152.884 81.695 152.487 81.2069 152.08L80.567 152.849C81.0646 153.263 81.5698 153.668 82.0822 154.063L82.693 153.272ZM78.3733 149.536C77.9174 149.094 77.4695 148.644 77.0298 148.186L76.3079 148.878C76.7562 149.345 77.2129 149.804 77.6777 150.254L78.3733 149.536ZM74.4995 145.339C74.0964 144.849 73.7019 144.352 73.3165 143.846L72.5212 144.452C72.9143 144.968 73.3165 145.475 73.7277 145.975L74.4995 145.339ZM71.1243 140.733C70.7794 140.201 70.4439 139.662 70.1181 139.116L69.2593 139.629C69.5916 140.186 69.9337 140.735 70.2855 141.277L71.1243 140.733ZM68.2929 135.774C68.0107 135.208 67.7384 134.634 67.4765 134.054L66.5651 134.465C66.8322 135.057 67.1099 135.642 67.3978 136.22L68.2929 135.774ZM66.0414 130.525C65.8254 129.93 65.6199 129.33 65.4251 128.724L64.473 129.029C64.6717 129.648 64.8812 130.26 65.1015 130.866L66.0414 130.525ZM64.3969 125.058C64.3226 124.749 64.2509 124.439 64.182 124.127L63.2056 124.343C63.2759 124.661 63.3489 124.977 63.4247 125.292L64.3969 125.058ZM64.182 124.127C64.1122 123.812 64.0463 123.496 63.9843 123.181L63.0031 123.374C63.0666 123.697 63.1341 124.02 63.2056 124.343L64.182 124.127ZM63.4204 119.368C63.3564 118.726 63.308 118.085 63.275 117.446L62.2764 117.498C62.3102 118.153 62.3597 118.809 62.4253 119.467L63.4204 119.368ZM63.261 113.592C63.2896 112.948 63.3336 112.307 63.3927 111.669L62.397 111.577C62.3364 112.231 62.2913 112.888 62.262 113.548L63.261 113.592ZM63.9319 107.853C64.0524 107.221 64.1878 106.592 64.3378 105.968L63.3656 105.735C63.2118 106.374 63.073 107.018 62.9495 107.666L63.9319 107.853ZM65.4169 102.268C65.6262 101.66 65.8498 101.057 66.0872 100.46L65.1581 100.09C64.9148 100.702 64.6858 101.319 64.4713 101.943L65.4169 102.268ZM67.6806 96.9498C67.9738 96.3775 68.2803 95.8124 68.5999 95.2549L67.7324 94.7576C67.4049 95.3287 67.0909 95.9076 66.7906 96.4939L67.6806 96.9498ZM70.673 92.0045C71.0437 91.4796 71.4269 90.9634 71.8222 90.4562L71.0335 89.8415C70.6285 90.361 70.236 90.8899 69.8562 91.4276L70.673 92.0045ZM74.3333 87.5312C74.7742 87.0643 75.2264 86.6074 75.6898 86.1611L74.9961 85.4409C74.5213 85.8982 74.0579 86.3662 73.6062 86.8446L74.3333 87.5312ZM78.5902 83.6222C79.0925 83.2231 79.6051 82.8353 80.1278 82.4594L79.5438 81.6476C79.0082 82.0329 78.4829 82.4302 77.9681 82.8392L78.5902 83.6222ZM83.3608 80.3613C83.9144 80.0386 84.4772 79.7284 85.0489 79.431L84.5874 78.5438C84.0015 78.8486 83.4247 79.1666 82.8572 79.4973L83.3608 80.3613ZM88.5492 77.8186C89.1427 77.579 89.7441 77.3526 90.3532 77.1399L90.0235 76.1958C89.3994 76.4138 88.783 76.6458 88.1748 76.8913L88.5492 77.8186ZM94.0482 76.0435C94.3604 75.9667 94.6743 75.8934 94.9899 75.8236L94.774 74.8472C94.4507 74.9187 94.1292 74.9938 93.8093 75.0724L94.0482 76.0435ZM94.9899 75.8236C95.3354 75.7472 95.6814 75.6766 96.0281 75.6117L95.8442 74.6288C95.4868 74.6956 95.1301 74.7684 94.774 74.8472L94.9899 75.8236ZM100.232 75.1069C100.939 75.0687 101.645 75.0538 102.35 75.0618L102.361 74.0619C101.634 74.0536 100.906 74.069 100.178 74.1084L100.232 75.1069ZM106.572 75.3871C107.271 75.4873 107.967 75.6103 108.658 75.756L108.864 74.7775C108.152 74.6274 107.434 74.5005 106.714 74.3972L106.572 75.3871ZM112.735 76.8985C113.4 77.1328 114.059 77.3891 114.709 77.6672L115.102 76.7478C114.432 76.461 113.753 76.1968 113.067 75.9553L112.735 76.8985ZM118.485 79.5834C118.788 79.7632 119.089 79.9482 119.387 80.1384L119.925 79.2953C119.618 79.0992 119.307 78.9085 118.995 78.7231L118.485 79.5834ZM119.387 80.1384C119.686 80.3287 119.98 80.5235 120.271 80.7227L120.836 79.8976C120.536 79.6922 120.233 79.4914 119.925 79.2953L119.387 80.1384ZM123.601 83.3385C124.127 83.811 124.637 84.2998 125.13 84.8042L125.845 84.1052C125.337 83.5853 124.812 83.0813 124.269 82.5943L123.601 83.3385ZM127.886 88.0195C128.309 88.5847 128.714 89.1636 129.1 89.7553L129.937 89.2093C129.54 88.5993 129.122 88.0025 128.686 87.4198L127.886 88.0195ZM131.175 93.4463C131.48 94.0823 131.764 94.729 132.027 95.3856L132.955 95.0135C132.684 94.3366 132.391 93.6699 132.077 93.0142L131.175 93.4463ZM133.342 99.4105C133.43 99.7522 133.511 100.096 133.588 100.441L134.564 100.225C134.486 99.8691 134.401 99.515 134.311 99.1628L133.342 99.4105ZM133.588 100.441C133.657 100.757 133.721 101.074 133.778 101.39L134.762 101.212C134.703 100.883 134.637 100.554 134.564 100.226L133.588 100.441ZM134.186 105.233C134.205 105.881 134.201 106.525 134.173 107.166L135.172 107.21C135.201 106.545 135.206 105.875 135.185 105.202L134.186 105.233ZM133.712 111.002C133.587 111.636 133.438 112.264 133.266 112.883L134.23 113.15C134.408 112.506 134.563 111.854 134.693 111.196L133.712 111.002ZM131.961 116.52C131.699 117.11 131.414 117.689 131.109 118.256L131.99 118.73C132.307 118.141 132.602 117.539 132.875 116.927L131.961 116.52ZM129.031 121.515C128.645 122.031 128.24 122.532 127.816 123.019L128.571 123.676C129.011 123.17 129.431 122.649 129.832 122.113L129.031 121.515ZM125.069 125.736C124.579 126.153 124.073 126.552 123.551 126.933L124.14 127.741C124.682 127.346 125.208 126.931 125.717 126.498L125.069 125.736ZM120.267 128.969C119.698 129.265 119.115 129.541 118.52 129.796L118.913 130.715C119.532 130.45 120.137 130.163 120.728 129.856L120.267 128.969ZM114.864 131.047C114.553 131.128 114.239 131.204 113.922 131.275L114.139 132.251C114.468 132.178 114.793 132.099 115.116 132.015L114.864 131.047ZM113.925 131.274C113.619 131.34 113.314 131.399 113.008 131.452L113.177 132.437C113.497 132.383 113.817 132.321 114.137 132.251L113.925 131.274ZM109.293 131.747C108.668 131.741 108.047 131.706 107.431 131.643L107.33 132.638C107.976 132.704 108.627 132.74 109.282 132.747L109.293 131.747ZM103.772 130.935C103.173 130.763 102.584 130.563 102.005 130.338L101.642 131.27C102.249 131.506 102.867 131.715 103.494 131.896L103.772 130.935ZM98.6654 128.682C98.1357 128.357 97.6202 128.009 97.1205 127.637L96.5235 128.439C97.0472 128.829 97.5876 129.194 98.1427 129.535L98.6654 128.682ZM94.3428 125.152C93.9201 124.699 93.5163 124.226 93.1329 123.733L92.3433 124.346C92.7453 124.864 93.1687 125.36 93.6117 125.835L94.3428 125.152ZM91.1198 120.596C90.9765 120.321 90.8387 120.042 90.7067 119.759L89.8004 120.182C89.9387 120.478 90.083 120.77 90.2331 121.058L91.1198 120.596ZM90.7068 119.759C90.7114 119.769 90.7152 119.779 90.718 119.79L89.7519 120.048C89.7641 120.094 89.7802 120.138 89.8004 120.181L90.7068 119.759ZM90.7065 119.919C90.7018 119.929 90.6963 119.939 90.6899 119.948L89.8727 119.371C89.8452 119.41 89.8214 119.451 89.8015 119.494L90.7065 119.919ZM90.6899 119.948C90.6835 119.957 90.6764 119.965 90.6686 119.973L89.9643 119.263C89.9309 119.296 89.9003 119.332 89.8727 119.371L90.6899 119.948ZM90.5507 120.027C90.5397 120.028 90.5287 120.028 90.5177 120.027L90.6116 119.032C90.564 119.027 90.5166 119.027 90.4698 119.031L90.5507 120.027ZM90.5177 120.027C90.5067 120.026 90.4958 120.024 90.4852 120.021L90.751 119.057C90.7057 119.045 90.6591 119.036 90.6116 119.032L90.5177 120.027ZM90.3795 119.946C90.3733 119.937 90.3679 119.927 90.3633 119.917L91.2738 119.504C91.2541 119.46 91.2307 119.419 91.2041 119.38L90.3795 119.946ZM90.3654 119.922C90.4997 120.21 90.6398 120.494 90.7857 120.773L91.6723 120.311C91.5333 120.044 91.3998 119.774 91.2718 119.499L90.3654 119.922ZM92.8351 123.967C93.2255 124.469 93.6367 124.951 94.0671 125.412L94.7981 124.73C94.3882 124.291 93.9966 123.832 93.6247 123.353L92.8351 123.967ZM96.8952 127.942C97.4039 128.32 97.9287 128.675 98.4679 129.006L98.9906 128.154C98.4768 127.839 97.9768 127.5 97.4922 127.14L96.8952 127.942ZM101.867 130.692C102.456 130.921 103.057 131.124 103.666 131.3L103.943 130.339C103.363 130.171 102.791 129.978 102.229 129.76L101.867 130.692ZM107.391 132.02C108.019 132.084 108.651 132.119 109.287 132.126L109.298 131.126C108.692 131.12 108.089 131.086 107.492 131.025L107.391 132.02ZM113.07 131.825C113.381 131.772 113.692 131.711 114.002 131.644L113.79 130.667C113.494 130.731 113.198 130.788 112.902 130.839L113.07 131.825ZM114.005 131.643C114.326 131.572 114.644 131.495 114.96 131.413L114.707 130.445C114.403 130.524 114.097 130.599 113.788 130.667L114.005 131.643ZM118.668 130.143C119.273 129.884 119.864 129.604 120.441 129.304L119.98 128.417C119.425 128.706 118.856 128.975 118.275 129.224L118.668 130.143ZM123.774 127.238C124.304 126.852 124.818 126.447 125.315 126.024L124.667 125.262C124.189 125.669 123.695 126.059 123.185 126.43L123.774 127.238ZM128.102 123.267C128.532 122.773 128.943 122.264 129.334 121.741L128.533 121.142C128.157 121.646 127.761 122.135 127.348 122.61L128.102 123.267ZM131.442 118.436C131.752 117.86 132.04 117.273 132.307 116.675L131.393 116.268C131.137 116.843 130.859 117.408 130.562 117.962L131.442 118.436ZM133.631 112.985C133.805 112.356 133.956 111.719 134.083 111.076L133.101 110.882C132.979 111.501 132.834 112.113 132.667 112.718L133.631 112.985ZM134.55 107.183C134.579 106.533 134.584 105.879 134.563 105.221L133.564 105.252C133.583 105.884 133.579 106.513 133.551 107.138L134.55 107.183ZM134.151 101.323C134.092 101.002 134.028 100.681 133.957 100.36L132.98 100.575C133.049 100.884 133.111 101.193 133.167 101.502L134.151 101.323ZM133.957 100.359C133.879 100.009 133.797 99.6605 133.708 99.3149L132.739 99.5622C132.825 99.8974 132.905 100.235 132.981 100.575L133.957 100.359ZM132.382 95.2423C132.116 94.5752 131.829 93.9205 131.522 93.2787L130.62 93.71C130.917 94.332 131.195 94.9667 131.454 95.6133L132.382 95.2423ZM129.423 89.5437C129.032 88.9432 128.622 88.3576 128.194 87.7875L127.394 88.3877C127.809 88.9403 128.206 89.5079 128.586 90.0899L129.423 89.5437ZM125.404 84.5368C124.903 84.0256 124.386 83.5315 123.855 83.0553L123.187 83.8001C123.703 84.2619 124.204 84.7409 124.689 85.2365L125.404 84.5368ZM120.485 80.4106C119.895 80.007 119.292 79.6227 118.678 79.2583L118.168 80.1184C118.764 80.4718 119.348 80.8445 119.92 81.2358L120.485 80.4106ZM114.859 77.3177C114.203 77.0365 113.537 76.7764 112.862 76.5381L112.529 77.4809C113.183 77.712 113.829 77.9642 114.465 78.2368L114.859 77.3177ZM108.738 75.3786C108.041 75.2312 107.337 75.1062 106.627 75.0044L106.485 75.9943C107.173 76.093 107.855 76.2141 108.531 76.357L108.738 75.3786ZM102.356 74.6768C101.644 74.6693 100.93 74.685 100.212 74.7247L100.267 75.7232C100.963 75.6847 101.656 75.6695 102.345 75.6768L102.356 74.6768ZM95.9602 75.2396C95.6097 75.3053 95.259 75.377 94.9082 75.4545L95.1242 76.4309C95.4644 76.3557 95.8046 76.2862 96.1446 76.2224L95.9602 75.2396ZM94.9077 75.4547C94.5893 75.5254 94.2727 75.5997 93.9578 75.6775L94.1976 76.6484C94.505 76.5724 94.814 76.4999 95.1247 76.4308L94.9077 75.4547ZM90.23 76.7867C89.6153 77.0016 89.0084 77.2304 88.4094 77.4723L88.7841 78.3995C89.3683 78.1635 89.9604 77.9403 90.5601 77.7306L90.23 76.7867ZM84.8764 79.1003C84.2992 79.4004 83.7311 79.7136 83.1721 80.0392L83.6755 80.9032C84.2207 80.5856 84.7749 80.2802 85.3378 79.9874L84.8764 79.1003ZM79.9081 82.1563C79.3805 82.5356 78.8629 82.9268 78.3558 83.3295L78.9776 84.1126C79.4723 83.7199 79.9771 83.3383 80.4918 82.9683L79.9081 82.1563ZM75.4276 85.891C74.9598 86.3413 74.5033 86.8022 74.0582 87.2733L74.7851 87.96C75.2193 87.5004 75.6647 87.0508 76.1211 86.6115L75.4276 85.891ZM71.5236 90.2245C71.1246 90.7362 70.7379 91.2571 70.3638 91.7867L71.1806 92.3636C71.5456 91.8469 71.9229 91.3386 72.3122 90.8394L71.5236 90.2245ZM68.2719 95.0666C67.9494 95.6291 67.6402 96.1994 67.3445 96.777L68.2346 97.2327C68.5231 96.6692 68.8248 96.1128 69.1395 95.5639L68.2719 95.0666ZM65.7373 100.32C65.4978 100.922 65.2724 101.53 65.0614 102.144L66.0071 102.469C66.213 101.87 66.4329 101.277 66.6665 100.689L65.7373 100.32ZM63.9735 105.88C63.8222 106.509 63.6857 107.143 63.5643 107.782L64.5467 107.969C64.6651 107.346 64.7983 106.727 64.9458 106.113L63.9735 105.88ZM63.021 111.634C62.9614 112.278 62.9171 112.925 62.8883 113.575L63.8873 113.62C63.9154 112.986 63.9587 112.354 64.0168 111.726L63.021 111.634ZM62.902 117.465C62.9352 118.111 62.9837 118.757 63.048 119.405L64.0431 119.307C63.9804 118.674 63.933 118.043 63.9007 117.414L62.902 117.465ZM63.6143 123.253C63.6765 123.572 63.7427 123.89 63.8127 124.209L64.7894 123.994C64.721 123.683 64.6564 123.372 64.5957 123.061L63.6143 123.253ZM63.8128 124.209C63.8873 124.546 63.9649 124.881 64.0456 125.214L65.0175 124.979C64.9383 124.652 64.8622 124.323 64.7893 123.993L63.8128 124.209ZM65.1712 129.165C65.3862 129.82 65.6136 130.467 65.8531 131.107L66.7898 130.757C66.5549 130.129 66.332 129.495 66.1212 128.853L65.1712 129.165ZM67.4488 134.897C67.7409 135.519 68.0448 136.134 68.3602 136.74L69.2473 136.278C68.9382 135.684 68.6402 135.082 68.3539 134.472L67.4488 134.897ZM70.4044 140.308C70.7698 140.889 71.1464 141.463 71.5337 142.027L72.3581 141.461C71.9785 140.908 71.6094 140.346 71.2512 139.776L70.4044 140.308ZM73.9956 145.32C74.4284 145.853 74.8714 146.376 75.3242 146.889L76.0742 146.228C75.6302 145.724 75.196 145.211 74.7717 144.689L73.9956 145.32ZM78.1657 149.861C78.6593 150.337 79.1621 150.804 79.6737 151.259L80.3387 150.512C79.8371 150.066 79.3441 149.609 78.8602 149.142L78.1657 149.861ZM82.8509 153.868C83.3977 154.282 83.9526 154.685 84.5152 155.076L85.0861 154.255C84.5344 153.871 83.9903 153.476 83.4542 153.071L82.8509 153.868ZM87.9816 157.287C88.5736 157.632 89.1726 157.965 89.7782 158.287L90.247 157.403C89.6532 157.088 89.0658 156.761 88.4853 156.423L87.9816 157.287ZM93.484 160.067C94.1128 160.339 94.7475 160.598 95.3875 160.845L95.7471 159.912C95.1195 159.67 94.4973 159.416 93.8807 159.149L93.484 160.067ZM99.2806 162.168C99.9371 162.362 100.598 162.544 101.264 162.711L101.508 161.742C100.856 161.577 100.208 161.4 99.5641 161.209L99.2806 162.168ZM105.288 163.555C105.963 163.668 106.641 163.768 107.323 163.854L107.448 162.862C106.78 162.778 106.115 162.68 105.453 162.569L105.288 163.555ZM111.42 164.203C112.103 164.233 112.788 164.25 113.475 164.253L113.479 163.253C112.805 163.25 112.134 163.234 111.464 163.204L111.42 164.203ZM117.584 164.101C118.266 164.048 118.949 163.982 119.633 163.901L119.515 162.908C118.845 162.987 118.175 163.052 117.507 163.104L117.584 164.101ZM123.69 163.255C124.027 163.188 124.363 163.117 124.7 163.042L124.484 162.066C124.154 162.139 123.824 162.208 123.494 162.275L123.69 163.255ZM124.699 163.042C125.034 162.969 125.368 162.892 125.702 162.813L125.471 161.84C125.143 161.918 124.814 161.993 124.484 162.066L124.699 163.042ZM129.666 161.736C130.322 161.535 130.973 161.323 131.621 161.102L131.297 160.156C130.66 160.374 130.018 160.582 129.373 160.78L129.666 161.736ZM135.463 159.646C136.096 159.382 136.724 159.109 137.347 158.826L136.933 157.916C136.32 158.194 135.702 158.463 135.079 158.723L135.463 159.646ZM141.031 157.006C141.635 156.682 142.234 156.35 142.827 156.007L142.327 155.141C141.743 155.478 141.154 155.806 140.559 156.124L141.031 157.006ZM146.317 153.84C146.887 153.46 147.451 153.07 148.008 152.672L147.427 151.859C146.878 152.25 146.323 152.633 145.762 153.007L146.317 153.84ZM151.273 150.178C151.803 149.745 152.327 149.303 152.843 148.853L152.186 148.099C151.678 148.542 151.162 148.977 150.64 149.403L151.273 150.178ZM155.852 146.054C156.338 145.572 156.816 145.082 157.287 144.584L156.56 143.897C156.097 144.387 155.626 144.87 155.147 145.344L155.852 146.054ZM160.011 141.508C160.448 140.981 160.877 140.447 161.297 139.906L160.507 139.292C160.093 139.825 159.671 140.351 159.241 140.869L160.011 141.508ZM163.711 136.58C164.095 136.014 164.47 135.441 164.836 134.861L163.991 134.327C163.63 134.898 163.261 135.462 162.883 136.019L163.711 136.58ZM166.917 131.319C167.081 131.018 167.243 130.716 167.402 130.412L166.516 129.948C166.36 130.247 166.201 130.544 166.039 130.84L166.917 131.319ZM167.402 130.412C167.397 130.421 167.391 130.431 167.385 130.439L166.592 129.829C166.564 129.866 166.538 129.906 166.516 129.949L167.402 130.412ZM167.275 130.509C167.264 130.511 167.254 130.512 167.242 130.513L167.202 129.514C167.154 129.516 167.107 129.522 167.062 129.532L167.275 130.509ZM167.242 130.513C167.231 130.513 167.22 130.513 167.21 130.511L167.343 129.52C167.297 129.514 167.25 129.512 167.202 129.514L167.242 130.513ZM167.095 130.451C167.088 130.443 167.081 130.434 167.075 130.425L167.921 129.892C167.896 129.851 167.867 129.814 167.835 129.779L167.095 130.451ZM167.075 130.425C167.069 130.415 167.064 130.406 167.06 130.395L167.986 130.017C167.968 129.974 167.946 129.932 167.921 129.892L167.075 130.425ZM167.055 130.266C167.058 130.256 167.063 130.245 167.068 130.236L167.952 130.703C167.974 130.661 167.992 130.617 168.007 130.573L167.055 130.266ZM167.067 130.237C166.909 130.539 166.748 130.84 166.585 131.139L167.463 131.617C167.629 131.313 167.792 131.008 167.953 130.702L167.067 130.237ZM164.516 134.66C164.152 135.236 163.779 135.806 163.398 136.369L164.226 136.93C164.613 136.358 164.992 135.779 165.362 135.194L164.516 134.66ZM160.998 139.674C160.58 140.212 160.154 140.743 159.72 141.267L160.489 141.905C160.931 141.374 161.363 140.834 161.788 140.287L160.998 139.674ZM157.012 144.324C156.544 144.82 156.068 145.307 155.585 145.786L156.29 146.496C156.78 146.009 157.264 145.514 157.739 145.011L157.012 144.324ZM152.595 148.568C152.081 149.015 151.561 149.455 151.034 149.885L151.666 150.66C152.202 150.222 152.73 149.776 153.252 149.322L152.595 148.568ZM147.788 152.365C147.234 152.761 146.674 153.147 146.107 153.525L146.662 154.357C147.238 153.973 147.807 153.581 148.369 153.179L147.788 152.365ZM142.638 155.68C142.048 156.02 141.453 156.351 140.852 156.672L141.324 157.554C141.934 157.228 142.539 156.892 143.138 156.546L142.638 155.68ZM137.191 158.482C136.572 158.763 135.947 159.035 135.318 159.297L135.702 160.22C136.342 159.954 136.976 159.678 137.605 159.392L137.191 158.482ZM131.498 160.744C130.855 160.964 130.208 161.174 129.556 161.374L129.849 162.33C130.511 162.127 131.169 161.914 131.822 161.69L131.498 160.744ZM125.615 162.445C125.283 162.524 124.951 162.6 124.618 162.673L124.834 163.65C125.172 163.575 125.509 163.498 125.846 163.418L125.615 162.445ZM124.618 162.673C124.318 162.74 124.018 162.803 123.718 162.864L123.917 163.844C124.223 163.782 124.529 163.717 124.834 163.65L124.618 162.673ZM120.088 163.464C119.479 163.542 118.869 163.609 118.259 163.665L118.349 164.66C118.972 164.604 119.594 164.535 120.215 164.456L120.088 163.464ZM114.585 163.866C114.278 163.872 113.971 163.875 113.665 163.875L113.665 164.875C113.978 164.875 114.29 164.872 114.603 164.866L114.585 163.866ZM174.172 93.8697C174.187 93.8697 174.203 93.8716 174.218 93.8754L173.976 94.8457C174.039 94.8615 174.105 94.8697 174.172 94.8697V93.8697ZM174.35 93.994C174.355 94.0085 174.359 94.0235 174.36 94.0385L173.366 94.1452C173.373 94.2116 173.388 94.2759 173.411 94.337L174.35 93.994ZM174.36 94.0383C174.318 93.6436 174.272 93.2492 174.222 92.8554L173.23 92.9807C173.279 93.3684 173.324 93.7567 173.366 94.1453L174.36 94.0383ZM173.452 88.1552C173.373 87.7661 173.291 87.3776 173.206 86.99L172.229 87.2058C172.314 87.5875 172.394 87.97 172.472 88.3531L173.452 88.1552ZM173.206 86.9899C173.132 86.6592 173.057 86.3293 172.98 86.0003L172.006 86.2286C172.083 86.5535 172.157 86.8793 172.229 87.2059L173.206 86.9899ZM171.956 82.0835C171.768 81.4348 171.573 80.7899 171.37 80.1487L170.417 80.4506C170.617 81.0837 170.81 81.7205 170.995 82.361L171.956 82.0835ZM170.049 76.3204C169.812 75.6872 169.568 75.0581 169.316 74.4332L168.389 74.8072C168.637 75.4242 168.879 76.0454 169.113 76.6707L170.049 76.3204ZM167.707 70.7196C167.422 70.1063 167.13 69.4974 166.831 68.8932L165.935 69.3372C166.23 69.9338 166.519 70.535 166.8 71.1406L167.707 70.7196ZM164.941 65.3132C164.611 64.7241 164.273 64.1398 163.929 63.5605L163.069 64.0717C163.41 64.6437 163.743 65.2207 164.069 65.8024L164.941 65.3132ZM161.771 60.1349C161.397 59.5731 161.016 59.0164 160.628 58.4651L159.81 59.0403C160.193 59.5847 160.569 60.1344 160.939 60.6892L161.771 60.1349ZM158.216 55.2135C157.801 54.6817 157.378 54.1555 156.95 53.635L156.178 54.2706C156.601 54.7847 157.018 55.3043 157.429 55.8294L158.216 55.2135ZM154.298 50.5761C153.843 50.0773 153.382 49.5844 152.915 49.0976L152.194 49.7899C152.655 50.2706 153.11 50.7574 153.559 51.25L154.298 50.5761ZM150.041 46.2481C149.549 45.7852 149.052 45.3286 148.55 44.8784L147.883 45.6232C148.379 46.0678 148.87 46.5187 149.355 46.9758L150.041 46.2481ZM145.468 42.2539C144.944 41.8295 144.414 41.4117 143.879 41.0006L143.27 41.7936C143.798 42.1996 144.321 42.6122 144.839 43.0313L145.468 42.2539ZM140.608 38.6161C140.053 38.2325 139.493 37.8558 138.928 37.4863L138.381 38.323C138.938 38.688 139.491 39.0599 140.039 39.4387L140.608 38.6161ZM135.486 35.3556C134.904 35.0151 134.317 34.6819 133.726 34.356L133.243 35.2317C133.827 35.5536 134.407 35.8826 134.982 36.2189L135.486 35.3556ZM130.133 32.4921C129.526 32.1969 128.916 31.9092 128.302 31.6292L127.887 32.539C128.493 32.8156 129.096 33.0996 129.695 33.3912L130.133 32.4921ZM124.576 30.0438C123.95 29.7957 123.319 29.5554 122.686 29.323L122.341 30.2619C122.967 30.4914 123.59 30.7286 124.208 30.9736L124.576 30.0438ZM118.85 28.0269C118.206 27.8275 117.559 27.6361 116.909 27.4529L116.638 28.4154C117.28 28.5963 117.919 28.7853 118.554 28.9822L118.85 28.0269ZM112.986 26.455C112.328 26.3055 111.668 26.1644 111.005 26.0315L110.809 27.0121C111.463 27.1432 112.115 27.2826 112.764 27.4301L112.986 26.455ZM107.017 25.3387C106.351 25.2404 105.682 25.1506 105.011 25.0692L104.89 26.062C105.553 26.1423 106.213 26.231 106.872 26.328L107.017 25.3387ZM100.979 24.6854C100.308 24.6389 99.6352 24.6009 98.9606 24.5714L98.917 25.5705C99.583 25.5996 100.247 25.6371 100.91 25.683L100.979 24.6854ZM94.9126 24.4985C94.5746 24.5011 94.2363 24.5058 93.8977 24.5127L93.918 25.5125C94.2524 25.5057 94.5865 25.501 94.9201 25.4985L94.9126 24.4985ZM93.8979 24.5127C93.9141 24.5124 93.9305 24.5142 93.9466 24.5181L93.7076 25.4892C93.7754 25.5058 93.8459 25.5139 93.9177 25.5125L93.8979 24.5127ZM94.0831 24.6493C94.0877 24.6652 94.0902 24.6815 94.0905 24.6976L93.0907 24.718C93.0922 24.7898 93.1031 24.86 93.1225 24.927L94.0831 24.6493ZM94.0905 24.698C94.0909 24.7141 94.089 24.7305 94.0851 24.7467L93.1141 24.5076C93.0974 24.5753 93.0893 24.6458 93.0907 24.7176L94.0905 24.698ZM93.9539 24.8831C93.938 24.8877 93.9216 24.8902 93.9055 24.8905L93.8853 23.8907C93.8135 23.8922 93.7433 23.9031 93.6763 23.9224L93.9539 24.8831ZM93.9047 24.8905C94.2419 24.8843 94.5788 24.8802 94.9153 24.8781L94.9093 23.8782C94.5686 23.8802 94.2275 23.8844 93.8861 23.8907L93.9047 24.8905ZM98.9449 24.9555C99.6164 24.9854 100.286 25.0237 100.954 25.0703L101.023 24.0728C100.347 24.0255 99.6692 23.9868 98.9893 23.9565L98.9449 24.9555ZM104.967 25.4532C105.635 25.5341 106.301 25.6234 106.965 25.721L107.11 24.7316C106.438 24.6328 105.764 24.5424 105.087 24.4604L104.967 25.4532ZM110.934 26.4085C111.594 26.5402 112.252 26.6802 112.906 26.8283L113.127 25.853C112.464 25.703 111.798 25.5612 111.13 25.4278L110.934 26.4085ZM116.812 27.8175C117.46 27.9991 118.104 28.1888 118.745 28.3865L119.04 27.4309C118.391 27.2307 117.738 27.0386 117.082 26.8546L116.812 27.8175ZM122.565 29.6716C123.196 29.902 123.824 30.1403 124.448 30.3863L124.814 29.456C124.183 29.2069 123.547 28.9656 122.908 28.7322L122.565 29.6716ZM128.158 31.9594C128.77 32.2373 129.378 32.5229 129.982 32.816L130.419 31.9163C129.807 31.6196 129.192 31.3304 128.572 31.0489L128.158 31.9594ZM133.562 34.6668C134.151 34.9906 134.735 35.3217 135.315 35.66L135.819 34.7962C135.232 34.4536 134.64 34.1183 134.043 33.7905L133.562 34.6668ZM138.744 37.7776C139.306 38.1451 139.864 38.5196 140.417 38.901L140.985 38.0779C140.425 37.6917 139.86 37.3125 139.291 36.9404L138.744 37.7776ZM143.675 41.2729C144.208 41.6818 144.735 42.0975 145.258 42.5198L145.886 41.7422C145.358 41.3146 144.823 40.8937 144.284 40.4796L143.675 41.2729ZM148.326 45.132C148.827 45.5802 149.321 46.0347 149.81 46.4956L150.496 45.7679C150.001 45.3013 149.5 44.841 148.994 44.3872L148.326 45.132ZM152.672 49.333C153.136 49.8178 153.595 50.3087 154.048 50.8055L154.787 50.1321C154.329 49.629 153.864 49.1319 153.394 48.641L152.672 49.333ZM156.685 53.8523C157.111 54.3708 157.531 54.895 157.945 55.4247L158.733 54.8095C158.315 54.273 157.889 53.7422 157.458 53.2172L156.685 53.8523ZM160.343 58.664C160.728 59.2132 161.107 59.7677 161.479 60.3274L162.312 59.7741C161.935 59.2073 161.552 58.6457 161.162 58.0896L160.343 58.664ZM163.622 63.7399C163.964 64.3169 164.3 64.899 164.628 65.4859L165.501 64.9978C165.168 64.4035 164.829 63.8141 164.482 63.2298L163.622 63.7399ZM166.504 69.0517C166.801 69.6536 167.091 70.26 167.374 70.8709L168.282 70.4511C167.995 69.8324 167.702 69.2183 167.401 68.6089L166.504 69.0517ZM168.972 74.5692C169.222 75.1915 169.464 75.818 169.7 76.4486L170.637 76.0993C170.399 75.4607 170.153 74.8263 169.899 74.1961L168.972 74.5692ZM171.011 80.2606C171.213 80.8989 171.407 81.5409 171.593 82.1867L172.554 81.9097C172.365 81.2557 172.169 80.6056 171.965 79.9594L171.011 80.2606ZM172.612 86.0863C172.689 86.4139 172.763 86.7424 172.836 87.0717L173.813 86.8557C173.739 86.5222 173.663 86.1897 173.585 85.858L172.612 86.0863ZM172.836 87.0716C172.922 87.4571 173.003 87.8432 173.081 88.2301L174.062 88.0322C173.982 87.6393 173.899 87.2471 173.813 86.8557L172.836 87.0716ZM173.847 92.9031C173.897 93.2946 173.942 93.6867 173.985 94.0791L174.979 93.9721C174.936 93.5735 174.889 93.1754 174.839 92.7778L173.847 92.9031ZM173.985 94.0789C173.984 94.0707 173.983 94.0624 173.984 94.0542L174.983 94.0783C174.984 94.0431 174.983 94.0077 174.979 93.9724L173.985 94.0789ZM174.011 93.9603C174.016 93.9532 174.02 93.9465 174.025 93.94L174.804 94.5678C174.826 94.5401 174.847 94.5112 174.865 94.4811L174.011 93.9603ZM174.025 93.94C174.031 93.9336 174.036 93.9275 174.042 93.9218L174.732 94.6459C174.757 94.6216 174.782 94.5955 174.804 94.5678L174.025 93.94ZM174.128 93.875C174.136 93.873 174.144 93.8716 174.153 93.8707L174.259 94.865C174.294 94.8613 174.329 94.8552 174.363 94.8469L174.128 93.875ZM174.125 93.8744C174.132 93.8733 174.138 93.8725 174.144 93.8718L174.257 94.8654C174.266 94.8644 174.276 94.8631 174.286 94.8613L174.125 93.8744ZM174.176 93.8697C174.175 93.8697 174.174 93.8697 174.172 93.8697V94.8697C174.174 94.8697 174.177 94.8697 174.18 94.8697L174.176 93.8697ZM2.6715 144.869C2.6857 144.869 2.69995 144.87 2.71389 144.874L2.49009 145.848C2.54889 145.862 2.60969 145.869 2.6715 145.869V144.869ZM2.8427 144.977C2.84877 144.99 2.85339 145.003 2.85643 145.017L1.87997 145.233C1.89327 145.293 1.9132 145.351 1.93898 145.405L2.8427 144.977ZM2.85632 145.017C2.78447 144.693 2.71428 144.369 2.64576 144.045L1.6674 144.252C1.7366 144.579 1.80749 144.906 1.88007 145.233L2.85632 145.017ZM1.90211 140.145C1.79112 139.492 1.68682 138.839 1.58915 138.186L0.600149 138.334C0.6988 138.994 0.80416 139.653 0.91626 140.313L1.90211 140.145ZM1.08063 134.248C1.00898 133.59 0.944016 132.931 0.885708 132.273L-0.110394 132.361C-0.0514963 133.026 0.0141242 133.691 0.0864989 134.357L1.08063 134.248ZM0.614943 128.313C0.583007 127.651 0.557752 126.99 0.539144 126.329L-0.46046 126.357C-0.441664 127.025 -0.416153 127.693 -0.383895 128.361L0.614943 128.313ZM0.507121 122.359C0.515066 121.697 0.529654 121.035 0.550853 120.375L-0.448632 120.342C-0.470046 121.01 -0.484782 121.678 -0.492807 122.347L0.507121 122.359ZM0.7577 116.41C0.805439 115.75 0.859772 115.091 0.920668 114.432L-0.0750813 114.34C-0.136592 115.005 -0.191475 115.671 -0.239696 116.338L0.7577 116.41ZM1.36551 110.487C1.45284 109.831 1.54671 109.176 1.64708 108.523L0.658662 108.371C0.557278 109.031 0.462465 109.693 0.374255 110.355L1.36551 110.487ZM2.32807 104.611C2.45465 103.962 2.5877 103.314 2.72719 102.667L1.74967 102.456C1.60878 103.109 1.47438 103.764 1.34652 104.42L2.32807 104.611ZM3.64169 98.8039C3.807 98.163 3.97871 97.5239 4.15676 96.8867L3.19366 96.6176C3.0138 97.2612 2.84037 97.9068 2.67339 98.5541L3.64169 98.8039ZM5.30138 93.0855C5.5048 92.4558 5.71451 91.8283 5.93048 91.2028L4.98525 90.8764C4.7671 91.5082 4.55528 92.1421 4.34981 92.7781L5.30138 93.0855ZM7.30103 87.4771C7.54183 86.8608 7.78882 86.2469 8.04198 85.6354L7.11802 85.2529C6.86232 85.8705 6.61284 86.4907 6.36961 87.1131L7.30103 87.4771ZM9.63352 81.9987C9.91084 81.3981 10.1942 80.8 10.4837 80.2047L9.58435 79.7675C9.29198 80.3688 9.00573 80.9728 8.72562 81.5795L9.63352 81.9987ZM12.2907 76.67C12.6035 76.0873 12.9222 75.5075 13.2468 74.9307L12.3754 74.4403C12.0475 75.0229 11.7255 75.6085 11.4096 76.1971L12.2907 76.67ZM15.2631 71.5107C15.6102 70.948 15.9631 70.3885 16.3219 69.8322L15.4815 69.2903C15.1191 69.8521 14.7626 70.4173 14.412 70.9857L15.2631 71.5107ZM18.5399 66.5398C18.9203 65.999 19.3064 65.4615 19.6981 64.9276L18.8918 64.3361C18.4961 64.8754 18.1062 65.4183 17.722 65.9646L18.5399 66.5398ZM22.11 61.7749C22.5223 61.2577 22.9402 60.7443 23.3637 60.2346L22.5945 59.5956C22.1668 60.1104 21.7446 60.6291 21.3281 61.1515L22.11 61.7749ZM25.9606 57.233C26.403 56.7419 26.8508 56.2547 27.304 55.7716L26.5746 55.0875C26.1168 55.5755 25.6645 56.0676 25.2176 56.5637L25.9606 57.233ZM30.0778 52.9304C30.5484 52.4672 31.0243 52.0082 31.5053 51.5534L30.8183 50.8268C30.3324 51.2861 29.8518 51.7498 29.3764 52.2176L30.0778 52.9304ZM34.4441 48.884C34.6937 48.6663 34.9445 48.4496 35.1966 48.234L34.5467 47.474C34.2921 47.6918 34.0387 47.9106 33.7867 48.1305L34.4441 48.884ZM35.1994 48.2317C35.191 48.2389 35.1821 48.2454 35.1726 48.2511L34.6588 47.3931C34.6185 47.4173 34.58 47.4451 34.5439 47.4764L35.1994 48.2317ZM35.0451 48.2755C35.0342 48.2737 35.0235 48.271 35.0131 48.2673L35.3433 47.3234C35.2982 47.3076 35.2522 47.296 35.2058 47.2885L35.0451 48.2755ZM35.0131 48.2673C35.0026 48.2637 34.9926 48.2591 34.983 48.2537L35.4726 47.3818C35.4316 47.3588 35.3884 47.3392 35.3433 47.3234L35.0131 48.2673ZM34.8985 48.1552C34.8946 48.1448 34.8916 48.1342 34.8896 48.1233L35.8729 47.9413C35.8642 47.8943 35.8515 47.8486 35.835 47.8046L34.8985 48.1552ZM34.8896 48.1233C34.8876 48.1125 34.8866 48.1014 34.8865 48.0904L35.8865 48.0825C35.8861 48.0355 35.8816 47.9883 35.8729 47.9413L34.8896 48.1233ZM34.9301 47.9681C34.9371 47.9597 34.9449 47.9518 34.9534 47.9447L35.5996 48.7078C35.636 48.677 35.6694 48.6432 35.6994 48.607L34.9301 47.9681ZM34.9515 47.9462C34.6985 48.1626 34.4467 48.3801 34.1962 48.5986L34.8537 49.3521C35.1016 49.1358 35.3509 48.9205 35.6014 48.7063L34.9515 47.9462ZM31.2463 51.2781C30.7634 51.7347 30.2857 52.1954 29.8133 52.6604L30.5147 53.3731C30.9824 52.9129 31.4552 52.4567 31.9333 52.0048L31.2463 51.2781ZM27.0288 55.5124C26.5739 55.9974 26.1244 56.4865 25.6803 56.9795L26.4233 57.6488C26.8629 57.1608 27.3079 56.6767 27.7582 56.1965L27.0288 55.5124ZM23.0734 59.9925C22.6483 60.5042 22.2288 61.0197 21.8149 61.5388L22.5968 62.1623C23.0065 61.6483 23.4218 61.138 23.8426 60.6315L23.0734 59.9925ZM19.3937 64.7037C19.0005 65.2396 18.6129 65.7791 18.2311 66.3221L19.0491 66.8973C19.4271 66.3598 19.8107 65.8258 20.2 65.2952L19.3937 64.7037ZM16.0045 69.6271C15.6444 70.1855 15.2901 70.7472 14.9416 71.312L15.7927 71.837C16.1377 71.2779 16.4884 70.7218 16.8449 70.1691L16.0045 69.6271ZM12.9177 74.7451C12.5918 75.3241 12.2718 75.9061 11.9579 76.491L12.839 76.964C13.1498 76.3849 13.4665 75.8088 13.7891 75.2356L12.9177 74.7451ZM10.1439 80.0393C9.85336 80.6369 9.56888 81.2372 9.29051 81.8401L10.1984 82.2593C10.474 81.6624 10.7556 81.0681 11.0432 80.4766L10.1439 80.0393ZM7.69287 85.4907C7.43876 86.1045 7.19082 86.7208 6.9491 87.3394L7.88052 87.7034C8.11981 87.091 8.36526 86.4809 8.61682 85.8732L7.69287 85.4907ZM5.57332 91.0793C5.35652 91.7072 5.14601 92.3372 4.94181 92.9692L5.89338 93.2766C6.09553 92.6509 6.30393 92.0273 6.51855 91.4057L5.57332 91.0793ZM3.79282 96.7849C3.61408 97.4246 3.44172 98.0661 3.27578 98.7094L4.24407 98.9592C4.40836 98.3223 4.57899 97.6873 4.75593 97.054L3.79282 96.7849ZM2.35779 102.587C2.21776 103.236 2.0842 103.887 1.95713 104.539L2.93867 104.73C3.06447 104.085 3.19669 103.441 3.3353 102.798L2.35779 102.587ZM1.27353 108.465C1.17277 109.121 1.07854 109.779 0.990879 110.437L1.98214 110.569C2.06892 109.917 2.1622 109.266 2.26194 108.617L1.27353 108.465ZM0.544321 114.398C0.483191 115.058 0.428647 115.72 0.380724 116.383L1.37812 116.455C1.42556 115.799 1.47955 115.144 1.54007 114.49L0.544321 114.398ZM0.173074 120.363C0.151792 121.026 0.137146 121.69 0.129169 122.355L1.1291 122.367C1.13699 121.709 1.15149 121.051 1.17256 120.395L0.173074 120.363ZM0.161307 126.339C0.179984 127.003 0.205335 127.667 0.237392 128.332L1.23623 128.284C1.2045 127.626 1.1794 126.968 1.16091 126.311L0.161307 126.339ZM0.509187 132.307C0.567718 132.968 0.632929 133.629 0.704853 134.29L1.69899 134.182C1.62779 133.527 1.56323 132.873 1.50529 132.219L0.509187 132.307ZM1.21531 138.243C1.31334 138.898 1.41805 139.554 1.52945 140.209L2.5153 140.041C2.40502 139.393 2.30136 138.744 2.20431 138.095L1.21531 138.243ZM2.27592 144.124C2.3447 144.449 2.41515 144.774 2.48728 145.099L3.46353 144.882C3.39213 144.561 3.32238 144.239 3.25429 143.917L2.27592 144.124ZM2.4873 145.099C2.48526 145.09 2.48391 145.081 2.48326 145.071L3.48086 145.002C3.47808 144.962 3.47232 144.922 3.46351 144.882L2.4873 145.099ZM2.50857 144.963C2.5133 144.955 2.51864 144.947 2.52455 144.939L3.30397 145.566C3.32941 145.534 3.35227 145.501 3.37247 145.466L2.50857 144.963ZM2.52455 144.939C2.53051 144.932 2.537 144.925 2.54395 144.919L3.22129 145.654C3.25082 145.627 3.27849 145.598 3.30397 145.566L2.52455 144.939ZM2.64391 144.871C2.65303 144.869 2.66226 144.869 2.6715 144.869V145.869C2.71189 145.869 2.752 145.866 2.7915 145.86L2.64391 144.871ZM113.665 164.375V165.375H113.665L113.665 164.375ZM63.6938 124.235L64.6702 124.019V124.019L63.6938 124.235ZM94.882 75.3354L95.0979 76.3118L94.882 75.3354ZM119.656 79.7169L119.119 80.56L119.656 79.7169ZM134.076 100.333L135.053 100.118L135.052 100.117L134.076 100.333ZM114.031 131.763L114.243 132.74L114.248 132.739L114.031 131.763ZM90.2536 119.97L89.3472 120.393L89.3472 120.393L90.2536 119.97ZM90.2813 119.66L91.0985 120.236L90.2813 119.66ZM90.5646 119.529L90.4707 120.525L90.5646 119.529ZM90.8186 119.71L89.908 120.124L89.9122 120.133L90.8186 119.71ZM113.896 131.155L114.108 132.133L114.113 132.131L113.896 131.155ZM133.469 100.467L134.445 100.253L134.445 100.251L133.469 100.467ZM95.0162 75.9427L94.8003 74.9663L94.7992 74.9666L95.0162 75.9427ZM64.301 124.101L63.3244 124.316L63.3246 124.317L64.301 124.101ZM124.592 162.554L124.376 161.578L124.376 161.578L124.592 162.554ZM166.959 130.18L167.845 130.644L167.846 130.643L166.959 130.18ZM167.222 130.013L167.263 131.012L167.222 130.013ZM167.498 130.158L166.652 130.691V130.691L167.498 130.158ZM167.51 130.469L166.626 130.002L166.624 130.005L167.51 130.469ZM124.726 163.161L124.511 162.185L124.51 162.185L124.726 163.161ZM173.863 94.0918L174.858 93.9852L174.858 93.9848L173.863 94.0918ZM172.717 87.0979L173.694 86.882L173.694 86.882L172.717 87.0979ZM93.9078 25.0126L93.9276 26.0124L93.9282 26.0124L93.9078 25.0126ZM93.5906 24.7078L92.5908 24.7274L92.5908 24.7282L93.5906 24.7078ZM93.8954 24.3906L93.8768 23.3908L93.8752 23.3908L93.8954 24.3906ZM173.325 86.9637L174.301 86.7478L174.301 86.7477L173.325 86.9637ZM174.482 94.0256L175.476 93.9191L175.476 93.9186L174.482 94.0256ZM174.415 94.2539L175.193 94.8817L174.415 94.2539ZM174.206 94.3679L174.099 93.3736L174.072 93.3765L174.044 93.381L174.206 94.3679ZM2.3682 145.125L3.34466 144.909L3.34445 144.908L2.3682 145.125ZM34.8717 47.854L35.5216 48.6141L35.5271 48.6093L34.8717 47.854ZM35.1782 47.7954L34.848 48.7393L35.1782 47.7954ZM35.3813 48.0323L34.398 48.2143V48.2143L35.3813 48.0323ZM35.2765 48.3263L34.6302 47.5631L34.6266 47.5662L35.2765 48.3263ZM2.97541 144.991L1.99916 145.207L1.9992 145.208L2.97541 144.991ZM2.91426 145.253L3.69367 145.879L3.69368 145.879L2.91426 145.253ZM113.665 163.375C113.35 163.375 113.035 163.372 112.72 163.366L112.683 165.366C113.009 165.372 113.337 165.375 113.665 165.375V163.375ZM108.957 163.152C108.33 163.092 107.706 163.021 107.084 162.938L106.82 164.92C107.466 165.006 108.116 165.081 108.768 165.143L108.957 163.152ZM103.368 162.298C102.752 162.168 102.14 162.026 101.531 161.873L101.044 163.813C101.677 163.972 102.314 164.119 102.955 164.255L103.368 162.298ZM97.9108 160.818C97.3138 160.619 96.7211 160.409 96.1329 160.189L95.4307 162.061C96.0423 162.291 96.6586 162.509 97.2793 162.715L97.9108 160.818ZM92.6539 158.734C92.0831 158.469 91.5175 158.195 90.9574 157.91L90.0502 159.692C90.6324 159.988 91.2204 160.274 91.8137 160.549L92.6539 158.734ZM87.6623 156.075C87.1248 155.749 86.5933 155.413 86.0683 155.067L84.9679 156.737C85.5137 157.096 86.0661 157.446 86.6249 157.785L87.6623 156.075ZM82.9984 152.876C82.5007 152.492 82.0101 152.099 81.5268 151.696L80.247 153.233C80.7494 153.651 81.2595 154.06 81.7767 154.459L82.9984 152.876ZM78.721 149.176C78.2697 148.739 77.8261 148.294 77.3908 147.84L75.9469 149.223C76.3996 149.696 76.8607 150.159 77.33 150.613L78.721 149.176ZM74.8855 145.021C74.4863 144.536 74.0958 144.044 73.7142 143.543L72.1236 144.755C72.5204 145.276 72.9266 145.788 73.3417 146.292L74.8855 145.021ZM71.5438 140.461C71.2022 139.934 70.8701 139.401 70.5476 138.86L68.8299 139.885C69.1654 140.447 69.5109 141.002 69.8661 141.549L71.5438 140.461ZM68.7405 135.552C68.4611 134.99 68.1915 134.422 67.9322 133.848L66.1094 134.671C66.3791 135.269 66.6595 135.859 66.9502 136.443L68.7405 135.552ZM66.5113 130.354C66.2975 129.766 66.094 129.171 65.9011 128.571L63.997 129.182C64.1975 129.807 64.4091 130.425 64.6315 131.037L66.5113 130.354ZM64.883 124.941C64.8094 124.635 64.7385 124.328 64.6702 124.019L62.7174 124.451C62.7883 124.772 62.8621 125.091 62.9386 125.409L64.883 124.941ZM64.6702 124.019C64.6013 123.708 64.5362 123.396 64.4749 123.084L62.5125 123.47C62.5768 123.797 62.6451 124.124 62.7174 124.451L64.6702 124.019ZM63.9179 119.318C63.8547 118.684 63.807 118.051 63.7744 117.42L61.777 117.523C61.8113 118.186 61.8614 118.851 61.9278 119.517L63.9179 119.318ZM63.7605 113.614C63.7888 112.979 63.8322 112.345 63.8906 111.715L61.8991 111.531C61.8378 112.193 61.7921 112.858 61.7625 113.526L63.7605 113.614ZM64.423 107.947C64.542 107.322 64.6758 106.701 64.824 106.085L62.8794 105.618C62.7238 106.265 62.5833 106.916 62.4584 107.572L64.423 107.947ZM65.8897 102.431C66.0965 101.83 66.3172 101.234 66.5518 100.645L64.6935 99.9055C64.4473 100.524 64.2155 101.149 63.9985 101.78L65.8897 102.431ZM68.1256 97.1778C68.4152 96.6125 68.718 96.0543 69.0337 95.5036L67.2986 94.5089C66.9673 95.0868 66.6495 95.6727 66.3456 96.266L68.1256 97.1778ZM71.0814 92.293C71.4476 91.7745 71.8261 91.2645 72.2166 90.7636L70.6392 89.5341C70.2293 90.0598 69.8321 90.595 69.4478 91.1392L71.0814 92.293ZM74.6968 87.8744C75.1323 87.4133 75.579 86.962 76.0367 86.5212L74.6492 85.0807C74.1687 85.5435 73.6998 86.0172 73.2427 86.5014L74.6968 87.8744ZM78.9012 84.0137C79.3973 83.6195 79.9036 83.2366 80.4197 82.8653L79.2519 81.2417C78.7098 81.6316 78.1781 82.0338 77.6571 82.4477L78.9012 84.0137ZM83.6125 80.7933C84.1593 80.4746 84.7151 80.1682 85.2796 79.8746L84.3567 78.1003C83.7636 78.4087 83.1798 78.7306 82.6055 79.0653L83.6125 80.7933ZM88.7364 78.2823C89.3225 78.0456 89.9165 77.8221 90.518 77.612L89.8587 75.7238C89.227 75.9444 88.6032 76.1792 87.9876 76.4277L88.7364 78.2823ZM94.1676 76.529C94.476 76.4532 94.7861 76.3807 95.0979 76.3118L94.666 74.359C94.3389 74.4313 94.0135 74.5073 93.6899 74.5869L94.1676 76.529ZM95.0979 76.3118C95.438 76.2366 95.7788 76.167 96.12 76.1032L95.7522 74.1373C95.3895 74.2052 95.0274 74.279 94.666 74.359L95.0979 76.3118ZM100.259 75.6062C100.955 75.5686 101.65 75.5539 102.344 75.5618L102.367 73.5619C101.629 73.5535 100.89 73.5691 100.151 73.6091L100.259 75.6062ZM106.501 75.8821C107.189 75.9807 107.874 76.1018 108.555 76.2453L108.967 74.2883C108.244 74.1359 107.516 74.0071 106.785 73.9023L106.501 75.8821ZM112.569 77.3701C113.224 77.6008 113.872 77.8531 114.512 78.127L115.299 76.2881C114.618 75.997 113.929 75.7288 113.233 75.4837L112.569 77.3701ZM118.23 80.0135C118.529 80.1905 118.825 80.3727 119.119 80.56L120.194 78.8738C119.882 78.6747 119.567 78.4811 119.25 78.293L118.23 80.0135ZM119.119 80.56C119.412 80.7473 119.702 80.9391 119.989 81.1352L121.119 79.4851C120.814 79.2766 120.506 79.0728 120.194 78.8738L119.119 80.56ZM123.267 83.7107C123.785 84.1758 124.287 84.6571 124.773 85.1536L126.203 83.7557C125.687 83.228 125.154 82.7165 124.603 82.2221L123.267 83.7107ZM127.485 88.3193C127.902 88.8758 128.301 89.4458 128.681 90.0283L130.356 88.9363C129.953 88.3172 129.529 87.7114 129.086 87.12L127.485 88.3193ZM130.724 93.6623C131.024 94.2884 131.304 94.9252 131.563 95.5716L133.419 94.8274C133.144 94.1404 132.847 93.4637 132.528 92.7982L130.724 93.6623ZM132.858 99.5344C132.944 99.8707 133.024 100.209 133.1 100.549L135.052 100.117C134.973 99.7559 134.887 99.3964 134.795 99.0389L132.858 99.5344ZM133.099 100.548C133.168 100.859 133.23 101.169 133.286 101.48L135.254 101.122C135.193 100.788 135.126 100.453 135.053 100.118L133.099 100.548ZM133.686 105.249C133.705 105.884 133.701 106.516 133.673 107.144L135.671 107.232C135.701 106.554 135.706 105.872 135.685 105.187L133.686 105.249ZM133.221 110.905C133.098 111.527 132.953 112.142 132.785 112.75L134.712 113.283C134.894 112.627 135.051 111.963 135.183 111.292L133.221 110.905ZM131.505 116.317C131.247 116.895 130.968 117.463 130.669 118.019L132.43 118.967C132.753 118.367 133.054 117.754 133.331 117.131L131.505 116.317ZM128.631 121.215C128.252 121.721 127.855 122.214 127.439 122.691L128.948 124.004C129.396 123.489 129.824 122.958 130.232 122.413L128.631 121.215ZM124.745 125.356C124.265 125.764 123.768 126.156 123.256 126.529L124.435 128.145C124.987 127.742 125.523 127.32 126.041 126.879L124.745 125.356ZM120.036 128.525C119.478 128.815 118.907 129.086 118.323 129.336L119.11 131.175C119.74 130.905 120.357 130.613 120.959 130.3L120.036 128.525ZM114.737 130.563C114.432 130.643 114.124 130.717 113.814 130.786L114.248 132.739C114.582 132.664 114.914 132.584 115.243 132.498L114.737 130.563ZM113.818 130.785C113.52 130.85 113.222 130.908 112.924 130.959L113.261 132.93C113.588 132.874 113.916 132.811 114.243 132.74L113.818 130.785ZM109.298 131.247C108.689 131.241 108.082 131.207 107.481 131.146L107.279 133.136C107.94 133.203 108.607 133.24 109.277 133.247L109.298 131.247ZM103.91 130.455C103.326 130.286 102.751 130.092 102.186 129.872L101.461 131.736C102.082 131.978 102.714 132.191 103.356 132.377L103.91 130.455ZM98.9268 128.256C98.4098 127.939 97.9066 127.599 97.419 127.236L96.225 128.84C96.7607 129.239 97.3135 129.613 97.8814 129.961L98.9268 128.256ZM94.7083 124.811C94.2959 124.369 93.9018 123.907 93.5277 123.426L91.9485 124.653C92.3597 125.182 92.7929 125.69 93.2462 126.176L94.7083 124.811ZM91.5631 120.365C91.4232 120.097 91.2888 119.824 91.1599 119.548L89.3472 120.393C89.4886 120.696 89.6362 120.995 89.7898 121.29L91.5631 120.365ZM91.16 119.548C91.1771 119.585 91.1908 119.622 91.2011 119.661L89.2689 120.177C89.2885 120.251 89.3146 120.323 89.3472 120.393L91.16 119.548ZM91.159 120.132C91.142 120.168 91.1218 120.203 91.0985 120.236L89.4642 119.083C89.4197 119.146 89.3813 119.213 89.349 119.281L91.159 120.132ZM91.0985 120.236C91.0752 120.269 91.0491 120.3 91.0207 120.328L89.6121 118.908C89.5582 118.962 89.5086 119.02 89.4642 119.083L91.0985 120.236ZM90.5911 120.526C90.5513 120.529 90.511 120.529 90.4707 120.525L90.6585 118.534C90.5817 118.527 90.5051 118.526 90.4294 118.532L90.5911 120.526ZM90.4707 120.525C90.4305 120.521 90.3909 120.514 90.3523 120.503L90.8839 118.575C90.8107 118.555 90.7353 118.541 90.6585 118.534L90.4707 120.525ZM89.9673 120.229C89.9446 120.196 89.9248 120.161 89.9081 120.124L91.7291 119.297C91.6972 119.227 91.6594 119.16 91.6164 119.097L89.9673 120.229ZM89.9122 120.133C90.0496 120.428 90.1931 120.718 90.3423 121.004L92.1156 120.08C91.9801 119.82 91.8498 119.556 91.7249 119.288L89.9122 120.133ZM92.4403 124.274C92.84 124.788 93.261 125.281 93.7016 125.754L95.1637 124.389C94.764 123.961 94.3821 123.513 94.0195 123.046L92.4403 124.274ZM96.5967 128.343C97.1174 128.731 97.6546 129.094 98.2065 129.432L99.2519 127.727C98.7509 127.42 98.2633 127.09 97.7907 126.739L96.5967 128.343ZM101.686 131.158C102.289 131.392 102.904 131.6 103.527 131.78L104.082 129.858C103.516 129.695 102.958 129.507 102.41 129.294L101.686 131.158ZM107.341 132.518C107.983 132.583 108.631 132.619 109.282 132.626L109.303 130.626C108.713 130.62 108.125 130.587 107.542 130.528L107.341 132.518ZM113.154 132.318C113.472 132.263 113.791 132.202 114.108 132.133L113.684 130.178C113.395 130.241 113.106 130.297 112.817 130.346L113.154 132.318ZM114.113 132.131C114.44 132.059 114.764 131.98 115.086 131.896L114.58 129.961C114.283 130.039 113.982 130.112 113.679 130.179L114.113 132.131ZM118.865 130.603C119.481 130.339 120.084 130.054 120.672 129.748L119.749 127.973C119.205 128.256 118.648 128.52 118.078 128.764L118.865 130.603ZM124.069 127.642C124.609 127.248 125.132 126.835 125.639 126.405L124.342 124.881C123.874 125.28 123.39 125.662 122.89 126.026L124.069 127.642ZM128.479 123.595C128.917 123.092 129.336 122.573 129.735 122.04L128.133 120.843C127.764 121.336 127.376 121.816 126.971 122.282L128.479 123.595ZM131.883 118.673C132.198 118.086 132.492 117.488 132.763 116.878L130.936 116.064C130.685 116.628 130.413 117.182 130.121 117.725L131.883 118.673ZM134.113 113.118C134.29 112.477 134.444 111.828 134.573 111.173L132.611 110.785C132.491 111.392 132.349 111.992 132.185 112.585L134.113 113.118ZM135.05 107.205C135.079 106.542 135.084 105.876 135.063 105.206L133.064 105.268C133.083 105.887 133.079 106.504 133.052 107.116L135.05 107.205ZM134.642 101.234C134.583 100.907 134.517 100.58 134.445 100.253L132.492 100.682C132.559 100.985 132.62 101.288 132.675 101.591L134.642 101.234ZM134.445 100.251C134.367 99.8955 134.282 99.5421 134.193 99.1913L132.255 99.6858C132.339 100.016 132.418 100.348 132.492 100.683L134.445 100.251ZM132.846 95.0568C132.576 94.3795 132.284 93.7147 131.973 93.0631L130.168 93.9256C130.461 94.5378 130.735 95.1624 130.989 95.7988L132.846 95.0568ZM129.842 89.2706C129.445 88.6609 129.028 88.0663 128.594 87.4874L126.994 88.6877C127.402 89.2316 127.793 89.7902 128.167 90.363L129.842 89.2706ZM125.761 84.187C125.253 83.668 124.728 83.1664 124.188 82.6829L122.854 84.1725C123.361 84.627 123.854 85.0985 124.332 85.5863L125.761 84.187ZM120.767 79.9981C120.169 79.5883 119.557 79.1981 118.933 78.8282L117.913 80.5485C118.499 80.8963 119.075 81.2632 119.637 81.6484L120.767 79.9981ZM115.056 76.8581C114.39 76.5727 113.714 76.3086 113.029 76.0666L112.362 77.9524C113.006 78.1798 113.642 78.428 114.268 78.6964L115.056 76.8581ZM108.841 74.8894C108.133 74.7397 107.419 74.6129 106.698 74.5095L106.414 76.4892C107.091 76.5863 107.762 76.7055 108.428 76.8462L108.841 74.8894ZM102.361 74.1769C101.639 74.1692 100.913 74.1852 100.185 74.2254L100.295 76.2224C100.979 76.1846 101.661 76.1696 102.34 76.1768L102.361 74.1769ZM95.868 74.7481C95.5122 74.8149 95.1562 74.8876 94.8003 74.9663L95.2321 76.9191C95.5672 76.8451 95.9021 76.7766 96.2368 76.7139L95.868 74.7481ZM94.7992 74.9666C94.477 75.0382 94.1566 75.1134 93.8379 75.1921L94.3175 77.1338C94.6211 77.0588 94.9263 76.9871 95.2332 76.9189L94.7992 74.9666ZM90.065 76.3147C89.4427 76.5323 88.8284 76.7638 88.2221 77.0088L88.9714 78.8631C89.5483 78.63 90.133 78.4097 90.7252 78.2026L90.065 76.3147ZM84.6456 78.6567C84.0614 78.9606 83.4862 79.2775 82.9205 79.6071L83.9272 81.3353C84.4655 81.0217 85.0127 80.7201 85.5685 80.431L84.6456 78.6567ZM79.6163 81.7503C79.0821 82.1343 78.5582 82.5303 78.0449 82.9379L79.2885 84.5042C79.7769 84.1164 80.2754 83.7396 80.7837 83.3742L79.6163 81.7503ZM75.0809 85.5308C74.6074 85.9866 74.1452 86.4531 73.6948 86.9299L75.1486 88.3034C75.5773 87.8495 76.0172 87.4055 76.4679 86.9717L75.0809 85.5308ZM71.1293 89.917C70.7255 90.4349 70.3341 90.9622 69.9554 91.4982L71.589 92.6521C71.9495 92.1418 72.3221 91.6399 72.7065 91.1469L71.1293 89.917ZM67.8381 94.8179C67.5117 95.3873 67.1987 95.9645 66.8994 96.5491L68.6796 97.4606C68.9646 96.9041 69.2625 96.3546 69.5733 95.8125L67.8381 94.8179ZM65.2727 100.135C65.0303 100.744 64.8021 101.36 64.5885 101.982L66.4799 102.632C66.6833 102.04 66.9004 101.454 67.1311 100.874L65.2727 100.135ZM63.4873 105.763C63.3342 106.4 63.196 107.042 63.0731 107.688L65.0379 108.062C65.1548 107.447 65.2863 106.836 65.432 106.23L63.4873 105.763ZM62.5231 111.588C62.4628 112.24 62.418 112.895 62.3888 113.553L64.3868 113.642C64.4146 113.016 64.4573 112.393 64.5146 111.772L62.5231 111.588ZM62.4027 117.491C62.4362 118.144 62.4854 118.799 62.5505 119.455L64.5407 119.257C64.4788 118.633 64.432 118.01 64.4001 117.389L62.4027 117.491ZM63.1236 123.349C63.1866 123.671 63.2535 123.994 63.3244 124.316L65.2777 123.886C65.2102 123.579 65.1464 123.272 65.0864 122.965L63.1236 123.349ZM63.3246 124.317C63.3998 124.657 63.4781 124.995 63.5597 125.332L65.5035 124.861C65.4251 124.537 65.3497 124.212 65.2775 123.885L63.3246 124.317ZM64.6962 129.322C64.9133 129.982 65.143 130.636 65.3848 131.282L67.2581 130.582C67.0256 129.96 66.8048 129.332 66.5962 128.697L64.6962 129.322ZM66.9962 135.11C67.2912 135.738 67.5981 136.358 67.9166 136.971L69.6909 136.048C69.3848 135.459 69.0899 134.863 68.8065 134.26L66.9962 135.11ZM69.981 140.574C70.35 141.161 70.7303 141.74 71.1214 142.31L72.7704 141.178C72.3946 140.63 72.0292 140.074 71.6745 139.51L69.981 140.574ZM73.6076 145.635C74.0446 146.173 74.4919 146.701 74.9492 147.22L76.4492 145.897C76.0097 145.399 75.5797 144.891 75.1597 144.374L73.6076 145.635ZM77.8185 150.221C78.3169 150.702 78.8246 151.173 79.3411 151.633L80.6712 150.139C80.1746 149.697 79.6865 149.244 79.2074 148.782L77.8185 150.221ZM82.5493 154.267C83.1014 154.685 83.6616 155.091 84.2297 155.486L85.3716 153.844C84.8254 153.465 84.2867 153.074 83.7558 152.672L82.5493 154.267ZM87.7298 157.719C88.3275 158.067 88.9323 158.404 89.5438 158.728L90.4814 156.962C89.8934 156.65 89.3119 156.326 88.7371 155.991L87.7298 157.719ZM93.2856 160.526C93.9206 160.801 94.5614 161.063 95.2077 161.312L95.9269 159.445C95.3056 159.206 94.6895 158.954 94.079 158.69L93.2856 160.526ZM99.1389 162.648C99.8018 162.844 100.469 163.027 101.141 163.196L101.63 161.257C100.985 161.094 100.343 160.918 99.7058 160.73L99.1389 162.648ZM105.205 164.048C105.887 164.162 106.572 164.263 107.26 164.35L107.511 162.366C106.849 162.282 106.191 162.186 105.536 162.076L105.205 164.048ZM111.398 164.703C112.087 164.733 112.779 164.75 113.473 164.753L113.481 162.753C112.814 162.75 112.149 162.734 111.486 162.705L111.398 164.703ZM117.623 164.6C118.311 164.546 119.001 164.479 119.691 164.397L119.457 162.411C118.793 162.49 118.13 162.554 117.469 162.606L117.623 164.6ZM123.789 163.745C124.128 163.677 124.468 163.606 124.808 163.531L124.376 161.578C124.049 161.65 123.722 161.719 123.396 161.784L123.789 163.745ZM124.807 163.531C125.145 163.456 125.481 163.379 125.817 163.299L125.355 161.354C125.03 161.431 124.704 161.505 124.376 161.578L124.807 163.531ZM129.813 162.214C130.474 162.011 131.13 161.798 131.783 161.575L131.135 159.682C130.503 159.899 129.867 160.105 129.226 160.302L129.813 162.214ZM135.655 160.108C136.293 159.842 136.926 159.566 137.554 159.281L136.726 157.46C136.118 157.737 135.505 158.004 134.887 158.261L135.655 160.108ZM141.266 157.447C141.876 157.121 142.479 156.785 143.076 156.44L142.077 154.708C141.498 155.042 140.913 155.367 140.323 155.683L141.266 157.447ZM146.594 154.256C147.169 153.873 147.737 153.48 148.299 153.079L147.136 151.452C146.592 151.84 146.042 152.22 145.485 152.591L146.594 154.256ZM151.589 150.565C152.124 150.128 152.651 149.683 153.172 149.23L151.858 147.722C151.353 148.162 150.842 148.593 150.324 149.016L151.589 150.565ZM156.204 146.409C156.694 145.923 157.176 145.429 157.65 144.927L156.197 143.554C155.737 144.04 155.27 144.519 154.795 144.99L156.204 146.409ZM160.396 141.827C160.836 141.296 161.268 140.758 161.692 140.212L160.112 138.986C159.702 139.514 159.283 140.036 158.856 140.55L160.396 141.827ZM164.125 136.861C164.512 136.29 164.89 135.713 165.259 135.128L163.568 134.06C163.211 134.626 162.844 135.186 162.469 135.739L164.125 136.861ZM167.356 131.558C167.522 131.255 167.684 130.95 167.845 130.644L166.073 129.716C165.918 130.012 165.76 130.308 165.6 130.601L167.356 131.558ZM167.846 130.643C167.827 130.679 167.805 130.713 167.781 130.744L166.196 129.524C166.15 129.584 166.108 129.649 166.073 129.717L167.846 130.643ZM167.382 130.997C167.343 131.006 167.303 131.011 167.263 131.012L167.182 129.014C167.105 129.017 167.029 129.027 166.955 129.043L167.382 130.997ZM167.263 131.012C167.222 131.014 167.182 131.012 167.143 131.007L167.41 129.025C167.335 129.015 167.259 129.011 167.182 129.014L167.263 131.012ZM166.725 130.787C166.698 130.758 166.673 130.726 166.652 130.691L168.344 129.625C168.303 129.56 168.256 129.499 168.206 129.443L166.725 130.787ZM166.652 130.691C166.63 130.657 166.612 130.621 166.597 130.584L168.449 129.828C168.42 129.758 168.385 129.69 168.344 129.625L166.652 130.691ZM166.579 130.113C166.591 130.075 166.607 130.038 166.626 130.002L168.394 130.937C168.43 130.869 168.459 130.798 168.483 130.726L166.579 130.113ZM166.624 130.005C166.467 130.305 166.308 130.603 166.146 130.899L167.902 131.856C168.069 131.55 168.233 131.243 168.395 130.934L166.624 130.005ZM164.094 134.393C163.732 134.965 163.363 135.53 162.984 136.088L164.64 137.21C165.03 136.634 165.412 136.051 165.785 135.461L164.094 134.393ZM160.603 139.368C160.189 139.902 159.766 140.428 159.335 140.948L160.874 142.225C161.319 141.689 161.755 141.145 162.183 140.594L160.603 139.368ZM156.649 143.981C156.184 144.472 155.713 144.956 155.233 145.431L156.642 146.851C157.136 146.36 157.623 145.862 158.102 145.355L156.649 143.981ZM152.266 148.191C151.757 148.635 151.241 149.071 150.717 149.498L151.982 151.047C152.522 150.606 153.055 150.157 153.58 149.699L152.266 148.191ZM147.498 151.958C146.948 152.351 146.392 152.734 145.83 153.109L146.939 154.773C147.519 154.387 148.093 153.991 148.66 153.586L147.498 151.958ZM142.388 155.247C141.803 155.584 141.212 155.913 140.616 156.232L141.56 157.995C142.175 157.666 142.784 157.327 143.387 156.979L142.388 155.247ZM136.984 158.027C136.37 158.306 135.75 158.576 135.126 158.835L135.895 160.682C136.539 160.414 137.178 160.135 137.812 159.847L136.984 158.027ZM131.337 160.271C130.698 160.489 130.056 160.698 129.409 160.896L129.995 162.808C130.663 162.604 131.326 162.389 131.984 162.163L131.337 160.271ZM125.499 161.959C125.171 162.037 124.841 162.112 124.511 162.185L124.941 164.138C125.282 164.063 125.622 163.985 125.961 163.905L125.499 161.959ZM124.51 162.185C124.213 162.251 123.916 162.314 123.618 162.374L124.016 164.334C124.325 164.272 124.634 164.206 124.943 164.138L124.51 162.185ZM120.024 162.968C119.422 163.045 118.818 163.111 118.213 163.167L118.395 165.158C119.024 165.101 119.652 165.032 120.278 164.952L120.024 162.968ZM114.575 163.366C114.272 163.372 113.968 163.375 113.664 163.375L113.665 165.375C113.981 165.375 114.297 165.372 114.612 165.366L114.575 163.366ZM174.172 93.3697C174.229 93.3697 174.285 93.3767 174.339 93.3902L173.855 95.3309C173.958 95.3564 174.064 95.3697 174.172 95.3697V93.3697ZM174.82 93.8226C174.839 93.8748 174.852 93.9294 174.858 93.9852L172.869 94.1985C172.881 94.3056 172.905 94.4096 172.941 94.5085L174.82 93.8226ZM174.858 93.9848C174.815 93.587 174.768 93.1896 174.718 92.7928L172.734 93.0433C172.783 93.4281 172.828 93.8132 172.869 94.1989L174.858 93.9848ZM173.942 88.0562C173.863 87.6641 173.78 87.2727 173.694 86.882L171.741 87.3138C171.825 87.6925 171.905 88.0719 171.982 88.452L173.942 88.0562ZM173.694 86.882C173.62 86.5492 173.544 86.2172 173.467 85.8861L171.52 86.3428C171.595 86.6656 171.669 86.9893 171.741 87.3138L173.694 86.882ZM172.436 81.9447C172.248 81.292 172.051 80.6429 171.847 79.9977L169.94 80.6016C170.139 81.2306 170.331 81.8634 170.515 82.4998L172.436 81.9447ZM170.518 76.1453C170.279 75.5081 170.033 74.875 169.78 74.2461L167.925 74.9942C168.172 75.6073 168.412 76.2245 168.644 76.8458L170.518 76.1453ZM168.16 70.5091C167.874 69.8919 167.58 69.2793 167.279 68.6712L165.487 69.5592C165.78 70.152 166.067 70.7493 166.346 71.351L168.16 70.5091ZM165.377 65.0687C165.045 64.4758 164.705 63.8878 164.358 63.3049L162.64 64.3273C162.978 64.8957 163.309 65.4689 163.633 66.0469L165.377 65.0687ZM162.187 59.8578C161.811 59.2924 161.428 58.7323 161.037 58.1775L159.401 59.3279C159.782 59.8689 160.156 60.415 160.523 60.9663L162.187 59.8578ZM158.61 54.9055C158.192 54.3704 157.767 53.8409 157.336 53.3171L155.792 54.5885C156.212 55.0992 156.627 55.6156 157.035 56.1374L158.61 54.9055ZM154.668 50.2392C154.21 49.7373 153.746 49.2413 153.276 48.7515L151.833 50.136C152.291 50.6137 152.744 51.0974 153.19 51.5869L154.668 50.2392ZM150.383 45.8842C149.889 45.4185 149.389 44.959 148.884 44.506L147.549 45.9956C148.042 46.4374 148.53 46.8855 149.012 47.3397L150.383 45.8842ZM145.783 41.8652C145.255 41.4381 144.722 41.0178 144.183 40.6041L142.965 42.1901C143.49 42.5935 144.01 43.0035 144.525 43.42L145.783 41.8652ZM140.892 38.2048C140.334 37.8188 139.77 37.4398 139.202 37.0679L138.107 38.7413C138.661 39.104 139.21 39.4736 139.755 39.8501L140.892 38.2048ZM135.739 34.924C135.153 34.5814 134.562 34.246 133.967 33.9181L133.002 35.6696C133.582 35.9894 134.158 36.3164 134.729 36.6505L135.739 34.924ZM130.351 32.0426C129.741 31.7455 129.127 31.456 128.509 31.1742L127.679 32.994C128.282 33.2688 128.881 33.551 129.476 33.8407L130.351 32.0426ZM124.76 29.5789C124.13 29.3292 123.496 29.0874 122.858 28.8536L122.169 30.7313C122.791 30.9593 123.409 31.1951 124.024 31.4385L124.76 29.5789ZM118.998 27.5493C118.35 27.3486 117.699 27.156 117.045 26.9716L116.502 28.8966C117.14 29.0764 117.775 29.2641 118.407 29.4598L118.998 27.5493ZM113.097 25.9674C112.435 25.817 111.77 25.675 111.103 25.5413L110.71 27.5023C111.361 27.6326 112.008 27.7711 112.654 27.9177L113.097 25.9674ZM107.09 24.844C106.419 24.7452 105.746 24.6547 105.071 24.5729L104.83 26.5583C105.488 26.6381 106.145 26.7263 106.799 26.8227L107.09 24.844ZM101.014 24.1866C100.338 24.1398 99.6612 24.1015 98.9824 24.0719L98.8952 26.07C99.557 26.0989 100.217 26.1362 100.875 26.1818L101.014 24.1866ZM94.9088 23.9985C94.5687 24.0011 94.2283 24.0058 93.8875 24.0128L93.9282 26.0124C94.2604 26.0056 94.5924 26.001 94.9239 25.9985L94.9088 23.9985ZM93.888 24.0128C93.9481 24.0116 94.0081 24.0183 94.0661 24.0326L93.5881 25.9747C93.6978 26.0017 93.8118 26.0147 93.9276 26.0124L93.888 24.0128ZM94.5634 24.5104C94.58 24.5678 94.5892 24.6274 94.5904 24.6875L92.5908 24.7282C92.5932 24.8439 92.6108 24.9573 92.6421 25.0659L94.5634 24.5104ZM94.5904 24.6882C94.5916 24.7483 94.5849 24.8082 94.5706 24.8662L92.6286 24.388C92.6016 24.4977 92.5886 24.6117 92.5908 24.7274L94.5904 24.6882ZM94.0928 25.3635C94.0353 25.3801 93.9757 25.3892 93.9156 25.3904L93.8752 23.3908C93.7594 23.3932 93.646 23.4107 93.5374 23.4421L94.0928 25.3635ZM93.914 25.3905C94.2491 25.3842 94.5839 25.3801 94.9182 25.3781L94.9063 23.3782C94.5635 23.3802 94.2204 23.3844 93.8768 23.3908L93.914 25.3905ZM98.9227 25.455C99.59 25.4847 100.255 25.5228 100.919 25.5691L101.058 23.574C100.378 23.5265 99.6957 23.4874 99.0116 23.457L98.9227 25.455ZM104.907 25.9496C105.571 26.03 106.232 26.1187 106.892 26.2157L107.183 24.237C106.507 24.1375 105.828 24.0465 105.147 23.9641L104.907 25.9496ZM110.836 26.8988C111.492 27.0297 112.145 27.1688 112.796 27.316L113.237 25.3653C112.57 25.2143 111.9 25.0717 111.228 24.9375L110.836 26.8988ZM116.677 28.2989C117.321 28.4794 117.961 28.6679 118.598 28.8643L119.187 26.9531C118.534 26.7516 117.877 26.5583 117.218 26.3732L116.677 28.2989ZM122.393 30.1412C123.02 30.3702 123.644 30.607 124.264 30.8515L124.998 28.9909C124.362 28.7402 123.722 28.4974 123.079 28.2625L122.393 30.1412ZM127.952 32.4146C128.56 32.6908 129.164 32.9746 129.764 33.2658L130.637 31.4665C130.022 31.1679 129.402 30.8769 128.779 30.5937L127.952 32.4146ZM133.321 35.105C133.906 35.4267 134.487 35.7557 135.063 36.0919L136.071 34.3643C135.48 34.0196 134.884 33.6822 134.284 33.3523L133.321 35.105ZM138.47 38.1962C139.029 38.5614 139.584 38.9335 140.133 39.3126L141.269 37.6664C140.705 37.2778 140.137 36.8962 139.564 36.5218L138.47 38.1962ZM143.37 41.6695C143.9 42.0759 144.424 42.489 144.943 42.9087L146.201 41.3534C145.669 40.9231 145.131 40.4996 144.588 40.0829L143.37 41.6695ZM147.993 45.5044C148.49 45.9497 148.981 46.4015 149.467 46.8594L150.839 45.4041C150.341 44.9345 149.837 44.4714 149.327 44.0148L147.993 45.5044ZM152.311 49.679C152.772 50.1608 153.228 50.6486 153.678 51.1423L155.157 49.7953C154.695 49.2891 154.228 48.789 153.754 48.295L152.311 49.679ZM156.299 54.1699C156.723 54.685 157.14 55.2059 157.551 55.7324L159.127 54.5019C158.706 53.962 158.278 53.428 157.844 52.8997L156.299 54.1699ZM159.934 58.9512C160.316 59.4969 160.693 60.0479 161.062 60.6041L162.728 59.4974C162.349 58.9271 161.963 58.362 161.571 57.8025L159.934 58.9512ZM163.192 63.995C163.532 64.5684 163.865 65.1467 164.192 65.7299L165.937 64.7538C165.603 64.1558 165.261 63.5627 164.912 62.9747L163.192 63.995ZM166.056 69.2732C166.351 69.8712 166.639 70.4738 166.92 71.0809L168.735 70.2412C168.447 69.6186 168.152 69.0007 167.849 68.3874L166.056 69.2732ZM168.508 74.7557C168.756 75.3741 168.997 75.9966 169.231 76.6233L171.105 75.9247C170.866 75.2821 170.618 74.6437 170.363 74.0096L168.508 74.7557ZM170.535 80.4113C170.735 81.0455 170.928 81.6835 171.113 82.3253L173.034 81.7711C172.845 81.1132 172.647 80.459 172.442 79.8087L170.535 80.4113ZM172.125 86.2004C172.201 86.526 172.276 86.8524 172.348 87.1797L174.301 86.7477C174.227 86.4122 174.15 86.0776 174.072 85.7439L172.125 86.2004ZM172.348 87.1796C172.433 87.562 172.514 87.9452 172.591 88.329L174.552 87.9332C174.472 87.5374 174.388 87.1422 174.301 86.7478L172.348 87.1796ZM173.351 92.9657C173.4 93.3542 173.446 93.7432 173.488 94.1327L175.476 93.9186C175.433 93.517 175.386 93.1158 175.335 92.7151L173.351 92.9657ZM173.487 94.1321C173.484 94.1021 173.483 94.072 173.484 94.0421L175.483 94.0904C175.485 94.0335 175.482 93.9763 175.476 93.9191L173.487 94.1321ZM173.584 93.6998C173.6 93.6743 173.617 93.6496 173.636 93.6261L175.193 94.8817C175.229 94.837 175.262 94.7901 175.292 94.7415L173.584 93.6998ZM173.636 93.6261C173.655 93.6026 173.676 93.5805 173.697 93.5598L175.077 95.0079C175.118 94.9686 175.157 94.9265 175.193 94.8817L173.636 93.6261ZM174.011 93.389C174.04 93.3819 174.069 93.3768 174.099 93.3736L174.312 95.3622C174.369 95.3561 174.426 95.3462 174.481 95.3328L174.011 93.389ZM174.044 93.381C174.06 93.3784 174.074 93.3765 174.087 93.375L174.313 95.3623C174.33 95.3604 174.348 95.3579 174.367 95.3548L174.044 93.381ZM174.173 93.3697C174.174 93.3697 174.174 93.3697 174.172 93.3697V95.3697C174.174 95.3697 174.178 95.3697 174.182 95.3697L174.173 93.3697ZM2.6715 144.369C2.7237 144.369 2.77548 144.375 2.8258 144.386L2.37819 146.336C2.47335 146.357 2.57169 146.369 2.6715 146.369V144.369ZM3.29456 144.763C3.31656 144.809 3.33345 144.858 3.34466 144.909L1.39173 145.341C1.41321 145.438 1.44541 145.531 1.48712 145.619L3.29456 144.763ZM3.34445 144.908C3.27295 144.586 3.20312 144.264 3.13494 143.941L1.17821 144.355C1.24777 144.684 1.31901 145.013 1.39195 145.342L3.34445 144.908ZM2.39503 140.061C2.28461 139.412 2.18082 138.762 2.08365 138.112L0.105648 138.408C0.204791 139.071 0.310677 139.734 0.423336 140.396L2.39503 140.061ZM1.5777 134.194C1.50641 133.539 1.44177 132.884 1.38376 132.229L-0.608444 132.405C-0.549253 133.074 -0.483304 133.742 -0.410568 134.411L1.5777 134.194ZM1.11436 128.289C1.08259 127.631 1.05746 126.972 1.03895 126.314L-0.960262 126.371C-0.941372 127.042 -0.915734 127.714 -0.883314 128.385L1.11436 128.289ZM1.00708 122.365C1.01499 121.706 1.0295 121.048 1.0506 120.391L-0.948375 120.326C-0.969896 120.997 -0.984705 121.669 -0.992771 122.341L1.00708 122.365ZM1.2564 116.446C1.3039 115.789 1.35795 115.133 1.41854 114.478L-0.572956 114.294C-0.634774 114.962 -0.689931 115.632 -0.738394 116.302L1.2564 116.446ZM1.86114 110.553C1.94803 109.9 2.04142 109.249 2.14128 108.598L0.164454 108.295C0.0625637 108.958 -0.0327232 109.623 -0.121374 110.289L1.86114 110.553ZM2.81884 104.707C2.94478 104.061 3.07717 103.416 3.21595 102.772L1.26091 102.351C1.11931 103.007 0.984248 103.665 0.85575 104.325L2.81884 104.707ZM4.12583 98.9288C4.29032 98.2912 4.46116 97.6553 4.63832 97.0213L2.7121 96.483C2.53135 97.1299 2.35705 97.7786 2.18924 98.4292L4.12583 98.9288ZM5.77717 93.2392C5.97956 92.6127 6.18821 91.9883 6.4031 91.366L4.51263 90.7132C4.2934 91.3481 4.08052 91.9852 3.87402 92.6243L5.77717 93.2392ZM7.76674 87.6591C8.00633 87.0459 8.25208 86.4351 8.50395 85.8267L6.65605 85.0616C6.39907 85.6824 6.14834 86.3056 5.9039 86.9312L7.76674 87.6591ZM10.0875 82.2083C10.3634 81.6107 10.6454 81.0157 10.9333 80.4234L9.13468 79.5488C8.84086 80.1531 8.55318 80.7602 8.27166 81.3699L10.0875 82.2083ZM12.7313 76.9065C13.0425 76.3267 13.3596 75.7499 13.6826 75.176L11.9397 74.195C11.6101 74.7805 11.2866 75.3691 10.9691 75.9606L12.7313 76.9065ZM15.6886 71.7732C16.034 71.2134 16.3851 70.6567 16.7421 70.1032L15.0613 69.0193C14.6971 69.584 14.3388 70.152 13.9864 70.7232L15.6886 71.7732ZM18.9489 66.8275C19.3274 66.2893 19.7115 65.7546 20.1012 65.2234L18.4887 64.0403C18.091 64.5823 17.6991 65.1279 17.313 65.677L18.9489 66.8275ZM22.5009 62.0866C22.9112 61.5721 23.327 61.0612 23.7483 60.554L22.2099 59.2761C21.78 59.7935 21.3558 60.3148 20.9371 60.8398L22.5009 62.0866ZM26.3321 57.5677C26.7723 57.0791 27.2178 56.5943 27.6687 56.1136L26.2099 54.7454C25.7499 55.2359 25.2953 55.7305 24.8461 56.229L26.3321 57.5677ZM30.4285 53.2867C30.8968 52.8259 31.3702 52.3692 31.8488 51.9167L30.4748 50.4634C29.9865 50.9251 29.5034 51.3911 29.0257 51.8612L30.4285 53.2867ZM34.7728 49.2608C35.0211 49.0441 35.2707 48.8285 35.5215 48.6141L34.2218 47.094C33.9659 47.3128 33.7113 47.5327 33.4579 47.7538L34.7728 49.2608ZM35.5271 48.6093C35.4965 48.6358 35.4638 48.6595 35.4295 48.68L34.4019 46.9642C34.3367 47.0032 34.2745 47.0482 34.2162 47.0988L35.5271 48.6093ZM34.9648 48.769C34.9253 48.7625 34.8862 48.7526 34.848 48.7393L35.5084 46.8515C35.4355 46.826 35.3611 46.8072 35.2861 46.7949L34.9648 48.769ZM34.848 48.7393C34.8098 48.7259 34.773 48.7093 34.7382 48.6897L35.7174 46.9458C35.6511 46.9086 35.5812 46.8769 35.5084 46.8515L34.848 48.7393ZM34.4302 48.3304C34.4162 48.293 34.4054 48.2541 34.398 48.2143L36.3646 47.8503C36.3505 47.7744 36.3299 47.7005 36.3033 47.6293L34.4302 48.3304ZM34.398 48.2143C34.3906 48.1746 34.3868 48.1344 34.3865 48.0944L36.3864 48.0786C36.3858 48.0026 36.3786 47.9262 36.3646 47.8503L34.398 48.2143ZM34.5455 47.6487C34.571 47.6179 34.5994 47.5892 34.6302 47.5631L35.9227 49.0894C35.9816 49.0395 36.0355 48.985 36.084 48.9265L34.5455 47.6487ZM34.6266 47.5662C34.3723 47.7837 34.1192 48.0022 33.8675 48.2219L35.1824 49.7289C35.4291 49.5136 35.6771 49.2994 35.9263 49.0863L34.6266 47.5662ZM30.9027 50.9148C30.4175 51.3736 29.9374 51.8367 29.4626 52.304L30.8654 53.7295C31.3307 53.2716 31.8012 52.8178 32.2768 52.3681L30.9027 50.9148ZM26.6641 55.1704C26.2069 55.6578 25.7552 56.1493 25.3088 56.6448L26.7947 57.9835C27.2322 57.4979 27.6749 57.0163 28.1229 56.5386L26.6641 55.1704ZM22.6888 59.673C22.2616 60.1873 21.84 60.7053 21.4239 61.2271L22.9877 62.474C23.3954 61.9626 23.8086 61.455 24.2272 60.951L22.6888 59.673ZM18.9906 64.4079C18.5954 64.9465 18.2059 65.4887 17.8221 66.0344L19.458 67.1849C19.8341 66.6502 20.2158 66.1188 20.6031 65.591L18.9906 64.4079ZM15.5843 69.3561C15.2224 69.9173 14.8663 70.4818 14.5161 71.0495L16.2183 72.0996C16.5615 71.5432 16.9104 70.99 17.2651 70.4401L15.5843 69.3561ZM12.4819 74.4999C12.1544 75.0818 11.8329 75.6667 11.5173 76.2546L13.2795 77.2005C13.5887 76.6244 13.9039 76.0511 14.2248 75.4809L12.4819 74.4999ZM9.69425 79.8207C9.40224 80.4212 9.11633 81.0246 8.83655 81.6305L10.6524 82.4689C10.9265 81.875 11.2067 81.2838 11.4929 80.6952L9.69425 79.8207ZM7.2309 85.2995C6.9755 85.9164 6.72632 86.5357 6.48339 87.1574L8.34623 87.8853C8.58431 87.276 8.82851 86.6691 9.0788 86.0645L7.2309 85.2995ZM5.1007 90.9161C4.88282 91.5471 4.67125 92.1803 4.46603 92.8155L6.36917 93.4303C6.57029 92.8078 6.77763 92.1873 6.99116 91.5689L5.1007 90.9161ZM3.31127 96.6503C3.13163 97.2932 2.95841 97.938 2.79163 98.5845L4.72822 99.0841C4.89167 98.4505 5.06144 97.8186 5.23748 97.1886L3.31127 96.6503ZM1.86903 102.482C1.7283 103.134 1.59406 103.788 1.46636 104.444L3.42945 104.826C3.5546 104.184 3.68615 103.543 3.82406 102.903L1.86903 102.482ZM0.77932 108.389C0.678056 109.049 0.583356 109.709 0.495251 110.371L2.47776 110.635C2.56411 109.987 2.65691 109.339 2.75615 108.693L0.77932 108.389ZM0.0464469 114.351C-0.0149914 115.016 -0.0698091 115.681 -0.117974 116.347L1.87682 116.491C1.92402 115.838 1.97774 115.187 2.03795 114.536L0.0464469 114.351ZM-0.326669 120.347C-0.348058 121.013 -0.362777 121.681 -0.370795 122.349L1.62906 122.373C1.63692 121.718 1.65134 121.064 1.6723 120.411L-0.326669 120.347ZM-0.338496 126.354C-0.319724 127.021 -0.294245 127.688 -0.262028 128.356L1.73565 128.259C1.70408 127.605 1.67911 126.951 1.66071 126.297L-0.338496 126.354ZM0.0111365 132.351C0.0699612 133.015 0.135501 133.679 0.207787 134.344L2.19605 134.128C2.12521 133.476 2.06099 132.825 2.00334 132.174L0.0111365 132.351ZM0.720807 138.317C0.819336 138.976 0.924567 139.634 1.03653 140.293L3.00822 139.957C2.8985 139.312 2.79537 138.667 2.69881 138.021L0.720807 138.317ZM1.78674 144.227C1.85586 144.554 1.92667 144.881 1.99916 145.207L3.95166 144.774C3.88061 144.454 3.81122 144.134 3.74347 143.813L1.78674 144.227ZM1.9992 145.208C1.99172 145.174 1.98682 145.14 1.98446 145.106L3.97966 144.967C3.97516 144.903 3.96585 144.838 3.95162 144.774L1.9992 145.208ZM2.07662 144.711C2.09381 144.681 2.11326 144.653 2.13485 144.626L3.69368 145.879C3.73479 145.828 3.77176 145.774 3.80442 145.718L2.07662 144.711ZM2.13485 144.626C2.15652 144.599 2.18009 144.574 2.20528 144.551L3.55996 146.022C3.60774 145.978 3.65247 145.93 3.69367 145.879L2.13485 144.626ZM2.57011 144.376C2.60355 144.371 2.63744 144.369 2.6715 144.369V146.369C2.73671 146.369 2.80148 146.364 2.8653 146.354L2.57011 144.376Z" fill="#919EAB" mask="url(#path-1-inside-1_1262_224180)"/>
</g>
<g filter="url(#filter0_iiii_1262_224180)">
<path d="M8.89117 87.5277C11.2956 87.5277 13.2447 85.5785 13.2447 83.1741C13.2447 80.7697 11.2956 78.8206 8.89117 78.8206C6.48676 78.8206 4.5376 80.7697 4.5376 83.1741C4.5376 85.5785 6.48676 87.5277 8.89117 87.5277Z" fill="#FF5630"/>
</g>
<g filter="url(#filter1_iiii_1262_224180)">
<path d="M149.617 50.1808C152.021 50.1808 153.97 48.2316 153.97 45.8272C153.97 43.4228 152.021 41.4736 149.617 41.4736C147.212 41.4736 145.263 43.4228 145.263 45.8272C145.263 48.2316 147.212 50.1808 149.617 50.1808Z" fill="#FFAB00"/>
</g>
<g filter="url(#filter2_iiii_1262_224180)">
<path d="M100.143 165.97C102.548 165.97 104.497 164.021 104.497 161.617C104.497 159.212 102.548 157.263 100.143 157.263C97.7387 157.263 95.7896 159.212 95.7896 161.617C95.7896 164.021 97.7387 165.97 100.143 165.97Z" fill="#00B8D9"/>
</g>
<g filter="url(#filter3_di_1262_224180)">
<rect x="34.7368" y="12" width="58.9474" height="50.5263" rx="8" fill="white"/>
</g>
<g filter="url(#filter4_i_1262_224180)">
<rect x="42.1055" y="16.2104" width="12.6316" height="14.7368" rx="4" fill="#00AB55"/>
</g>
<rect opacity="0.8" x="61.0527" y="20.4211" width="16.8421" height="3.15789" rx="1.57895" fill="#919EAB"/>
<rect opacity="0.8" x="61.0527" y="26.7368" width="25.2632" height="3.15789" rx="1.57895" fill="#919EAB"/>
<rect opacity="0.24" x="42.1055" y="42.5264" width="44.2105" height="3.15789" rx="1.57895" fill="#919EAB"/>
<rect opacity="0.24" x="42.1055" y="48.842" width="44.2105" height="3.15789" rx="1.57895" fill="#919EAB"/>
<rect opacity="0.24" x="42.1055" y="36.2104" width="44.2105" height="3.15789" rx="1.57895" fill="#919EAB"/>
<g filter="url(#filter5_di_1262_224180)">
<rect x="149.474" y="94.1052" width="50.5263" height="40" rx="6" fill="white"/>
</g>
<g filter="url(#filter6_i_1262_224180)">
<rect x="156.842" y="99.3682" width="9.47368" height="10.5263" rx="3" fill="#C4CDD5"/>
</g>
<rect opacity="0.8" x="170.526" y="100.421" width="12.6316" height="3.15789" rx="1.57895" fill="#919EAB"/>
<rect opacity="0.8" x="170.526" y="106.737" width="22.1053" height="3.15789" rx="1.57895" fill="#919EAB"/>
<rect opacity="0.24" x="156.842" y="114.105" width="35.7895" height="3.15789" rx="1.57895" fill="#919EAB"/>
<rect opacity="0.24" x="156.842" y="120.421" width="35.7895" height="3.15789" rx="1.57895" fill="#919EAB"/>
<g filter="url(#filter7_di_1262_224180)">
<rect x="76.8423" y="97.2632" width="27.3684" height="23.1579" rx="6" fill="white"/>
</g>
<rect opacity="0.8" x="82.1055" y="102.526" width="16.8421" height="3.15789" rx="1.57895" fill="#919EAB"/>
<rect opacity="0.24" x="82.1055" y="108.842" width="12.6316" height="3.15789" rx="1.57895" fill="#919EAB"/>
<defs>
<filter id="filter0_iiii_1262_224180" x="4.5376" y="73.8206" width="10.707" height="15.707" filterUnits="userSpaceOnUse" color-interpolation-filters="sRGB">
<feFlood flood-opacity="0" result="BackgroundImageFix"/>
<feBlend mode="normal" in="SourceGraphic" in2="BackgroundImageFix" result="shape"/>
<feColorMatrix in="SourceAlpha" type="matrix" values="0 0 0 0 0 0 0 0 0 0 0 0 0 0 0 0 0 0 127 0" result="hardAlpha"/>
<feOffset dy="-2"/>
<feGaussianBlur stdDeviation="0.5"/>
<feComposite in2="hardAlpha" operator="arithmetic" k2="-1" k3="1"/>
<feColorMatrix type="matrix" values="0 0 0 0 0.717647 0 0 0 0 0.113725 0 0 0 0 0.0941176 0 0 0 0.6 0"/>
<feBlend mode="normal" in2="shape" result="effect1_innerShadow_1262_224180"/>
<feColorMatrix in="SourceAlpha" type="matrix" values="0 0 0 0 0 0 0 0 0 0 0 0 0 0 0 0 0 0 127 0" result="hardAlpha"/>
<feOffset dy="-5"/>
<feGaussianBlur stdDeviation="7"/>
<feComposite in2="hardAlpha" operator="arithmetic" k2="-1" k3="1"/>
<feColorMatrix type="matrix" values="0 0 0 0 1 0 0 0 0 0.337255 0 0 0 0 0.188235 0 0 0 0.3 0"/>
<feBlend mode="normal" in2="effect1_innerShadow_1262_224180" result="effect2_innerShadow_1262_224180"/>
<feColorMatrix in="SourceAlpha" type="matrix" values="0 0 0 0 0 0 0 0 0 0 0 0 0 0 0 0 0 0 127 0" result="hardAlpha"/>
<feOffset/>
<feGaussianBlur stdDeviation="1"/>
<feComposite in2="hardAlpha" operator="arithmetic" k2="-1" k3="1"/>
<feColorMatrix type="matrix" values="0 0 0 0 1 0 0 0 0 0.337255 0 0 0 0 0.188235 0 0 0 0.5 0"/>
<feBlend mode="normal" in2="effect2_innerShadow_1262_224180" result="effect3_innerShadow_1262_224180"/>
<feColorMatrix in="SourceAlpha" type="matrix" values="0 0 0 0 0 0 0 0 0 0 0 0 0 0 0 0 0 0 127 0" result="hardAlpha"/>
<feOffset dx="2" dy="2"/>
<feGaussianBlur stdDeviation="1"/>
<feComposite in2="hardAlpha" operator="arithmetic" k2="-1" k3="1"/>
<feColorMatrix type="matrix" values="0 0 0 0 1 0 0 0 0 0.337255 0 0 0 0 0.188235 0 0 0 0.3 0"/>
<feBlend mode="normal" in2="effect3_innerShadow_1262_224180" result="effect4_innerShadow_1262_224180"/>
</filter>
<filter id="filter1_iiii_1262_224180" x="145.263" y="36.4736" width="10.707" height="15.707" filterUnits="userSpaceOnUse" color-interpolation-filters="sRGB">
<feFlood flood-opacity="0" result="BackgroundImageFix"/>
<feBlend mode="normal" in="SourceGraphic" in2="BackgroundImageFix" result="shape"/>
<feColorMatrix in="SourceAlpha" type="matrix" values="0 0 0 0 0 0 0 0 0 0 0 0 0 0 0 0 0 0 127 0" result="hardAlpha"/>
<feOffset dy="-2"/>
<feGaussianBlur stdDeviation="0.5"/>
<feComposite in2="hardAlpha" operator="arithmetic" k2="-1" k3="1"/>
<feColorMatrix type="matrix" values="0 0 0 0 0.717647 0 0 0 0 0.431373 0 0 0 0 0 0 0 0 0.6 0"/>
<feBlend mode="normal" in2="shape" result="effect1_innerShadow_1262_224180"/>
<feColorMatrix in="SourceAlpha" type="matrix" values="0 0 0 0 0 0 0 0 0 0 0 0 0 0 0 0 0 0 127 0" result="hardAlpha"/>
<feOffset dy="-5"/>
<feGaussianBlur stdDeviation="7"/>
<feComposite in2="hardAlpha" operator="arithmetic" k2="-1" k3="1"/>
<feColorMatrix type="matrix" values="0 0 0 0 1 0 0 0 0 0.670588 0 0 0 0 0 0 0 0 0.3 0"/>
<feBlend mode="normal" in2="effect1_innerShadow_1262_224180" result="effect2_innerShadow_1262_224180"/>
<feColorMatrix in="SourceAlpha" type="matrix" values="0 0 0 0 0 0 0 0 0 0 0 0 0 0 0 0 0 0 127 0" result="hardAlpha"/>
<feOffset/>
<feGaussianBlur stdDeviation="1"/>
<feComposite in2="hardAlpha" operator="arithmetic" k2="-1" k3="1"/>
<feColorMatrix type="matrix" values="0 0 0 0 1 0 0 0 0 0.670588 0 0 0 0 0 0 0 0 0.5 0"/>
<feBlend mode="normal" in2="effect2_innerShadow_1262_224180" result="effect3_innerShadow_1262_224180"/>
<feColorMatrix in="SourceAlpha" type="matrix" values="0 0 0 0 0 0 0 0 0 0 0 0 0 0 0 0 0 0 127 0" result="hardAlpha"/>
<feOffset dx="2" dy="2"/>
<feGaussianBlur stdDeviation="1"/>
<feComposite in2="hardAlpha" operator="arithmetic" k2="-1" k3="1"/>
<feColorMatrix type="matrix" values="0 0 0 0 1 0 0 0 0 0.670588 0 0 0 0 0 0 0 0 0.3 0"/>
<feBlend mode="normal" in2="effect3_innerShadow_1262_224180" result="effect4_innerShadow_1262_224180"/>
</filter>
<filter id="filter2_iiii_1262_224180" x="95.7896" y="152.263" width="10.707" height="15.707" filterUnits="userSpaceOnUse" color-interpolation-filters="sRGB">
<feFlood flood-opacity="0" result="BackgroundImageFix"/>
<feBlend mode="normal" in="SourceGraphic" in2="BackgroundImageFix" result="shape"/>
<feColorMatrix in="SourceAlpha" type="matrix" values="0 0 0 0 0 0 0 0 0 0 0 0 0 0 0 0 0 0 127 0" result="hardAlpha"/>
<feOffset dy="-2"/>
<feGaussianBlur stdDeviation="0.5"/>
<feComposite in2="hardAlpha" operator="arithmetic" k2="-1" k3="1"/>
<feColorMatrix type="matrix" values="0 0 0 0 0.0117647 0 0 0 0 0.317647 0 0 0 0 0.670588 0 0 0 0.6 0"/>
<feBlend mode="normal" in2="shape" result="effect1_innerShadow_1262_224180"/>
<feColorMatrix in="SourceAlpha" type="matrix" values="0 0 0 0 0 0 0 0 0 0 0 0 0 0 0 0 0 0 127 0" result="hardAlpha"/>
<feOffset dy="-5"/>
<feGaussianBlur stdDeviation="7"/>
<feComposite in2="hardAlpha" operator="arithmetic" k2="-1" k3="1"/>
<feColorMatrix type="matrix" values="0 0 0 0 0.407843 0 0 0 0 0.803922 0 0 0 0 0.976471 0 0 0 0.3 0"/>
<feBlend mode="normal" in2="effect1_innerShadow_1262_224180" result="effect2_innerShadow_1262_224180"/>
<feColorMatrix in="SourceAlpha" type="matrix" values="0 0 0 0 0 0 0 0 0 0 0 0 0 0 0 0 0 0 127 0" result="hardAlpha"/>
<feOffset/>
<feGaussianBlur stdDeviation="1"/>
<feComposite in2="hardAlpha" operator="arithmetic" k2="-1" k3="1"/>
<feColorMatrix type="matrix" values="0 0 0 0 0.407843 0 0 0 0 0.803922 0 0 0 0 0.976471 0 0 0 0.5 0"/>
<feBlend mode="normal" in2="effect2_innerShadow_1262_224180" result="effect3_innerShadow_1262_224180"/>
<feColorMatrix in="SourceAlpha" type="matrix" values="0 0 0 0 0 0 0 0 0 0 0 0 0 0 0 0 0 0 127 0" result="hardAlpha"/>
<feOffset dx="2" dy="2"/>
<feGaussianBlur stdDeviation="1"/>
<feComposite in2="hardAlpha" operator="arithmetic" k2="-1" k3="1"/>
<feColorMatrix type="matrix" values="0 0 0 0 0.407843 0 0 0 0 0.803922 0 0 0 0 0.976471 0 0 0 0.3 0"/>
<feBlend mode="normal" in2="effect3_innerShadow_1262_224180" result="effect4_innerShadow_1262_224180"/>
</filter>
<filter id="filter3_di_1262_224180" x="6.73682" y="0" width="98.9473" height="90.5264" filterUnits="userSpaceOnUse" color-interpolation-filters="sRGB">
<feFlood flood-opacity="0" result="BackgroundImageFix"/>
<feColorMatrix in="SourceAlpha" type="matrix" values="0 0 0 0 0 0 0 0 0 0 0 0 0 0 0 0 0 0 127 0" result="hardAlpha"/>
<feOffset dx="-8" dy="8"/>
<feGaussianBlur stdDeviation="10"/>
<feComposite in2="hardAlpha" operator="out"/>
<feColorMatrix type="matrix" values="0 0 0 0 0.270588 0 0 0 0 0.309804 0 0 0 0 0.356863 0 0 0 0.12 0"/>
<feBlend mode="normal" in2="BackgroundImageFix" result="effect1_dropShadow_1262_224180"/>
<feBlend mode="normal" in="SourceGraphic" in2="effect1_dropShadow_1262_224180" result="shape"/>
<feColorMatrix in="SourceAlpha" type="matrix" values="0 0 0 0 0 0 0 0 0 0 0 0 0 0 0 0 0 0 127 0" result="hardAlpha"/>
<feOffset dx="1" dy="-3"/>
<feComposite in2="hardAlpha" operator="arithmetic" k2="-1" k3="1"/>
<feColorMatrix type="matrix" values="0 0 0 0 0.270588 0 0 0 0 0.309804 0 0 0 0 0.356863 0 0 0 0.12 0"/>
<feBlend mode="normal" in2="shape" result="effect2_innerShadow_1262_224180"/>
</filter>
<filter id="filter4_i_1262_224180" x="42.1055" y="15.2104" width="12.6313" height="15.7368" filterUnits="userSpaceOnUse" color-interpolation-filters="sRGB">
<feFlood flood-opacity="0" result="BackgroundImageFix"/>
<feBlend mode="normal" in="SourceGraphic" in2="BackgroundImageFix" result="shape"/>
<feColorMatrix in="SourceAlpha" type="matrix" values="0 0 0 0 0 0 0 0 0 0 0 0 0 0 0 0 0 0 127 0" result="hardAlpha"/>
<feOffset dy="-1.5"/>
<feGaussianBlur stdDeviation="0.5"/>
<feComposite in2="hardAlpha" operator="arithmetic" k2="-1" k3="1"/>
<feColorMatrix type="matrix" values="0 0 0 0 0 0 0 0 0 0 0 0 0 0 0 0 0 0 0.08 0"/>
<feBlend mode="normal" in2="shape" result="effect1_innerShadow_1262_224180"/>
</filter>
<filter id="filter5_di_1262_224180" x="121.474" y="82.1052" width="90.5264" height="80" filterUnits="userSpaceOnUse" color-interpolation-filters="sRGB">
<feFlood flood-opacity="0" result="BackgroundImageFix"/>
<feColorMatrix in="SourceAlpha" type="matrix" values="0 0 0 0 0 0 0 0 0 0 0 0 0 0 0 0 0 0 127 0" result="hardAlpha"/>
<feOffset dx="-8" dy="8"/>
<feGaussianBlur stdDeviation="10"/>
<feComposite in2="hardAlpha" operator="out"/>
<feColorMatrix type="matrix" values="0 0 0 0 0.270588 0 0 0 0 0.309804 0 0 0 0 0.356863 0 0 0 0.12 0"/>
<feBlend mode="normal" in2="BackgroundImageFix" result="effect1_dropShadow_1262_224180"/>
<feBlend mode="normal" in="SourceGraphic" in2="effect1_dropShadow_1262_224180" result="shape"/>
<feColorMatrix in="SourceAlpha" type="matrix" values="0 0 0 0 0 0 0 0 0 0 0 0 0 0 0 0 0 0 127 0" result="hardAlpha"/>
<feOffset dx="1" dy="-3"/>
<feComposite in2="hardAlpha" operator="arithmetic" k2="-1" k3="1"/>
<feColorMatrix type="matrix" values="0 0 0 0 0.270588 0 0 0 0 0.309804 0 0 0 0 0.356863 0 0 0 0.12 0"/>
<feBlend mode="normal" in2="shape" result="effect2_innerShadow_1262_224180"/>
</filter>
<filter id="filter6_i_1262_224180" x="156.842" y="98.3682" width="9.47412" height="11.5264" filterUnits="userSpaceOnUse" color-interpolation-filters="sRGB">
<feFlood flood-opacity="0" result="BackgroundImageFix"/>
<feBlend mode="normal" in="SourceGraphic" in2="BackgroundImageFix" result="shape"/>
<feColorMatrix in="SourceAlpha" type="matrix" values="0 0 0 0 0 0 0 0 0 0 0 0 0 0 0 0 0 0 127 0" result="hardAlpha"/>
<feOffset dy="-1"/>
<feGaussianBlur stdDeviation="0.5"/>
<feComposite in2="hardAlpha" operator="arithmetic" k2="-1" k3="1"/>
<feColorMatrix type="matrix" values="0 0 0 0 0 0 0 0 0 0 0 0 0 0 0 0 0 0 0.08 0"/>
<feBlend mode="normal" in2="shape" result="effect1_innerShadow_1262_224180"/>
</filter>
<filter id="filter7_di_1262_224180" x="48.8423" y="85.2632" width="67.3687" height="63.158" filterUnits="userSpaceOnUse" color-interpolation-filters="sRGB">
<feFlood flood-opacity="0" result="BackgroundImageFix"/>
<feColorMatrix in="SourceAlpha" type="matrix" values="0 0 0 0 0 0 0 0 0 0 0 0 0 0 0 0 0 0 127 0" result="hardAlpha"/>
<feOffset dx="-8" dy="8"/>
<feGaussianBlur stdDeviation="10"/>
<feComposite in2="hardAlpha" operator="out"/>
<feColorMatrix type="matrix" values="0 0 0 0 0.270588 0 0 0 0 0.309804 0 0 0 0 0.356863 0 0 0 0.12 0"/>
<feBlend mode="normal" in2="BackgroundImageFix" result="effect1_dropShadow_1262_224180"/>
<feBlend mode="normal" in="SourceGraphic" in2="effect1_dropShadow_1262_224180" result="shape"/>
<feColorMatrix in="SourceAlpha" type="matrix" values="0 0 0 0 0 0 0 0 0 0 0 0 0 0 0 0 0 0 127 0" result="hardAlpha"/>
<feOffset dx="1" dy="-2"/>
<feComposite in2="hardAlpha" operator="arithmetic" k2="-1" k3="1"/>
<feColorMatrix type="matrix" values="0 0 0 0 0.270588 0 0 0 0 0.309804 0 0 0 0 0.356863 0 0 0 0.12 0"/>
<feBlend mode="normal" in2="shape" result="effect2_innerShadow_1262_224180"/>
</filter>
</defs>
</svg>
