<svg width="480" height="360" viewBox="0 0 480 360" fill="none" xmlns="http://www.w3.org/2000/svg">
<g id="illustrations/illustration_empty_mail">
<g id="Illustration/Background">
<path id="BG" opacity="0.16" fill-rule="evenodd" clip-rule="evenodd" d="M0 198.781C0 240.238 14.9454 278.016 39.539 306.566C67.7534 339.331 108.667 359.931 154.273 360C174.204 360.029 193.262 356.113 210.768 348.964C219.819 345.265 229.95 345.69 238.716 350.071C248.999 355.204 260.514 358.082 272.673 358.082C277.696 358.082 282.615 357.587 287.373 356.648C300.954 353.978 313.313 347.658 323.462 338.708C329.841 333.081 338.01 330.252 346.36 330.262H346.502C374.091 330.262 399.717 321.53 420.994 306.566C440.015 293.206 455.548 274.87 465.898 253.341C474.92 234.581 480 213.388 480 190.958C480 114.027 420.226 51.6534 346.502 51.6534C338.986 51.6534 331.622 52.3158 324.439 53.5518C305.418 21.4201 271.355 0 232.498 0C216.093 0 200.54 3.81769 186.619 10.6612C173.379 17.1483 161.608 26.3663 151.978 37.6C119.281 38.144 89.048 49.2899 64.303 67.8914C25.3514 97.1552 0 144.882 0 198.781Z" fill="url(#paint0_linear_0_9512)"/>
<g id="Vector" opacity="0.2">
<path d="M271.929 75.6377C269.408 75.6377 266.889 74.6804 264.971 72.7652C261.134 68.9346 261.134 62.7023 264.971 58.8724C268.806 55.0432 275.05 55.0419 278.886 58.8724C282.723 62.703 282.723 68.9353 278.886 72.7652C276.968 74.6804 274.448 75.6377 271.929 75.6377ZM271.929 62.7714C271.147 62.7714 270.364 63.0681 269.769 63.663C268.578 64.8513 268.578 66.7856 269.769 67.9746C270.96 69.1629 272.896 69.1636 274.087 67.9746C275.278 66.7862 275.278 64.852 274.087 63.663C273.492 63.0688 272.71 62.7714 271.929 62.7714Z" fill="#919EAB"/>
<path d="M194.574 305C192.054 305 189.534 304.042 187.616 302.127C183.779 298.297 183.779 292.065 187.616 288.235C191.451 284.405 197.696 284.405 201.532 288.235C205.368 292.065 205.368 298.298 201.532 302.127C199.614 304.043 197.093 305 194.574 305ZM194.574 292.134C193.792 292.134 193.01 292.43 192.414 293.025C191.223 294.214 191.223 296.148 192.414 297.337C193.605 298.526 195.541 298.526 196.733 297.337C197.923 296.148 197.923 294.214 196.733 293.025C196.138 292.431 195.355 292.134 194.574 292.134Z" fill="#919EAB"/>
</g>
<g id="Vector_2" opacity="0.2">
<path d="M366.607 258.732C365.739 258.732 364.87 258.401 364.208 257.74L360.16 253.699L356.112 257.74C354.788 259.062 352.639 259.062 351.315 257.74C349.989 256.417 349.989 254.272 351.315 252.949L357.761 246.513C359.085 245.19 361.235 245.19 362.559 246.513L369.006 252.949C370.331 254.272 370.331 256.417 369.006 257.74C368.344 258.4 367.475 258.732 366.607 258.732Z" fill="#919EAB"/>
<path d="M127.287 245.825C126.419 245.825 125.549 245.495 124.888 244.833L120.84 240.793L116.792 244.833C115.468 246.156 113.318 246.156 111.994 244.833C110.669 243.51 110.669 241.365 111.994 240.043L118.441 233.607C119.765 232.284 121.915 232.284 123.239 233.607L129.685 240.043C131.011 241.366 131.011 243.511 129.685 244.833C129.023 245.494 128.154 245.825 127.287 245.825Z" fill="#919EAB"/>
</g>
</g>
<path id="Subtract" opacity="0.16" fill-rule="evenodd" clip-rule="evenodd" d="M179.048 126.867V164.619C179.048 169.607 181.471 174.271 185.644 177.005C198.54 185.454 226.972 203.057 240 203.057C253.029 203.057 281.46 185.454 294.357 177.005C298.529 174.271 300.953 169.607 300.953 164.619V126.867C300.953 114.243 290.719 104.01 278.095 104.01H201.905C189.281 104.01 179.048 114.243 179.048 126.867ZM207.619 126.867C204.463 126.867 201.905 129.426 201.905 132.582C201.905 135.737 204.463 138.296 207.619 138.296H241.905C245.061 138.296 247.619 135.737 247.619 132.582C247.619 129.426 245.061 126.867 241.905 126.867H207.619ZM207.619 153.534C204.463 153.534 201.905 156.092 201.905 159.248C201.905 162.404 204.463 164.963 207.619 164.963H264.762C267.918 164.963 270.476 162.404 270.476 159.248C270.476 156.092 267.918 153.534 264.762 153.534H207.619Z" fill="#919EAB"/>
<g id="Vector_3">
<path d="M201.905 132.581C201.905 129.426 204.463 126.867 207.619 126.867H241.905C245.061 126.867 247.619 129.426 247.619 132.581C247.619 135.737 245.061 138.296 241.905 138.296H207.619C204.463 138.296 201.905 135.737 201.905 132.581Z" fill="#919EAB" fill-opacity="0.48"/>
<path d="M201.905 159.248C201.905 156.092 204.463 153.534 207.619 153.534H264.762C267.918 153.534 270.476 156.092 270.476 159.248C270.476 162.404 267.918 164.962 264.762 164.962H207.619C204.463 164.962 201.905 162.404 201.905 159.248Z" fill="#919EAB" fill-opacity="0.48"/>
</g>
<path id="Subtract_2" d="M179.048 136.398C175.166 139.28 171.735 141.915 168.982 144.068C164.396 147.654 161.521 152.944 161.133 158.753C160.605 166.659 160 179.93 160 199.248C160 217.517 161.082 230.378 162.092 238.407C162.925 245.027 167.358 250.277 173.892 251.626C184.37 253.789 204.379 256.391 240 256.391C275.621 256.391 295.63 253.789 306.107 251.626C312.642 250.277 317.075 245.027 317.908 238.407C318.918 230.378 320 217.517 320 199.248C320 179.93 319.395 166.659 318.867 158.753C318.479 152.944 315.604 147.654 311.018 144.068C308.265 141.915 304.834 139.28 300.952 136.398V164.619C300.952 169.607 298.529 174.271 294.357 177.005C281.46 185.454 253.029 203.057 240 203.057C226.971 203.057 198.54 185.454 185.643 177.005C181.471 174.271 179.048 169.607 179.048 164.619V136.398Z" fill="#919EAB" fill-opacity="0.48"/>
</g>
<defs>
<linearGradient id="paint0_linear_0_9512" x1="328.81" y1="424.032" x2="505.393" y2="26.0479" gradientUnits="userSpaceOnUse">
<stop stop-color="#919EAB"/>
<stop offset="1" stop-color="#919EAB" stop-opacity="0.01"/>
</linearGradient>
</defs>
</svg>
