<svg width="480" height="360" viewBox="0 0 480 360" fill="none" xmlns="http://www.w3.org/2000/svg">
<g id="illustrations/illustration_empty_cart">
<g id="Illustration/Background">
<path id="BG" opacity="0.16" fill-rule="evenodd" clip-rule="evenodd" d="M0 198.781C0 240.238 14.9454 278.016 39.539 306.566C67.7534 339.331 108.667 359.931 154.273 360C174.204 360.029 193.262 356.113 210.768 348.964C219.819 345.265 229.95 345.69 238.716 350.071C248.999 355.204 260.514 358.082 272.673 358.082C277.696 358.082 282.615 357.587 287.373 356.648C300.954 353.978 313.313 347.658 323.462 338.708C329.841 333.081 338.01 330.252 346.36 330.262H346.502C374.091 330.262 399.717 321.53 420.994 306.566C440.015 293.206 455.548 274.87 465.898 253.341C474.92 234.581 480 213.388 480 190.958C480 114.027 420.226 51.6534 346.502 51.6534C338.986 51.6534 331.622 52.3158 324.439 53.5518C305.418 21.4201 271.355 0 232.498 0C216.093 0 200.54 3.81769 186.619 10.6612C173.379 17.1483 161.608 26.3663 151.978 37.6C119.281 38.144 89.048 49.2899 64.303 67.8914C25.3514 97.1552 0 144.882 0 198.781Z" fill="url(#paint0_linear_451_52294)"/>
<g id="Vector" opacity="0.2">
<path d="M271.929 75.6377C269.408 75.6377 266.889 74.6804 264.971 72.7652C261.134 68.9346 261.134 62.7023 264.971 58.8724C268.806 55.0432 275.05 55.0419 278.886 58.8724C282.723 62.703 282.723 68.9353 278.886 72.7652C276.968 74.6804 274.448 75.6377 271.929 75.6377ZM271.929 62.7714C271.147 62.7714 270.364 63.0681 269.769 63.663C268.578 64.8513 268.578 66.7856 269.769 67.9746C270.96 69.1629 272.896 69.1636 274.087 67.9746C275.278 66.7862 275.278 64.852 274.087 63.663C273.492 63.0688 272.71 62.7714 271.929 62.7714Z" fill="#919EAB"/>
<path d="M194.574 305C192.054 305 189.534 304.042 187.616 302.127C183.779 298.297 183.779 292.065 187.616 288.235C191.451 284.405 197.696 284.405 201.532 288.235C205.368 292.065 205.368 298.298 201.532 302.127C199.614 304.043 197.093 305 194.574 305ZM194.574 292.134C193.792 292.134 193.01 292.43 192.414 293.025C191.223 294.214 191.223 296.148 192.414 297.337C193.605 298.526 195.541 298.526 196.733 297.337C197.923 296.148 197.923 294.214 196.733 293.025C196.138 292.431 195.355 292.134 194.574 292.134Z" fill="#919EAB"/>
</g>
<g id="Vector_2" opacity="0.2">
<path d="M366.607 258.732C365.739 258.732 364.87 258.401 364.208 257.74L360.16 253.699L356.112 257.74C354.788 259.062 352.639 259.062 351.315 257.74C349.989 256.417 349.989 254.272 351.315 252.949L357.761 246.513C359.085 245.19 361.235 245.19 362.559 246.513L369.006 252.949C370.331 254.272 370.331 256.417 369.006 257.74C368.344 258.4 367.475 258.732 366.607 258.732Z" fill="#919EAB"/>
<path d="M127.287 245.825C126.419 245.825 125.549 245.495 124.888 244.833L120.84 240.793L116.792 244.833C115.468 246.156 113.318 246.156 111.994 244.833C110.669 243.51 110.669 241.365 111.994 240.043L118.441 233.607C119.765 232.284 121.915 232.284 123.239 233.607L129.685 240.043C131.011 241.366 131.011 243.511 129.685 244.833C129.023 245.494 128.154 245.825 127.287 245.825Z" fill="#919EAB"/>
</g>
</g>
<g id="Vector_3" opacity="0.16">
<path d="M247.403 200.937C247.284 199.384 246.65 197.875 245.218 197.261C244.083 196.774 242.396 196.337 240 196.337C237.636 196.337 235.962 196.763 234.827 197.241C233.364 197.859 232.724 199.395 232.612 200.979C232.228 206.405 231.478 219.997 232.561 231.805C232.7 233.317 233.332 234.78 234.724 235.388C235.86 235.885 237.564 236.337 240 236.337C242.396 236.337 244.083 235.9 245.218 235.413C246.65 234.799 247.29 233.289 247.42 231.737C248.516 218.677 247.793 206.047 247.403 200.937Z" fill="#919EAB"/>
<path d="M283.802 202.419C283.976 199.896 282.662 197.439 280.21 196.817C276.87 195.971 273.763 196.382 271.52 196.988C269.21 197.613 267.751 199.705 267.359 202.065C265.152 215.377 264.395 225.131 264.135 230.254C264.007 232.779 265.338 235.235 267.79 235.857C271.063 236.686 274.112 236.308 276.344 235.722C278.736 235.094 280.216 232.893 280.567 230.445C282.674 215.726 283.488 206.979 283.802 202.419Z" fill="#919EAB"/>
<path d="M196.198 202.419C196.024 199.896 197.338 197.439 199.79 196.817C203.13 195.971 206.237 196.382 208.48 196.988C210.79 197.613 212.249 199.705 212.641 202.065C214.848 215.377 215.605 225.131 215.865 230.254C215.993 232.779 214.662 235.235 212.21 235.857C208.937 236.686 205.888 236.308 203.656 235.722C201.264 235.094 199.784 232.893 199.433 230.445C197.326 215.726 196.512 206.979 196.198 202.419Z" fill="#919EAB"/>
<path d="M160.769 156.523C161.816 151.851 166.339 149.703 171.121 149.466C180.655 148.994 200.942 148.337 240 148.337C279.058 148.337 299.345 148.994 308.88 149.466C313.661 149.703 318.184 151.851 319.231 156.523C319.683 158.538 320 161.104 320 164.337C320 167.57 319.683 170.136 319.231 172.151C318.184 176.823 313.661 178.971 308.88 179.208C299.345 179.68 279.058 180.337 240 180.337C200.942 180.337 180.655 179.68 171.121 179.208C166.339 178.971 161.816 176.823 160.769 172.151C160.317 170.136 160 167.57 160 164.337C160 161.104 160.317 158.538 160.769 156.523Z" fill="#919EAB"/>
</g>
<path id="Subtract" fill-rule="evenodd" clip-rule="evenodd" d="M169.579 179.063C171.313 193.258 174.603 215.786 180.075 237.913C182.271 246.797 189.716 253.278 198.819 254.217C208.883 255.255 223.36 256.337 240.001 256.337C256.641 256.337 271.118 255.255 281.182 254.217C290.285 253.278 297.73 246.797 299.926 237.913C305.398 215.785 308.688 193.258 310.422 179.062C309.914 179.134 309.398 179.182 308.88 179.208C299.345 179.68 279.058 180.337 240 180.337C200.942 180.337 180.655 179.68 171.121 179.208C170.602 179.182 170.087 179.134 169.579 179.063ZM245.219 197.261C246.651 197.874 247.285 199.383 247.403 200.936C247.793 206.047 248.517 218.677 247.421 231.737C247.29 233.289 246.651 234.799 245.219 235.413C244.083 235.899 242.396 236.337 240.001 236.337C237.564 236.337 235.861 235.884 234.725 235.388C233.333 234.779 232.701 233.316 232.562 231.804C231.479 219.997 232.229 206.405 232.613 200.978C232.725 199.395 233.365 197.858 234.828 197.241C235.963 196.762 237.637 196.337 240.001 196.337C242.396 196.337 244.083 196.774 245.219 197.261ZM280.211 196.817C282.662 197.438 283.977 199.895 283.803 202.418C283.489 206.979 282.675 215.726 280.568 230.445C280.217 232.893 278.737 235.093 276.345 235.722C274.113 236.308 271.064 236.686 267.791 235.856C265.339 235.235 264.008 232.779 264.136 230.253C264.395 225.131 265.152 215.377 267.36 202.065C267.751 199.705 269.211 197.612 271.52 196.988C273.764 196.381 276.87 195.971 280.211 196.817ZM196.198 202.418C196.025 199.895 197.339 197.438 199.791 196.817C203.131 195.971 206.237 196.381 208.481 196.988C210.791 197.612 212.25 199.705 212.641 202.065C214.849 215.377 215.606 225.131 215.865 230.253C215.993 232.779 214.662 235.235 212.211 235.856C208.937 236.686 205.889 236.308 203.656 235.722C201.264 235.093 199.784 232.893 199.433 230.445C197.327 215.726 196.513 206.979 196.198 202.418Z" fill="#919EAB" fill-opacity="0.48"/>
<g id="Subtract_2">
<path d="M190.875 148.801C200.975 148.571 214.495 148.387 232.371 148.345C231.292 145.709 229.565 143.218 227.381 141.132C218.415 132.566 204.439 119.577 190.009 107.58C184.895 103.329 177.394 102.568 172.356 106.909C172.015 107.203 171.702 107.49 171.429 107.763C171.156 108.036 170.869 108.349 170.575 108.69C166.234 113.728 166.995 121.229 171.246 126.342C177.787 134.21 184.622 141.942 190.875 148.801Z" fill="#919EAB" fill-opacity="0.48"/>
<path d="M289.125 148.801C295.378 141.942 302.214 134.21 308.755 126.342C313.006 121.229 313.767 113.728 309.426 108.69C309.131 108.349 308.845 108.036 308.572 107.763C308.298 107.49 307.986 107.203 307.644 106.909C302.606 102.568 295.105 103.329 289.992 107.58C275.561 119.577 261.586 132.566 252.619 141.132C250.436 143.218 248.708 145.708 247.629 148.345C265.506 148.387 279.026 148.571 289.125 148.801Z" fill="#919EAB" fill-opacity="0.48"/>
</g>
</g>
<defs>
<linearGradient id="paint0_linear_451_52294" x1="328.81" y1="424.032" x2="505.393" y2="26.0479" gradientUnits="userSpaceOnUse">
<stop stop-color="#919EAB"/>
<stop offset="1" stop-color="#919EAB" stop-opacity="0.01"/>
</linearGradient>
</defs>
</svg>
