<svg width="24" height="24" viewBox="0 0 24 24" fill="none" xmlns="http://www.w3.org/2000/svg">
<path fill-rule="evenodd" clip-rule="evenodd" d="M20.8321 6.54341C21.1521 6.91749 21.3993 7.34781 21.5612 7.81231C21.8798 8.76699 22.0273 9.77024 21.9969 10.776V16.0291C21.9956 16.4715 21.963 16.9133 21.8991 17.3512C21.7775 18.1239 21.5057 18.8655 21.0989 19.5341C20.9119 19.857 20.6849 20.1551 20.4231 20.4214C19.2383 21.5088 17.665 22.0748 16.0574 21.992H7.93061C6.32049 22.0742 4.74462 21.5084 3.55601 20.4214C3.2974 20.1546 3.07337 19.8565 2.88915 19.5341C2.48475 18.8659 2.21869 18.1237 2.1067 17.3512C2.03549 16.9141 1.99981 16.4719 2 16.0291V10.776C1.99983 10.3373 2.02357 9.8989 2.07113 9.46276C2.08113 9.38624 2.09614 9.31097 2.11098 9.23647C2.13573 9.11228 2.16005 8.99026 2.16005 8.86824C2.25031 8.34192 2.41496 7.83104 2.64908 7.35089C3.34261 5.86904 4.76525 5.1148 7.09481 5.1148H16.8754C18.1802 5.01389 19.4753 5.40668 20.5032 6.2151C20.6215 6.31548 20.7316 6.42528 20.8321 6.54341ZM8 14.7159C8 15.1716 8.25155 15.5411 8.56186 15.5411H15.4129C15.563 15.5507 15.7094 15.4716 15.8195 15.3216C15.9296 15.1715 15.9943 14.963 15.999 14.7425C16.0074 14.5487 15.9641 14.3576 15.8781 14.2101C15.7792 14.0118 15.6226 13.8934 15.4552 13.8906H8.56186C8.25155 13.8906 8 14.2601 8 14.7159Z" fill="#637381"/>
<g opacity="0.4">
<path d="M13.9029 5.1148C13.1838 5.10824 12.5039 4.78368 12.0474 4.22751L11.0782 2.88762C10.6214 2.31661 9.92529 1.98894 9.1932 2.00028H7.1126C3.37818 2.00028 2 4.19201 2 7.91884V10.7553C2.00057 10.3235 2.02431 9.89204 2.07112 9.46276C2.08112 9.38624 2.09612 9.31097 2.11097 9.23647C2.13572 9.11228 2.16004 8.99026 2.16004 8.86824C2.2503 8.34192 2.41495 7.83104 2.64907 7.35089C3.3426 5.86904 4.76524 5.1148 7.0948 5.1148H13.9029Z" fill="#637381"/>
<path d="M21.9489 9.5773C21.7377 7.27785 20.8142 5.8468 18.8175 5.33139C19.4238 5.51853 19.996 5.81622 20.5031 6.2151C20.6215 6.31548 20.7315 6.42528 20.8321 6.54341C21.1521 6.91749 21.3993 7.34781 21.5612 7.81231C21.7528 8.38641 21.8825 8.97808 21.9489 9.5773Z" fill="#637381"/>
<path d="M8.56173 15.5411C8.25142 15.5411 7.99987 15.1716 7.99987 14.7159C7.99987 14.2601 8.25142 13.8906 8.56173 13.8906H15.4551C15.6224 13.8934 15.7791 14.0118 15.878 14.2101C15.964 14.3576 16.0073 14.5487 15.9988 14.7425C15.9941 14.963 15.9295 15.1715 15.8194 15.3216C15.7093 15.4716 15.5629 15.5507 15.4128 15.5411H8.56173Z" fill="#637381"/>
</g>
</svg>
