<svg width="480" height="360" viewBox="0 0 480 360" fill="none" xmlns="http://www.w3.org/2000/svg">
<g id="illustrations/illustration_empty_content">
<g id="Illustration/Background">
<path id="BG" opacity="0.16" fill-rule="evenodd" clip-rule="evenodd" d="M0 198.781C0 240.238 14.9454 278.016 39.539 306.566C67.7534 339.331 108.667 359.931 154.273 360C174.204 360.029 193.262 356.113 210.768 348.964C219.819 345.265 229.95 345.69 238.716 350.071C248.999 355.204 260.514 358.082 272.673 358.082C277.696 358.082 282.615 357.587 287.373 356.648C300.954 353.978 313.313 347.658 323.462 338.708C329.841 333.081 338.01 330.252 346.36 330.262H346.502C374.091 330.262 399.717 321.53 420.994 306.566C440.015 293.206 455.548 274.87 465.898 253.341C474.92 234.581 480 213.388 480 190.958C480 114.027 420.226 51.6534 346.502 51.6534C338.986 51.6534 331.622 52.3158 324.439 53.5518C305.418 21.4201 271.355 0 232.498 0C216.093 0 200.54 3.81769 186.619 10.6612C173.379 17.1483 161.608 26.3663 151.978 37.6C119.281 38.144 89.048 49.2899 64.303 67.8914C25.3514 97.1552 0 144.882 0 198.781Z" fill="url(#paint0_linear_0_9560)"/>
<g id="Vector" opacity="0.2">
<path d="M271.929 75.6377C269.408 75.6377 266.889 74.6804 264.971 72.7652C261.134 68.9346 261.134 62.7023 264.971 58.8724C268.806 55.0432 275.05 55.0419 278.886 58.8724C282.723 62.703 282.723 68.9353 278.886 72.7652C276.968 74.6804 274.448 75.6377 271.929 75.6377ZM271.929 62.7714C271.147 62.7714 270.364 63.0681 269.769 63.663C268.578 64.8513 268.578 66.7856 269.769 67.9746C270.96 69.1629 272.896 69.1636 274.087 67.9746C275.278 66.7862 275.278 64.852 274.087 63.663C273.492 63.0688 272.71 62.7714 271.929 62.7714Z" fill="#919EAB"/>
<path d="M194.574 305C192.054 305 189.534 304.042 187.616 302.127C183.779 298.297 183.779 292.065 187.616 288.235C191.451 284.405 197.696 284.405 201.532 288.235C205.368 292.065 205.368 298.298 201.532 302.127C199.614 304.043 197.093 305 194.574 305ZM194.574 292.134C193.792 292.134 193.01 292.43 192.414 293.025C191.223 294.214 191.223 296.148 192.414 297.337C193.605 298.526 195.541 298.526 196.733 297.337C197.923 296.148 197.923 294.214 196.733 293.025C196.138 292.431 195.355 292.134 194.574 292.134Z" fill="#919EAB"/>
</g>
<g id="Vector_2" opacity="0.2">
<path d="M366.607 258.732C365.739 258.732 364.87 258.401 364.208 257.74L360.16 253.699L356.112 257.74C354.788 259.062 352.639 259.062 351.315 257.74C349.989 256.417 349.989 254.272 351.315 252.949L357.761 246.513C359.085 245.19 361.235 245.19 362.559 246.513L369.006 252.949C370.331 254.272 370.331 256.417 369.006 257.74C368.344 258.4 367.475 258.732 366.607 258.732Z" fill="#919EAB"/>
<path d="M127.287 245.825C126.419 245.825 125.549 245.495 124.888 244.833L120.84 240.793L116.792 244.833C115.468 246.156 113.318 246.156 111.994 244.833C110.669 243.51 110.669 241.365 111.994 240.043L118.441 233.607C119.765 232.284 121.915 232.284 123.239 233.607L129.685 240.043C131.011 241.366 131.011 243.511 129.685 244.833C129.023 245.494 128.154 245.825 127.287 245.825Z" fill="#919EAB"/>
</g>
</g>
<path id="Subtract" opacity="0.16" fill-rule="evenodd" clip-rule="evenodd" d="M172.018 173.478H195.091C198.279 173.478 200.859 170.902 200.859 167.719C200.859 164.536 198.279 161.96 195.091 161.96H172.018C168.829 161.96 166.25 164.536 166.25 167.719C166.25 170.902 168.829 173.478 172.018 173.478ZM310.455 161.96H252.773C249.584 161.96 247.004 164.536 247.004 167.719V236.824C247.004 240.007 249.584 242.582 252.773 242.582H310.455C313.643 242.582 316.223 240.007 316.223 236.824V167.719C316.223 164.536 313.643 161.96 310.455 161.96ZM166.25 190.754C166.25 187.571 168.829 184.995 172.018 184.995H229.7C232.888 184.995 235.468 187.571 235.468 190.754C235.468 193.937 232.888 196.513 229.7 196.513H172.018C168.829 196.513 166.25 193.937 166.25 190.754ZM172.018 208.03C168.829 208.03 166.25 210.606 166.25 213.789C166.25 216.972 168.829 219.548 172.018 219.548H229.7C232.888 219.548 235.468 216.972 235.468 213.789C235.468 210.606 232.888 208.03 229.7 208.03H172.018ZM166.25 236.824C166.25 233.641 168.829 231.065 172.018 231.065H229.7C232.888 231.065 235.468 233.641 235.468 236.824C235.468 240.007 232.888 242.582 229.7 242.582H172.018C168.829 242.582 166.25 240.007 166.25 236.824Z" fill="#919EAB"/>
<path id="Subtract_2" fill-rule="evenodd" clip-rule="evenodd" d="M142.023 145.836V247.185C142.023 254.821 148.213 261.01 155.848 261.01H326.624C334.259 261.01 340.449 254.821 340.449 247.185V145.836H142.023ZM195.09 173.478H172.017C168.829 173.478 166.249 170.902 166.249 167.719C166.249 164.536 168.829 161.961 172.017 161.961H195.09C198.278 161.961 200.858 164.536 200.858 167.719C200.858 170.902 198.278 173.478 195.09 173.478ZM252.772 161.961H310.454C313.642 161.961 316.222 164.536 316.222 167.719V236.824C316.222 240.007 313.642 242.583 310.454 242.583H252.772C249.584 242.583 247.004 240.007 247.004 236.824V167.719C247.004 164.536 249.584 161.961 252.772 161.961ZM172.017 184.995C168.829 184.995 166.249 187.571 166.249 190.754C166.249 193.937 168.829 196.513 172.017 196.513H229.699C232.888 196.513 235.467 193.937 235.467 190.754C235.467 187.571 232.888 184.995 229.699 184.995H172.017ZM166.249 213.789C166.249 210.606 168.829 208.03 172.017 208.03H229.699C232.888 208.03 235.467 210.606 235.467 213.789C235.467 216.972 232.888 219.548 229.699 219.548H172.017C168.829 219.548 166.249 216.972 166.249 213.789ZM172.017 231.065C168.829 231.065 166.249 233.641 166.249 236.824C166.249 240.007 168.829 242.583 172.017 242.583H229.699C232.888 242.583 235.467 240.007 235.467 236.824C235.467 233.641 232.888 231.065 229.699 231.065H172.017Z" fill="#919EAB" fill-opacity="0.48"/>
<path id="Intersect" opacity="0.16" fill-rule="evenodd" clip-rule="evenodd" d="M340.45 113.591C340.45 105.956 334.26 99.7661 326.625 99.7661H155.848C148.213 99.7661 142.023 105.956 142.023 113.591V145.836H340.45V113.591ZM172.018 117.042C168.788 117.042 166.25 119.576 166.25 122.801C166.25 126.025 168.788 128.56 172.018 128.56C175.249 128.56 177.786 126.025 177.786 122.801C177.786 119.576 175.249 117.042 172.018 117.042ZM195.091 117.042C191.86 117.042 189.323 119.576 189.323 122.801C189.323 126.025 191.86 128.56 195.091 128.56C198.321 128.56 200.859 126.025 200.859 122.801C200.859 119.576 198.321 117.042 195.091 117.042ZM218.164 117.042C214.933 117.042 212.395 119.576 212.395 122.801C212.395 126.025 214.933 128.56 218.164 128.56C221.394 128.56 223.932 126.025 223.932 122.801C223.932 119.576 221.394 117.042 218.164 117.042Z" fill="#919EAB"/>
<path id="Intersect_2" opacity="0.8" fill-rule="evenodd" clip-rule="evenodd" d="M172.018 117.042C168.787 117.042 166.25 119.576 166.25 122.801C166.25 126.026 168.787 128.56 172.018 128.56C175.248 128.56 177.786 126.026 177.786 122.801C177.786 119.576 175.248 117.042 172.018 117.042ZM195.091 117.042C191.86 117.042 189.322 119.576 189.322 122.801C189.322 126.026 191.86 128.56 195.091 128.56C198.321 128.56 200.859 126.026 200.859 122.801C200.859 119.576 198.321 117.042 195.091 117.042ZM218.163 117.042C214.933 117.042 212.395 119.576 212.395 122.801C212.395 126.026 214.933 128.56 218.163 128.56C221.394 128.56 223.932 126.026 223.932 122.801C223.932 119.576 221.394 117.042 218.163 117.042Z" fill="#919EAB"/>
</g>
<defs>
<linearGradient id="paint0_linear_0_9560" x1="328.81" y1="424.032" x2="505.393" y2="26.0479" gradientUnits="userSpaceOnUse">
<stop stop-color="#919EAB"/>
<stop offset="1" stop-color="#919EAB" stop-opacity="0.01"/>
</linearGradient>
</defs>
</svg>
