<svg width="64" height="65" viewBox="0 0 64 65" fill="none" xmlns="http://www.w3.org/2000/svg">
<g clip-path="url(#clip0_296_3262)">
<path d="M58.9345 16.6744C50.7574 10.3878 42.8261 15.5113 33.9795 13.6998C25.069 11.8752 21.5189 5.7998 11.37 8.60417C2.37975 11.0883 -3.07525 21.0481 1.867 29.3864C3.27537 31.7626 5.67462 33.5552 6.65512 36.2138C8.23675 40.5027 5.82925 43.7954 6.29887 48.0103C8.25037 65.5229 34.9956 58.7396 44.8368 53.2909C60.2705 44.7459 70.7115 25.7288 58.9345 16.6744Z" fill="url(#paint0_linear_296_3262)" fill-opacity="0.12"/>
<path opacity="0.24" d="M51.3966 10.3069C50.9324 10.3069 50.4683 10.1302 50.1149 9.77691C49.4083 9.07028 49.4083 7.92041 50.1149 7.21366C50.8216 6.50691 51.9716 6.50691 52.6782 7.21366C53.3848 7.92041 53.3848 9.07016 52.6782 9.77691C52.3249 10.1302 51.8608 10.3069 51.3966 10.3069ZM51.3967 7.93303C51.2526 7.93303 51.1086 7.98778 50.9989 8.09753C50.7797 8.31678 50.7797 8.67366 50.9989 8.89303C51.2182 9.11228 51.5751 9.11241 51.7944 8.89303C52.0137 8.67378 52.0137 8.31691 51.7944 8.09753C51.6847 7.98778 51.5407 7.93303 51.3967 7.93303Z" fill="#00AB55"/>
<path opacity="0.48" d="M54.54 16.4182C54.0759 16.4183 53.6118 16.2416 53.2584 15.8882C52.916 15.5458 52.7275 15.0907 52.7275 14.6066C52.7275 14.1224 52.916 13.6673 53.2584 13.3249C53.9649 12.6183 55.1148 12.6182 55.8215 13.3249C56.1639 13.6673 56.3524 14.1224 56.3524 14.6066C56.3524 15.0908 56.1639 15.5459 55.8214 15.8882C55.4684 16.2414 55.0042 16.4182 54.54 16.4182ZM54.54 14.0443C54.396 14.0443 54.2519 14.0991 54.1423 14.2088C54.0359 14.3151 53.9775 14.4563 53.9775 14.6066C53.9775 14.7568 54.036 14.8981 54.1423 15.0043C54.3617 15.2237 54.7185 15.2237 54.9378 15.0043C55.0442 14.8981 55.1025 14.7568 55.1025 14.6066C55.1025 14.4563 55.044 14.3152 54.9378 14.2088C54.8282 14.0991 54.6842 14.0443 54.54 14.0443Z" fill="#00AB55"/>
<path opacity="0.24" d="M13.1719 29.6049C12.7078 29.6049 12.2436 29.4281 11.8903 29.0749C11.1837 28.3681 11.1837 27.2182 11.8903 26.5116C12.5969 25.8051 13.7469 25.805 14.4536 26.5116C15.1602 27.2184 15.1602 28.3681 14.4536 29.0749C14.1003 29.4281 13.6361 29.6049 13.1719 29.6049ZM13.1719 27.231C13.0279 27.231 12.8838 27.2857 12.7742 27.3955C12.5548 27.6147 12.5548 27.9716 12.7742 28.191C12.9934 28.4104 13.3504 28.4102 13.5697 28.191C13.7891 27.9717 13.7891 27.6149 13.5697 27.3955C13.4601 27.2857 13.3161 27.231 13.1719 27.231Z" fill="#00AB55"/>
<path opacity="0.48" d="M12.3662 35.2225C12.2062 35.2225 12.0463 35.1615 11.9242 35.0395L11.1787 34.294L10.4332 35.0395C10.1891 35.2835 9.79343 35.2835 9.5493 35.0395C9.30518 34.7954 9.30518 34.3997 9.5493 34.1557L10.7368 32.9682C10.9809 32.7242 11.3766 32.7242 11.6207 32.9682L12.8082 34.1557C13.0523 34.3998 13.0523 34.7955 12.8082 35.0395C12.6861 35.1614 12.5262 35.2225 12.3662 35.2225Z" fill="#00AB55"/>
<path opacity="0.48" d="M53.3525 53.3224C53.1925 53.3224 53.0326 53.2614 52.9105 53.1394L52.165 52.3939L51.4195 53.1394C51.1754 53.3834 50.7798 53.3834 50.5356 53.1394C50.2915 52.8953 50.2915 52.4995 50.5356 52.2555L51.7231 51.068C51.9673 50.824 52.3629 50.824 52.607 51.068L53.7945 52.2555C54.0386 52.4996 54.0386 52.8954 53.7945 53.1394C53.6724 53.2612 53.5125 53.3224 53.3525 53.3224Z" fill="#00AB55"/>
<path d="M40.3208 20.2361H23.4151C22.0813 20.2361 21 21.3174 21 22.6512V45.5946C21 46.9284 22.0813 48.0097 23.4151 48.0097H40.3208C41.6546 48.0097 42.7358 46.9284 42.7358 45.5946V22.6512C42.7358 21.3174 41.6546 20.2361 40.3208 20.2361Z" fill="#FFAB00"/>
<path d="M23 23.0098H41V46.0098H23V23.0098Z" fill="#FFD666"/>
<path d="M36.5 43.0098H23V23.0098H41V38.8921L36.5 43.0098Z" fill="#FFF5CC"/>
<path d="M34.2829 19.6324V18.4249C34.2829 17.7843 34.0285 17.17 33.5755 16.7171C33.1226 16.2642 32.5083 16.0098 31.8678 16.0098C31.2273 16.0098 30.613 16.2642 30.1601 16.7171C29.7072 17.17 29.4527 17.7843 29.4527 18.4249V19.6324H27.0376L25.8301 21.4437V23.255H37.9056V21.4437L36.698 19.6324H34.2829Z" fill="#FFB431"/>
<path d="M37 43.2362V39.0098H41.2264L37 43.2362Z" fill="#FFAB00"/>
<path d="M31.8685 38.3494C30.2862 37.8219 28.9099 36.81 27.9347 35.4569C26.9594 34.1038 26.4346 32.4781 26.4346 30.8102V28.0852C28.0149 28.0852 29.5655 27.6557 30.9206 26.8427L31.8685 26.2739L32.8165 26.8427C34.1716 27.6557 35.7222 28.0852 37.3025 28.0852V30.8102C37.3025 32.4781 36.7777 34.1038 35.8024 35.4569C34.8272 36.81 33.4509 37.8219 31.8685 38.3494Z" fill="#36B37E"/>
<path d="M31.8676 33.5192C31.7738 33.5192 31.6814 33.4974 31.5976 33.4554C31.5137 33.4135 31.4408 33.3527 31.3846 33.2777L29.5732 30.8626L30.5393 30.1381L31.8676 31.9091L36.8185 25.3079L37.7846 26.0324L32.3506 33.2777C32.2944 33.3527 32.2214 33.4135 32.1376 33.4554C32.0538 33.4974 31.9613 33.5192 31.8676 33.5192Z" fill="#1B806A"/>
<path d="M25.2266 37.7456H28.2454V38.9532H25.2266V37.7456Z" fill="#FFAB00"/>
<path d="M25.2266 40.1606H29.453V41.3682H25.2266V40.1606Z" fill="#FFAB00"/>
</g>
<defs>
<linearGradient id="paint0_linear_296_3262" x1="43.8414" y1="68.4115" x2="70.1982" y2="12.931" gradientUnits="userSpaceOnUse">
<stop stop-color="#00AB55"/>
<stop offset="1" stop-color="#00AB55" stop-opacity="0.01"/>
</linearGradient>
<clipPath id="clip0_296_3262">
<rect width="64" height="64" fill="white" transform="translate(0 0.00976562)"/>
</clipPath>
</defs>
</svg>
