<svg width="64" height="65" viewBox="0 0 64 65" fill="none" xmlns="http://www.w3.org/2000/svg">
<g clip-path="url(#clip0_296_3266)">
<path d="M58.9345 16.6744C50.7574 10.3878 42.8261 15.5113 33.9795 13.6998C25.069 11.8752 21.5189 5.7998 11.37 8.60417C2.37975 11.0883 -3.07525 21.0481 1.867 29.3864C3.27537 31.7626 5.67462 33.5552 6.65512 36.2138C8.23675 40.5027 5.82925 43.7954 6.29887 48.0103C8.25037 65.5229 34.9956 58.7396 44.8368 53.2909C60.2705 44.7459 70.7115 25.7288 58.9345 16.6744Z" fill="url(#paint0_linear_296_3266)" fill-opacity="0.12"/>
<path opacity="0.24" d="M51.3966 10.3069C50.9324 10.3069 50.4683 10.1302 50.1149 9.77691C49.4083 9.07028 49.4083 7.92041 50.1149 7.21366C50.8216 6.50691 51.9716 6.50691 52.6782 7.21366C53.3848 7.92041 53.3848 9.07016 52.6782 9.77691C52.3249 10.1302 51.8608 10.3069 51.3966 10.3069ZM51.3967 7.93303C51.2526 7.93303 51.1086 7.98778 50.9989 8.09753C50.7797 8.31678 50.7797 8.67366 50.9989 8.89303C51.2182 9.11228 51.5751 9.11241 51.7944 8.89303C52.0137 8.67378 52.0137 8.31691 51.7944 8.09753C51.6847 7.98778 51.5407 7.93303 51.3967 7.93303Z" fill="#00AB55"/>
<path opacity="0.48" d="M54.54 16.4182C54.0759 16.4183 53.6118 16.2416 53.2584 15.8882C52.916 15.5458 52.7275 15.0907 52.7275 14.6066C52.7275 14.1224 52.916 13.6673 53.2584 13.3249C53.9649 12.6183 55.1148 12.6182 55.8215 13.3249C56.1639 13.6673 56.3524 14.1224 56.3524 14.6066C56.3524 15.0908 56.1639 15.5459 55.8214 15.8882C55.4684 16.2414 55.0042 16.4182 54.54 16.4182ZM54.54 14.0443C54.396 14.0443 54.2519 14.0991 54.1423 14.2088C54.0359 14.3151 53.9775 14.4563 53.9775 14.6066C53.9775 14.7568 54.036 14.8981 54.1423 15.0043C54.3617 15.2237 54.7185 15.2237 54.9378 15.0043C55.0442 14.8981 55.1025 14.7568 55.1025 14.6066C55.1025 14.4563 55.044 14.3152 54.9378 14.2088C54.8282 14.0991 54.6842 14.0443 54.54 14.0443Z" fill="#00AB55"/>
<path opacity="0.24" d="M13.1719 29.6049C12.7078 29.6049 12.2436 29.4281 11.8903 29.0749C11.1837 28.3681 11.1837 27.2182 11.8903 26.5116C12.5969 25.8051 13.7469 25.805 14.4536 26.5116C15.1602 27.2184 15.1602 28.3681 14.4536 29.0749C14.1003 29.4281 13.6361 29.6049 13.1719 29.6049ZM13.1719 27.231C13.0279 27.231 12.8838 27.2857 12.7742 27.3955C12.5548 27.6147 12.5548 27.9716 12.7742 28.191C12.9934 28.4104 13.3504 28.4102 13.5697 28.191C13.7891 27.9717 13.7891 27.6149 13.5697 27.3955C13.4601 27.2857 13.3161 27.231 13.1719 27.231Z" fill="#00AB55"/>
<path opacity="0.48" d="M12.3662 35.2225C12.2062 35.2225 12.0463 35.1615 11.9242 35.0395L11.1787 34.294L10.4332 35.0395C10.1891 35.2835 9.79343 35.2835 9.5493 35.0395C9.30518 34.7954 9.30518 34.3997 9.5493 34.1557L10.7368 32.9682C10.9809 32.7242 11.3766 32.7242 11.6207 32.9682L12.8082 34.1557C13.0523 34.3998 13.0523 34.7955 12.8082 35.0395C12.6861 35.1614 12.5262 35.2225 12.3662 35.2225Z" fill="#00AB55"/>
<path opacity="0.48" d="M53.3525 53.3224C53.1925 53.3224 53.0326 53.2614 52.9105 53.1394L52.165 52.3939L51.4195 53.1394C51.1754 53.3834 50.7798 53.3834 50.5356 53.1394C50.2915 52.8953 50.2915 52.4995 50.5356 52.2555L51.7231 51.068C51.9673 50.824 52.3629 50.824 52.607 51.068L53.7945 52.2555C54.0386 52.4996 54.0386 52.8954 53.7945 53.1394C53.6724 53.2612 53.5125 53.3224 53.3525 53.3224Z" fill="#00AB55"/>
<path d="M48 32.0097C48 40.8464 40.8364 48.0097 32 48.0097C23.1633 48.0097 16 40.8464 16 32.0097C16 23.1731 23.1633 16.0098 32 16.0098C40.8364 16.0098 48 23.1731 48 32.0097Z" fill="#FFD666"/>
<path d="M36.2146 22.4214C36.0327 21.7183 35.2566 20.7214 32.3161 20.7214C27.7732 20.7214 27.1262 21.3943 25.9172 20.2324C24.8972 19.2522 24.2981 23.97 25.6582 25.4683C25.0842 27.5903 25.5434 29.7158 25.5434 29.7158H38.3254C38.3252 29.7158 39.3979 24.751 36.2146 22.4214Z" fill="#B76E00"/>
<path d="M26.8336 29.939C26.8336 29.939 26.2825 28.9297 25.1805 28.9297C24.0784 28.9297 23.2976 33.7749 26.8336 32.9673V29.939Z" fill="#FFE4D1"/>
<path d="M37.0352 29.939C37.0352 29.939 37.5862 28.9297 38.6882 28.9297C39.7905 28.9297 40.5711 33.7749 37.0352 32.9673V29.939Z" fill="#FFE4D1"/>
<path d="M31.9345 23.4463C23.4911 23.4463 25.1054 37.2939 31.9345 37.2939C38.7633 37.2939 40.3778 23.4463 31.9345 23.4463Z" fill="#FFEFE4"/>
<path d="M28.8931 21.9882C27.2755 22.1009 26.7201 22.1395 25.916 21.367C25.3931 20.8643 24.9815 21.8606 24.8872 23.1524C24.7573 21.4053 25.2456 19.5881 25.916 20.2324C26.7202 21.0051 27.2756 20.9665 28.8936 20.8539C29.7086 20.7972 30.7932 20.7217 32.3149 20.7217C35.2556 20.7217 36.0317 21.7183 36.2134 22.4216C38.3464 23.9822 38.5681 26.7241 38.4827 28.3652C38.3957 26.7788 37.9065 24.7947 36.2134 23.5559C36.0317 22.8525 35.2556 21.856 32.3149 21.856C30.7929 21.856 29.7082 21.9315 28.8931 21.9882Z" fill="#B76E00"/>
<path d="M26.191 29.2513C26.191 21.8824 31.9342 22.6927 31.9342 22.6927C31.9342 22.6927 37.6771 21.8824 37.6771 29.2513C37.6771 29.2513 36.9542 26.2057 35.295 25.3751C34.9407 25.1976 34.6893 25.3078 34.2985 25.479C33.8373 25.6811 33.1819 25.9683 31.9342 25.9683C30.6863 25.9683 30.0309 25.6812 29.5698 25.479C29.1789 25.3078 28.9275 25.1976 28.5731 25.3751C26.9141 26.2057 26.191 29.2513 26.191 29.2513Z" fill="#B76E00"/>
<path d="M43.553 43.0798C43.1426 42.0742 42.3088 41.2681 41.2319 40.9141L36.0434 39.2092C35.5539 39.0483 35.2214 38.5935 35.2168 38.0781L35.1982 35.9829C34.331 36.7637 33.2515 37.2476 31.989 37.2588C30.7268 37.2698 29.6389 36.8049 28.7578 36.0398L28.7756 38.0615C28.7803 38.5847 28.4458 39.0508 27.9485 39.2141L22.762 40.915C21.6875 41.2676 20.8545 42.0701 20.4424 43.0723C23.355 46.1147 27.4568 48.0098 32.0015 48.0098C36.542 48.0098 40.6406 46.1179 43.553 43.0798Z" fill="#FFAB00"/>
<path d="M31.8096 43.7493C34.47 43.7493 36.7393 42.0793 37.6296 39.731L36.042 39.2092C35.5525 39.0483 35.22 38.5933 35.2156 38.0781L35.197 35.9829C34.3296 36.7637 33.2502 37.2476 31.9878 37.2588C30.7253 37.2698 29.6375 36.8049 28.7566 36.0398L28.7744 38.0615C28.7791 38.5847 28.4446 39.0508 27.9473 39.2141L26.0332 39.8418C26.9521 42.1316 29.1912 43.7493 31.8096 43.7493Z" fill="#FFE4D1"/>
<path d="M32 17.2598C40.627 17.2598 47.6582 24.0881 47.9866 32.6347C47.9946 32.4272 48 32.2192 48 32.0097C48 23.1733 40.8364 16.0098 32 16.0098C23.1633 16.0098 16 23.1733 16 32.0097C16 32.2192 16.0051 32.4272 16.0132 32.6347C16.3416 24.0881 23.3728 17.2598 32 17.2598Z" fill="#FFAB00"/>
</g>
<defs>
<linearGradient id="paint0_linear_296_3266" x1="43.8414" y1="68.4115" x2="70.1982" y2="12.931" gradientUnits="userSpaceOnUse">
<stop stop-color="#00AB55"/>
<stop offset="1" stop-color="#00AB55" stop-opacity="0.01"/>
</linearGradient>
<clipPath id="clip0_296_3266">
<rect width="64" height="64" fill="white" transform="translate(0 0.00976562)"/>
</clipPath>
</defs>
</svg>
