<svg width="64" height="65" viewBox="0 0 64 65" fill="none" xmlns="http://www.w3.org/2000/svg">
<g clip-path="url(#clip0_296_2015)">
<path d="M58.9345 16.6744C50.7574 10.3878 42.8261 15.5113 33.9795 13.6998C25.069 11.8752 21.5189 5.7998 11.37 8.60417C2.37975 11.0883 -3.07525 21.0481 1.867 29.3864C3.27537 31.7626 5.67462 33.5552 6.65512 36.2138C8.23675 40.5027 5.82925 43.7954 6.29887 48.0103C8.25037 65.5229 34.9956 58.7396 44.8368 53.2909C60.2705 44.7459 70.7115 25.7288 58.9345 16.6744Z" fill="url(#paint0_linear_296_2015)" fill-opacity="0.12"/>
<path opacity="0.24" d="M51.3966 10.3069C50.9324 10.3069 50.4683 10.1302 50.1149 9.77691C49.4083 9.07028 49.4083 7.92041 50.1149 7.21366C50.8216 6.50691 51.9716 6.50691 52.6782 7.21366C53.3848 7.92041 53.3848 9.07016 52.6782 9.77691C52.3249 10.1302 51.8608 10.3069 51.3966 10.3069ZM51.3967 7.93303C51.2526 7.93303 51.1086 7.98778 50.9989 8.09753C50.7797 8.31678 50.7797 8.67366 50.9989 8.89303C51.2182 9.11228 51.5751 9.11241 51.7944 8.89303C52.0137 8.67378 52.0137 8.31691 51.7944 8.09753C51.6847 7.98778 51.5407 7.93303 51.3967 7.93303Z" fill="#00AB55"/>
<path opacity="0.48" d="M54.54 16.4182C54.0759 16.4183 53.6118 16.2416 53.2584 15.8882C52.916 15.5458 52.7275 15.0907 52.7275 14.6066C52.7275 14.1224 52.916 13.6673 53.2584 13.3249C53.9649 12.6183 55.1148 12.6182 55.8215 13.3249C56.1639 13.6673 56.3524 14.1224 56.3524 14.6066C56.3524 15.0908 56.1639 15.5459 55.8214 15.8882C55.4684 16.2414 55.0042 16.4182 54.54 16.4182ZM54.54 14.0443C54.396 14.0443 54.2519 14.0991 54.1423 14.2088C54.0359 14.3151 53.9775 14.4563 53.9775 14.6066C53.9775 14.7568 54.036 14.8981 54.1423 15.0043C54.3617 15.2237 54.7185 15.2237 54.9378 15.0043C55.0442 14.8981 55.1025 14.7568 55.1025 14.6066C55.1025 14.4563 55.044 14.3152 54.9378 14.2088C54.8282 14.0991 54.6842 14.0443 54.54 14.0443Z" fill="#00AB55"/>
<path opacity="0.24" d="M13.1719 29.6049C12.7078 29.6049 12.2436 29.4281 11.8903 29.0749C11.1837 28.3681 11.1837 27.2182 11.8903 26.5116C12.5969 25.8051 13.7469 25.805 14.4536 26.5116C15.1602 27.2184 15.1602 28.3681 14.4536 29.0749C14.1003 29.4281 13.6361 29.6049 13.1719 29.6049ZM13.1719 27.231C13.0279 27.231 12.8838 27.2857 12.7742 27.3955C12.5548 27.6147 12.5548 27.9716 12.7742 28.191C12.9934 28.4104 13.3504 28.4102 13.5697 28.191C13.7891 27.9717 13.7891 27.6149 13.5697 27.3955C13.4601 27.2857 13.3161 27.231 13.1719 27.231Z" fill="#00AB55"/>
<path opacity="0.48" d="M12.3662 35.2225C12.2062 35.2225 12.0463 35.1615 11.9242 35.0395L11.1787 34.294L10.4332 35.0395C10.1891 35.2835 9.79343 35.2835 9.5493 35.0395C9.30518 34.7954 9.30518 34.3997 9.5493 34.1557L10.7368 32.9682C10.9809 32.7242 11.3766 32.7242 11.6207 32.9682L12.8082 34.1557C13.0523 34.3998 13.0523 34.7955 12.8082 35.0395C12.6861 35.1614 12.5262 35.2225 12.3662 35.2225Z" fill="#00AB55"/>
<path opacity="0.48" d="M53.3525 53.3224C53.1925 53.3224 53.0326 53.2614 52.9105 53.1394L52.165 52.3939L51.4195 53.1394C51.1754 53.3834 50.7798 53.3834 50.5356 53.1394C50.2915 52.8953 50.2915 52.4995 50.5356 52.2555L51.7231 51.068C51.9673 50.824 52.3629 50.824 52.607 51.068L53.7945 52.2555C54.0386 52.4996 54.0386 52.8954 53.7945 53.1394C53.6724 53.2612 53.5125 53.3224 53.3525 53.3224Z" fill="#00AB55"/>
<path d="M44.5625 31.989L46.1424 31.3503C47.6453 30.742 48.3835 29.0415 47.8016 27.5282L44.1035 17.9146C43.5117 16.3815 41.789 15.6184 40.2559 16.2102C40.2342 16.2186 40.2125 16.2272 40.1911 16.2361L21.7138 23.8957C20.2352 24.5105 19.5083 26.1852 20.0689 27.6853L20.8129 29.669L22.0615 33.0911H40.7972L44.5625 31.989Z" fill="#61F3F3"/>
<path d="M24.8997 29.6706L23.7314 26.75L28.4043 24.4136L29.5726 27.3341L24.8997 29.6706Z" fill="#006C9C"/>
<path d="M38.6953 26.8312L43.952 24.4937L44.3998 25.5007L39.1431 27.8382L38.6953 26.8312Z" fill="#006C9C"/>
<path d="M35.1836 25.6656L42.7766 22.1611L43.2382 23.1613L35.6452 26.6657L35.1836 25.6656Z" fill="#006C9C"/>
<path opacity="0.12" d="M46.1425 31.3502C46.1915 31.3304 46.2328 31.3001 46.2802 31.2781C46.1326 29.8058 44.8944 28.6843 43.4148 28.6826H20.4404L20.8107 29.6706L22.0616 33.091H40.7973L44.5626 31.9889L46.1425 31.3502Z" fill="black"/>
<path d="M18.893 29.7849H42.3126C43.9104 29.7849 45.2056 31.0802 45.2056 32.6779V45.0765C45.2056 46.6743 43.9104 47.9695 42.3126 47.9695H18.893C17.2952 47.9695 16 46.6743 16 45.0765V32.6779C16 31.0802 17.2952 29.7849 18.893 29.7849Z" fill="#FFAB00"/>
<path d="M36.9401 46.3162C35.114 46.3162 33.6338 44.8359 33.6338 43.0099C33.6338 41.1839 35.114 39.7036 36.9401 39.7036C38.7661 39.7036 40.2464 41.1839 40.2464 43.0099C40.2446 44.8352 38.7654 46.3144 36.9401 46.3162ZM36.9401 40.8057C35.7227 40.8057 34.7359 41.7926 34.7359 43.0099C34.7359 44.2272 35.7227 45.2141 36.9401 45.2141C38.1574 45.2141 39.1443 44.2272 39.1443 43.0099C39.1443 41.7926 38.1574 40.8057 36.9401 40.8057Z" fill="#B76E00"/>
<path d="M40.2467 46.3162C38.4207 46.3162 36.9404 44.8359 36.9404 43.0099C36.9404 41.1839 38.4207 39.7036 40.2467 39.7036C42.0728 39.7036 43.553 41.1839 43.553 43.0099C43.5512 44.8352 42.072 46.3144 40.2467 46.3162ZM40.2467 40.8057C39.0294 40.8057 38.0425 41.7926 38.0425 43.0099C38.0425 44.2272 39.0294 45.2141 40.2467 45.2141C41.4641 45.2141 42.4509 44.2272 42.4509 43.0099C42.4509 41.7926 41.4641 40.8057 40.2467 40.8057Z" fill="#B76E00"/>
<path d="M16 33.0911H45.2056V37.4995H16V33.0911Z" fill="#B76E00"/>
</g>
<defs>
<linearGradient id="paint0_linear_296_2015" x1="43.8414" y1="68.4115" x2="70.1982" y2="12.931" gradientUnits="userSpaceOnUse">
<stop stop-color="#00AB55"/>
<stop offset="1" stop-color="#00AB55" stop-opacity="0.01"/>
</linearGradient>
<clipPath id="clip0_296_2015">
<rect width="64" height="64" fill="white" transform="translate(0 0.00976562)"/>
</clipPath>
</defs>
</svg>
