<svg width="64" height="65" viewBox="0 0 64 65" fill="none" xmlns="http://www.w3.org/2000/svg">
<g clip-path="url(#clip0_296_3263)">
<path d="M58.9345 16.6744C50.7574 10.3878 42.8261 15.5113 33.9795 13.6998C25.069 11.8752 21.5189 5.7998 11.37 8.60417C2.37975 11.0883 -3.07525 21.0481 1.867 29.3864C3.27537 31.7626 5.67462 33.5552 6.65512 36.2138C8.23675 40.5027 5.82925 43.7954 6.29887 48.0103C8.25037 65.5229 34.9956 58.7396 44.8368 53.2909C60.2705 44.7459 70.7115 25.7288 58.9345 16.6744Z" fill="url(#paint0_linear_296_3263)" fill-opacity="0.12"/>
<path opacity="0.24" d="M51.3966 10.3069C50.9324 10.3069 50.4683 10.1302 50.1149 9.77691C49.4083 9.07028 49.4083 7.92041 50.1149 7.21366C50.8216 6.50691 51.9716 6.50691 52.6782 7.21366C53.3848 7.92041 53.3848 9.07016 52.6782 9.77691C52.3249 10.1302 51.8608 10.3069 51.3966 10.3069ZM51.3967 7.93303C51.2526 7.93303 51.1086 7.98778 50.9989 8.09753C50.7797 8.31678 50.7797 8.67366 50.9989 8.89303C51.2182 9.11228 51.5751 9.11241 51.7944 8.89303C52.0137 8.67378 52.0137 8.31691 51.7944 8.09753C51.6847 7.98778 51.5407 7.93303 51.3967 7.93303Z" fill="#00AB55"/>
<path opacity="0.48" d="M54.54 16.4182C54.0759 16.4183 53.6118 16.2416 53.2584 15.8882C52.916 15.5458 52.7275 15.0907 52.7275 14.6066C52.7275 14.1224 52.916 13.6673 53.2584 13.3249C53.9649 12.6183 55.1148 12.6182 55.8215 13.3249C56.1639 13.6673 56.3524 14.1224 56.3524 14.6066C56.3524 15.0908 56.1639 15.5459 55.8214 15.8882C55.4684 16.2414 55.0042 16.4182 54.54 16.4182ZM54.54 14.0443C54.396 14.0443 54.2519 14.0991 54.1423 14.2088C54.0359 14.3151 53.9775 14.4563 53.9775 14.6066C53.9775 14.7568 54.036 14.8981 54.1423 15.0043C54.3617 15.2237 54.7185 15.2237 54.9378 15.0043C55.0442 14.8981 55.1025 14.7568 55.1025 14.6066C55.1025 14.4563 55.044 14.3152 54.9378 14.2088C54.8282 14.0991 54.6842 14.0443 54.54 14.0443Z" fill="#00AB55"/>
<path opacity="0.24" d="M13.1719 29.6049C12.7078 29.6049 12.2436 29.4281 11.8903 29.0749C11.1837 28.3681 11.1837 27.2182 11.8903 26.5116C12.5969 25.8051 13.7469 25.805 14.4536 26.5116C15.1602 27.2184 15.1602 28.3681 14.4536 29.0749C14.1003 29.4281 13.6361 29.6049 13.1719 29.6049ZM13.1719 27.231C13.0279 27.231 12.8838 27.2857 12.7742 27.3955C12.5548 27.6147 12.5548 27.9716 12.7742 28.191C12.9934 28.4104 13.3504 28.4102 13.5697 28.191C13.7891 27.9717 13.7891 27.6149 13.5697 27.3955C13.4601 27.2857 13.3161 27.231 13.1719 27.231Z" fill="#00AB55"/>
<path opacity="0.48" d="M12.3662 35.2225C12.2062 35.2225 12.0463 35.1615 11.9242 35.0395L11.1787 34.294L10.4332 35.0395C10.1891 35.2835 9.79343 35.2835 9.5493 35.0395C9.30518 34.7954 9.30518 34.3997 9.5493 34.1557L10.7368 32.9682C10.9809 32.7242 11.3766 32.7242 11.6207 32.9682L12.8082 34.1557C13.0523 34.3998 13.0523 34.7955 12.8082 35.0395C12.6861 35.1614 12.5262 35.2225 12.3662 35.2225Z" fill="#00AB55"/>
<path opacity="0.48" d="M53.3525 53.3224C53.1925 53.3224 53.0326 53.2614 52.9105 53.1394L52.165 52.3939L51.4195 53.1394C51.1754 53.3834 50.7798 53.3834 50.5356 53.1394C50.2915 52.8953 50.2915 52.4995 50.5356 52.2555L51.7231 51.068C51.9673 50.824 52.3629 50.824 52.607 51.068L53.7945 52.2555C54.0386 52.4996 54.0386 52.8954 53.7945 53.1394C53.6724 53.2612 53.5125 53.3224 53.3525 53.3224Z" fill="#00AB55"/>
<path d="M34.0286 42.5608C39.2047 41.3373 42.4089 36.1494 41.1854 30.9733C39.9618 25.7972 34.7739 22.593 29.5978 23.8166C24.4217 25.0401 21.2175 30.228 22.441 35.4041C23.6645 40.5802 28.8525 43.7844 34.0286 42.5608Z" fill="#FFD666"/>
<path d="M31.8135 23.5647V42.8291C37.1247 42.8291 41.4457 38.5081 41.4457 33.197C41.4457 27.8858 37.1247 23.5647 31.8135 23.5647Z" fill="#FFAB00"/>
<path d="M42.2873 22.7226C39.9941 20.4294 37.0814 18.9815 33.9268 18.5334L34.85 17.6101C35.2161 17.244 35.2161 16.6504 34.85 16.2843C34.4839 15.9182 33.8903 15.9182 33.5242 16.2843L31.15 18.6585C30.7839 19.0246 30.7839 19.6182 31.15 19.9843L33.5241 22.3584C33.7072 22.5415 33.9471 22.6331 34.187 22.6331C34.4269 22.6331 34.6669 22.5415 34.8499 22.3584C35.216 21.9924 35.216 21.3988 34.8499 21.0326L34.321 20.5038C40.2586 21.675 44.7508 26.9208 44.7508 33.1968C44.7509 40.3308 38.9469 46.1348 31.8129 46.1348C24.679 46.1348 18.875 40.3308 18.875 33.1969C18.875 30.4747 19.7104 27.8707 21.2911 25.6664C22.8389 23.5079 24.9726 21.8972 27.4618 21.0086C27.9494 20.8344 28.2036 20.2981 28.0295 19.8104C27.8554 19.3228 27.3189 19.0686 26.8313 19.2427C23.9811 20.2603 21.5384 22.1038 19.7673 24.5738C17.9569 27.0986 17 30.0804 17 33.1969C17 37.1536 18.5408 40.8735 21.3386 43.6713C24.1364 46.4689 27.8563 48.0098 31.8129 48.0098C35.7696 48.0098 39.4894 46.469 42.2873 43.6712C45.0851 40.8734 46.6259 37.1536 46.6259 33.1969C46.6259 29.2402 45.085 25.5203 42.2873 22.7226Z" fill="#00B8D9"/>
<path d="M32.9591 32.2666C32.2175 32.0045 31.3983 31.6885 30.9456 31.3335C30.8323 31.2447 30.784 31.0196 30.828 30.786C30.8511 30.6635 30.9584 30.2543 31.3706 30.1302C32.0961 29.9116 32.5903 30.199 32.7692 30.3326C33.1841 30.6427 33.7715 30.5579 34.0814 30.1431C34.3915 29.7284 34.3066 29.1409 33.8919 28.8309C33.72 28.7024 33.3009 28.4276 32.701 28.2784V28.0269C32.701 27.5091 32.2813 27.0894 31.7635 27.0894C31.2458 27.0894 30.826 27.5091 30.826 28.0269V28.3362C29.8811 28.6224 29.176 29.4276 28.9855 30.4388C28.8093 31.374 29.117 32.2821 29.7886 32.8089C30.4528 33.3298 31.4045 33.7057 32.3341 34.0344C33.0675 34.2935 33.0891 34.8551 33.0367 35.1667C32.9493 35.6869 32.5116 36.2492 31.7573 36.2542C30.9696 36.2593 30.7456 36.2238 30.1511 35.8349C29.7177 35.5513 29.1368 35.6728 28.8533 36.1062C28.5698 36.5395 28.6913 37.1205 29.1246 37.404C29.7712 37.827 30.2558 38.0115 30.826 38.0854V38.3667C30.826 38.8844 31.2458 39.3042 31.7635 39.3042C32.2813 39.3042 32.701 38.8844 32.701 38.3667V37.9895C33.1428 37.8552 33.5465 37.6256 33.8944 37.306C34.4161 36.8267 34.7681 36.1773 34.8858 35.4775C35.1259 34.0492 34.3516 32.7589 32.9591 32.2666Z" fill="#B76E00"/>
<path d="M33.9273 18.5334L34.8505 17.6101C35.2166 17.244 35.2166 16.6504 34.8505 16.2843C34.4844 15.9182 33.8908 15.9182 33.5247 16.2843L31.1506 18.6585C30.7844 19.0246 30.7844 19.6182 31.1506 19.9843L33.5247 22.3584C33.7078 22.5415 33.9477 22.6331 34.1876 22.6331C34.4274 22.6331 34.6674 22.5415 34.8504 22.3584C35.2166 21.9924 35.2166 21.3988 34.8504 21.0326L34.3216 20.5038C40.2592 21.675 44.7513 26.9208 44.7513 33.1968C44.7515 40.3308 38.9474 46.1348 31.8135 46.1348V48.0098C35.7702 48.0098 39.49 46.469 42.2878 43.6712C45.0856 40.8734 46.6265 37.1536 46.6265 33.1969C46.6265 29.2402 45.0856 25.5204 42.2878 22.7226C39.9947 20.4294 37.0819 18.9814 33.9273 18.5334Z" fill="#00B8D9"/>
<path d="M32.9581 32.2668C32.5769 32.1321 32.1754 31.983 31.8135 31.8218V33.8455C31.9862 33.9106 32.16 33.9735 32.3332 34.0346C33.0665 34.2938 33.0881 34.8554 33.0357 35.167C32.9505 35.6737 32.5322 36.2188 31.8135 36.2515V39.3019C32.3074 39.2753 32.7 38.8675 32.7 38.367V37.9898C33.1418 37.8555 33.5455 37.6259 33.8934 37.3063C34.4151 36.827 34.7671 36.1776 34.8848 35.4778C35.1249 34.0495 34.3507 32.7591 32.9581 32.2668Z" fill="#B76E00"/>
<path d="M31.8135 27.092V30.0535C32.2967 30.0319 32.6287 30.2285 32.7682 30.3328C33.1831 30.6429 33.7705 30.558 34.0804 30.1433C34.3905 29.7285 34.3056 29.1411 33.8909 28.8311C33.7191 28.7026 33.2999 28.4278 32.7 28.2786V28.027C32.7 27.5264 32.3074 27.1187 31.8135 27.092Z" fill="#B76E00"/>
</g>
<defs>
<linearGradient id="paint0_linear_296_3263" x1="43.8414" y1="68.4115" x2="70.1982" y2="12.931" gradientUnits="userSpaceOnUse">
<stop stop-color="#00AB55"/>
<stop offset="1" stop-color="#00AB55" stop-opacity="0.01"/>
</linearGradient>
<clipPath id="clip0_296_3263">
<rect width="64" height="64" fill="white" transform="translate(0 0.00976562)"/>
</clipPath>
</defs>
</svg>
