<svg width="24" height="25" viewBox="0 0 24 25" fill="none" xmlns="http://www.w3.org/2000/svg">
<path d="M17.4333 8.5582C18.5539 7.82172 19.2952 6.55371 19.2952 5.11598C19.2952 2.84637 17.4484 1 15.1788 1H8.11641C5.8468 1 4 2.84637 4 5.11598C4 6.55371 4.74121 7.82172 5.86184 8.5582C4.74121 9.29426 4 10.5623 4 12C4 13.4377 4.74121 14.7057 5.86184 15.4422C4.74121 16.1779 4 17.4463 4 18.884C4 21.1536 5.85668 23 8.13832 23C10.4449 23 12.3218 21.1334 12.3218 18.8393V15.0435C13.0531 15.7099 14.0246 16.116 15.0894 16.116H15.1788C17.4484 16.116 19.2952 14.2696 19.2952 12C19.2952 10.5623 18.5539 9.29426 17.4333 8.5582ZM12.3218 2.34836H15.1788C16.705 2.34836 17.9468 3.58973 17.9468 5.11598C17.9468 6.64223 16.705 7.88402 15.1788 7.88402H12.3218V2.34836ZM5.34836 5.11598C5.34836 3.58973 6.59016 2.34836 8.11641 2.34836H10.9734V7.88402H8.11641C6.59016 7.88402 5.34836 6.64223 5.34836 5.11598ZM5.34836 12C5.34836 10.4737 6.59016 9.23238 8.11641 9.23238H10.9734V14.768H8.09879C6.5807 14.7586 5.34836 13.5202 5.34836 12ZM10.9734 18.8393C10.9734 20.3901 9.70152 21.6516 8.13832 21.6516C6.60004 21.6516 5.34836 20.4103 5.34836 18.884C5.34836 17.3578 6.59016 16.116 8.11641 16.116H10.9734V18.8393ZM15.1788 14.768H15.0894C13.5631 14.768 12.3218 13.5263 12.3218 12C12.3218 10.4737 13.5631 9.23238 15.0894 9.23238H15.1788C16.705 9.23238 17.9468 10.4737 17.9468 12C17.9468 13.5263 16.705 14.768 15.1788 14.768Z" fill="#212B36"/>
</svg>
