<svg width="24" height="25" viewBox="0 0 24 25" fill="none" xmlns="http://www.w3.org/2000/svg">
<path d="M11.2796 1.00592C11.2323 1.01022 11.0817 1.02527 10.9462 1.03602C7.82151 1.3177 4.89462 3.00348 3.04086 5.59449C2.0086 7.03514 1.34839 8.66931 1.09892 10.4002C1.01075 11.0045 1 11.1829 1 12.0022C1 12.8214 1.01075 12.9999 1.09892 13.6041C1.69677 17.7346 4.63656 21.2051 8.62366 22.4909C9.33763 22.721 10.0903 22.878 10.9462 22.9726C11.2796 23.0091 12.7204 23.0091 13.0538 22.9726C14.5312 22.8092 15.7828 22.4436 17.0172 21.8136C17.2065 21.7169 17.243 21.6911 17.2172 21.6695C17.2 21.6566 16.3935 20.5751 15.4258 19.2678L13.6667 16.8918L11.4624 13.6299C10.2495 11.8366 9.25161 10.3701 9.24301 10.3701C9.23441 10.368 9.22581 11.8172 9.22151 13.5869C9.21505 16.6853 9.2129 16.81 9.17419 16.8832C9.11828 16.9885 9.07527 17.0315 8.98495 17.0788C8.91613 17.1132 8.85591 17.1197 8.53118 17.1197H8.15914L8.06021 17.0573C7.9957 17.0165 7.94839 16.9627 7.91613 16.9004L7.87097 16.8036L7.87527 12.4924L7.88172 8.17906L7.94839 8.0952C7.9828 8.05005 8.05591 7.99199 8.10753 7.96404C8.1957 7.92103 8.23011 7.91673 8.60215 7.91673C9.04086 7.91673 9.11398 7.93393 9.22796 8.05865C9.26021 8.09305 10.4538 9.89064 11.8817 12.0559C13.3097 14.2212 15.2624 17.1777 16.2215 18.6291L17.9634 21.2675L18.0516 21.2094C18.8323 20.7019 19.6581 19.9795 20.3118 19.2269C21.7032 17.6293 22.6 15.6812 22.9011 13.6041C22.9892 12.9999 23 12.8214 23 12.0022C23 11.1829 22.9892 11.0045 22.9011 10.4002C22.3032 6.26966 19.3634 2.79921 15.3763 1.51337C14.6731 1.28545 13.9247 1.12848 13.086 1.03387C12.8796 1.01237 11.4581 0.988719 11.2796 1.00592ZM15.7828 7.65871C15.886 7.71031 15.9699 7.80922 16 7.91243C16.0172 7.96834 16.0215 9.16386 16.0172 11.8581L16.0108 15.7242L15.329 14.6792L14.6452 13.6342V10.8238C14.6452 9.0069 14.6538 7.98554 14.6667 7.93608C14.7011 7.81567 14.7763 7.72106 14.8796 7.66516C14.9677 7.62 15 7.6157 15.3376 7.6157C15.6559 7.6157 15.7118 7.62 15.7828 7.65871Z" fill="#212B36"/>
</svg>
