<svg width="24" height="25" viewBox="0 0 24 25" fill="none" xmlns="http://www.w3.org/2000/svg">
<path fill-rule="evenodd" clip-rule="evenodd" d="M12.0404 2.30129C12.0791 2.29898 12.1183 2.29987 12.1578 2.30415L17.8258 2.91937C18.1325 2.95266 18.3766 3.18134 18.4363 3.47583L20.4639 6.20281L22.5697 9.15612C22.7559 9.41719 22.7409 9.77138 22.5333 10.0158L12.5333 21.7868C12.4003 21.9434 12.2052 22.0336 11.9998 22.0336C11.7944 22.0336 11.5993 21.9434 11.4663 21.7868L1.46633 10.0158C1.25876 9.77142 1.2437 9.4173 1.42979 9.15624L3.53484 6.20301L3.5432 6.19153L5.74547 3.23086C5.85711 3.06116 6.0408 2.94261 6.25498 2.91937L11.923 2.30415C11.9624 2.29987 12.0017 2.29898 12.0404 2.30129ZM3.51298 10.2625L8.71199 16.3823L5.61775 10.2625H3.51298ZM7.18653 10.2625L11.9998 19.7822L16.8128 10.2625H7.18653ZM18.3815 10.2625L15.2872 16.3828L20.4866 10.2625H18.3815ZM10.2417 3.89521L7.00658 4.24636L6.86889 7.61422L10.2417 3.89521ZM5.51994 5.91891L3.37578 8.86247L5.37968 8.86237L5.51994 5.91891ZM16.3712 8.86254H7.62808L11.9998 4.04227L16.3712 8.86254ZM16.9929 4.24635L13.8479 3.90498L17.1263 7.51983L16.9929 4.24635ZM20.6238 8.86247L18.5665 6.03811L18.7011 8.86238L20.6238 8.86247Z" fill="#212B36"/>
</svg>
