<svg width="24" height="25" viewBox="0 0 24 25" fill="none" xmlns="http://www.w3.org/2000/svg">
<g clip-path="url(#clip0_1255_158111)">
<path fill-rule="evenodd" clip-rule="evenodd" d="M6.14751 0.00976563H14.1777L20.9753 7.10172V20.8876C20.9753 22.6121 19.5776 24.0098 17.8531 24.0098H6.14751C4.42305 24.0098 3.02539 22.6121 3.02539 20.8876V3.13189C3.02539 1.40746 4.42305 0.00976562 6.14751 0.00976562V0.00976563Z" fill="#FF5630"/>
<path opacity="0.4" fill-rule="evenodd" clip-rule="evenodd" d="M14.168 0.00976562V7.04346H20.9752L14.168 0.00976562Z" fill="white"/>
<path d="M8.73194 17.9174H9.9452C9.97755 17.9174 10.0067 17.8947 10.0132 17.8656L10.369 16.5877H11.7441L12.1259 17.8656C12.1356 17.8947 12.1647 17.9174 12.197 17.9174H13.4556C13.4976 17.9174 13.53 17.885 13.53 17.8462C13.53 17.8333 13.5268 17.8236 13.5235 17.8139L11.9188 12.6437C11.9091 12.6146 11.8832 12.5952 11.8508 12.5952H10.314C10.2817 12.5952 10.2526 12.6146 10.2461 12.6437L8.66074 17.8236C8.65428 17.8462 8.66074 17.8689 8.67368 17.8883C8.68666 17.9044 8.70932 17.9174 8.73194 17.9174ZM14.6397 13.6984C15.0474 13.6984 15.3418 13.4234 15.3418 13.0417C15.3321 12.6502 15.0474 12.3784 14.6462 12.3784C14.4424 12.3784 14.2612 12.4496 14.135 12.5758C14.0186 12.6955 13.9571 12.8637 13.9603 13.0417C13.9571 13.2164 14.0186 13.3781 14.1383 13.4979C14.2612 13.6273 14.4391 13.6984 14.6397 13.6984ZM14.0639 14.0155C14.0218 14.0155 13.9894 14.0479 13.9894 14.0867V17.8462C13.9894 17.885 14.0218 17.9174 14.0639 17.9174H15.2318C15.2706 17.9174 15.303 17.885 15.303 17.8462V14.0867C15.303 14.0479 15.2706 14.0155 15.2318 14.0155H14.0639ZM11.5306 15.5685H10.5794L10.8608 14.5591C10.9093 14.3779 10.9579 14.1643 11.0064 13.9573C11.0161 13.9088 11.0258 13.8635 11.0388 13.8149C11.1002 14.064 11.1682 14.3326 11.2361 14.5623L11.5306 15.5685Z" fill="white"/>
</g>
<defs>
<clipPath id="clip0_1255_158111">
<rect width="24" height="24" fill="white" transform="translate(0 0.00976562)"/>
</clipPath>
</defs>
</svg>
