<svg width="24" height="25" viewBox="0 0 24 25" fill="none" xmlns="http://www.w3.org/2000/svg">
<path fill-rule="evenodd" clip-rule="evenodd" d="M6.14461 0.00976563H14.1767L20.9738 7.10466V20.8828C20.9738 22.6083 19.5811 24.0098 17.8556 24.0098H6.14461C4.42782 24.0098 3.02637 22.6083 3.02637 20.8828V3.12801C3.02634 1.41122 4.42782 0.00976562 6.14461 0.00976562V0.00976563Z" fill="#1B806A"/>
<path opacity="0.4" fill-rule="evenodd" clip-rule="evenodd" d="M14.168 0.00976562V7.04334H20.9738L14.168 0.00976562Z" fill="white"/>
<path d="M10.4895 17.4842H9.32452L8.52745 16.1441L7.73036 17.4842H6.55664L7.94059 15.1543L6.72309 13.1309H7.89678L8.52742 14.182L9.14931 13.1309H10.323L9.11425 15.163L10.4895 17.4842ZM10.9012 17.4842V13.1309H12.0136V16.5382H13.9055V17.4842H10.9012V17.4842ZM15.7449 17.5367C15.307 17.5367 14.9216 17.3966 14.5888 17.1251C14.2647 16.8623 14.0807 16.5294 14.0544 16.1353L15.0092 15.855C15.0355 16.0652 15.1231 16.2492 15.272 16.3893C15.4296 16.5295 15.6048 16.5995 15.7975 16.5995C15.9552 16.5995 16.0866 16.5645 16.1917 16.4944C16.288 16.4243 16.3406 16.328 16.3406 16.2141C16.3406 16.1178 16.2968 16.039 16.2179 15.9689C16.1391 15.9076 16.034 15.855 15.9114 15.8112C15.7887 15.7674 15.6398 15.7236 15.4909 15.6886C15.3333 15.6448 15.1756 15.5923 15.0267 15.5222C14.869 15.4609 14.7289 15.382 14.6063 15.2857C14.4749 15.1981 14.3785 15.0667 14.2997 14.9003C14.2208 14.7426 14.177 14.5499 14.177 14.3309C14.177 13.9718 14.3259 13.674 14.6325 13.4375C14.9391 13.1922 15.307 13.0784 15.7362 13.0784C16.1654 13.0784 16.542 13.1835 16.8573 13.3849C17.1727 13.5952 17.3741 13.8667 17.4529 14.1995L16.4544 14.62C16.4106 14.436 16.323 14.2871 16.2004 14.1733C16.0777 14.0682 15.9201 14.0069 15.7362 14.0069C15.596 14.0069 15.4909 14.0419 15.4033 14.0945C15.3245 14.147 15.2894 14.2259 15.2894 14.3222C15.2894 14.4098 15.342 14.4886 15.4471 14.5499C15.5522 14.6025 15.6924 14.6463 15.85 14.6726C16.0077 14.6989 16.1829 14.7426 16.3668 14.804C16.5595 14.874 16.7259 14.9441 16.8923 15.0404C17.05 15.1281 17.1814 15.2769 17.2865 15.4697C17.4004 15.6711 17.4529 15.9076 17.4529 16.1791C17.4529 16.5821 17.2953 16.9149 16.9799 17.1602C16.6646 17.4054 16.253 17.5367 15.7449 17.5367Z" fill="white"/>
</svg>
