<svg width="24" height="25" viewBox="0 0 24 25" fill="none" xmlns="http://www.w3.org/2000/svg">
<g clip-path="url(#clip0_1255_158101)">
<path fill-rule="evenodd" clip-rule="evenodd" d="M6.14401 0.00976563H14.1763L20.9761 7.10035V20.8892C20.9761 22.611 19.5774 24.0098 17.8509 24.0098H6.14404C4.42216 24.0098 3.02344 22.611 3.02344 20.8892V3.13037C3.02341 1.40849 4.42213 0.00976562 6.14401 0.00976562V0.00976563Z" fill="#3366FF"/>
<path fill-rule="evenodd" clip-rule="evenodd" d="M9.7445 17.7641V15.9638C9.84145 15.973 9.95222 15.9776 10.0769 15.9776C10.8339 15.9776 11.4433 15.7791 11.8403 15.4006C12.1681 15.0913 12.3481 14.6251 12.3481 14.0942C12.3481 13.5818 12.1358 13.1156 11.7572 12.8155C11.3879 12.5201 10.8478 12.377 10.1 12.377C9.45372 12.377 8.90899 12.4139 8.47505 12.4878C8.44272 12.497 8.41504 12.5247 8.41504 12.5616V17.7642C8.41504 17.8057 8.44736 17.838 8.48891 17.838H9.67066C9.71218 17.838 9.7445 17.8057 9.7445 17.7641ZM14.49 15.3544C14.0053 15.1836 13.9222 15.1051 13.9222 14.9851C13.9222 14.7774 14.1622 14.7497 14.3007 14.7497C14.6054 14.7497 14.9193 14.8605 15.0947 14.9574C15.1178 14.9666 15.1409 14.9713 15.1594 14.962C15.1824 14.9528 15.1963 14.9343 15.2009 14.9112L15.4133 14.0895C15.4225 14.0572 15.4086 14.0203 15.3763 14.0064C15.1547 13.8956 14.7485 13.7803 14.2638 13.7803C13.3036 13.7803 12.6343 14.325 12.6343 15.1051C12.625 15.4837 12.8189 16.0053 13.7699 16.3238C14.2315 16.4808 14.2823 16.5593 14.2823 16.6931C14.2823 16.7532 14.2823 16.9424 13.8483 16.9424C13.5206 16.9424 13.082 16.7947 12.8604 16.6608C12.842 16.6516 12.8189 16.647 12.7958 16.6562C12.7727 16.6655 12.7589 16.6839 12.7543 16.707L12.5419 17.561C12.5327 17.5934 12.5465 17.6257 12.5788 17.6441C12.902 17.8149 13.3636 17.9165 13.8483 17.9165C14.9147 17.9165 15.5794 17.4133 15.5794 16.6055C15.5702 15.9961 15.2379 15.6129 14.49 15.3544ZM9.7445 14.8974V13.4572C9.81837 13.4433 9.95222 13.4248 10.1646 13.4248C10.7093 13.4248 11.0232 13.6833 11.0232 14.1265C11.0232 14.6204 10.6677 14.9159 10.0676 14.9159C9.92453 14.9159 9.82298 14.9067 9.7445 14.8974Z" fill="white"/>
<path opacity="0.4" fill-rule="evenodd" clip-rule="evenodd" d="M14.167 0.00976562V7.04498H20.976L14.167 0.00976562Z" fill="white"/>
</g>
<defs>
<clipPath id="clip0_1255_158101">
<rect width="24" height="24" fill="white" transform="translate(0 0.00976562)"/>
</clipPath>
</defs>
</svg>
