<svg width="24" height="25" viewBox="0 0 24 25" fill="none" xmlns="http://www.w3.org/2000/svg">
<path fill-rule="evenodd" clip-rule="evenodd" d="M6.12443 0.00976563H14.1484L20.949 7.09823V20.8853C20.949 22.6125 19.5517 24.0098 17.8306 24.0098H6.12443C4.3973 24.0098 3 22.6125 3 20.8853V3.13419C2.99997 1.40706 4.39727 0.00976562 6.12443 0.00976562V0.00976563Z" fill="#FF5630"/>
<path opacity="0.4" fill-rule="evenodd" clip-rule="evenodd" d="M14.1426 0.00976562V7.04425H20.9492L14.1426 0.00976562Z" fill="white"/>
<path d="M11.9777 10.9004C9.83679 10.9004 8.09766 12.6395 8.09766 14.7805C8.09766 16.9214 9.83679 18.6545 11.9777 18.6545C14.1187 18.6545 15.8518 16.9214 15.8518 14.7804C15.8518 12.6395 14.1127 10.9064 11.9777 10.9004ZM13.6089 14.9004C13.5789 14.9544 13.537 14.9963 13.483 15.0263L11.2701 16.1358C11.1321 16.2017 10.9642 16.1478 10.8983 16.0098C10.8743 15.9738 10.8683 15.9319 10.8683 15.8839V13.671C10.8683 13.5151 10.9942 13.3951 11.1442 13.3951C11.1861 13.3951 11.2281 13.4011 11.2701 13.4251L13.483 14.5286C13.6209 14.6005 13.6749 14.7624 13.6089 14.9004Z" fill="white"/>
</svg>
