<svg width="24" height="25" viewBox="0 0 24 25" fill="none" xmlns="http://www.w3.org/2000/svg">
<g clip-path="url(#clip0_1255_158078)">
<path fill-rule="evenodd" clip-rule="evenodd" d="M6.14621 0.00976562H14.1733L20.9756 7.09983V20.8889C20.9756 22.608 19.5738 24.0098 17.8548 24.0098H6.14621C4.41981 24.0098 3.02539 22.608 3.02539 20.8889V3.13058C3.02539 1.40418 4.41981 0.00976563 6.14621 0.00976563V0.00976562Z" fill="#FFAB00"/>
<path opacity="0.4" fill-rule="evenodd" clip-rule="evenodd" d="M14.165 0.00976562V7.04082H20.9747L14.165 0.00976562Z" fill="white"/>
<path d="M9.63548 12.4783V10.8404C9.63548 10.6633 9.49529 10.5231 9.31823 10.5231H8.43289C8.25583 10.5231 8.11564 10.6633 8.11564 10.8404V12.4783L7.62133 13.9243C7.48114 14.3301 7.54755 14.7802 7.79839 15.1269C8.04186 15.4737 8.44763 15.6802 8.87556 15.6802C9.30349 15.6802 9.70189 15.4737 9.95273 15.1269C10.2036 14.7802 10.27 14.3301 10.1298 13.9243L9.63548 12.4783ZM9.42891 14.7506C9.17807 15.1122 8.57308 15.1122 8.31487 14.7506C8.18945 14.5736 8.15255 14.3375 8.22632 14.1309L8.38865 13.644H9.35513L9.52483 14.1309C9.59124 14.3375 9.5617 14.5736 9.42891 14.7506ZM6.91309 1.7288V2.62891C6.91309 2.80597 7.05327 2.94616 7.23034 2.94616H8.43292V4.28893H7.23034C7.05327 4.28893 6.91309 4.42912 6.91309 4.60618V5.29969C6.91309 5.47675 7.05327 5.62431 7.23034 5.62431H8.43292V6.95968H7.23034C7.05327 6.95968 6.91309 7.09987 6.91309 7.27693V7.97781C6.91309 8.15487 7.05327 8.29506 7.23034 8.29506H8.43292V9.31318C8.43292 9.49025 8.58048 9.63043 8.75754 9.63043H10.5208C10.6905 9.63043 10.8381 9.49025 10.8381 9.31318V8.61231C10.8381 8.44261 10.6905 8.29506 10.5208 8.29506H9.31089V6.95968H10.5208C10.6905 6.95968 10.8381 6.8195 10.8381 6.64243V5.94156C10.8381 5.7645 10.6905 5.62431 10.5208 5.62431H9.31089V4.28893H10.5208C10.6905 4.28893 10.8381 4.14138 10.8381 3.96432V3.27081C10.8381 3.09375 10.6905 2.94619 10.5208 2.94619H9.31089V1.72144C9.31086 1.72144 6.91309 1.7288 6.91309 1.7288Z" fill="white"/>
</g>
<defs>
<clipPath id="clip0_1255_158078">
<rect width="24" height="24" fill="white" transform="translate(0 0.00976562)"/>
</clipPath>
</defs>
</svg>
