<svg width="64" height="65" viewBox="0 0 64 65" fill="none" xmlns="http://www.w3.org/2000/svg">
<g clip-path="url(#clip0_296_3265)">
<path d="M58.9345 16.6744C50.7574 10.3878 42.8261 15.5113 33.9795 13.6998C25.069 11.8752 21.5189 5.7998 11.37 8.60417C2.37975 11.0883 -3.07525 21.0481 1.867 29.3864C3.27537 31.7626 5.67462 33.5552 6.65512 36.2138C8.23675 40.5027 5.82925 43.7954 6.29887 48.0103C8.25037 65.5229 34.9956 58.7396 44.8368 53.2909C60.2705 44.7459 70.7115 25.7288 58.9345 16.6744Z" fill="url(#paint0_linear_296_3265)" fill-opacity="0.12"/>
<path opacity="0.24" d="M51.3966 10.3069C50.9324 10.3069 50.4683 10.1302 50.1149 9.77691C49.4083 9.07028 49.4083 7.92041 50.1149 7.21366C50.8216 6.50691 51.9716 6.50691 52.6782 7.21366C53.3848 7.92041 53.3848 9.07016 52.6782 9.77691C52.3249 10.1302 51.8608 10.3069 51.3966 10.3069ZM51.3967 7.93303C51.2526 7.93303 51.1086 7.98778 50.9989 8.09753C50.7797 8.31678 50.7797 8.67366 50.9989 8.89303C51.2182 9.11228 51.5751 9.11241 51.7944 8.89303C52.0137 8.67378 52.0137 8.31691 51.7944 8.09753C51.6847 7.98778 51.5407 7.93303 51.3967 7.93303Z" fill="#00AB55"/>
<path opacity="0.48" d="M54.54 16.4182C54.0759 16.4183 53.6118 16.2416 53.2584 15.8882C52.916 15.5458 52.7275 15.0907 52.7275 14.6066C52.7275 14.1224 52.916 13.6673 53.2584 13.3249C53.9649 12.6183 55.1148 12.6182 55.8215 13.3249C56.1639 13.6673 56.3524 14.1224 56.3524 14.6066C56.3524 15.0908 56.1639 15.5459 55.8214 15.8882C55.4684 16.2414 55.0042 16.4182 54.54 16.4182ZM54.54 14.0443C54.396 14.0443 54.2519 14.0991 54.1423 14.2088C54.0359 14.3151 53.9775 14.4563 53.9775 14.6066C53.9775 14.7568 54.036 14.8981 54.1423 15.0043C54.3617 15.2237 54.7185 15.2237 54.9378 15.0043C55.0442 14.8981 55.1025 14.7568 55.1025 14.6066C55.1025 14.4563 55.044 14.3152 54.9378 14.2088C54.8282 14.0991 54.6842 14.0443 54.54 14.0443Z" fill="#00AB55"/>
<path opacity="0.24" d="M13.1719 29.6049C12.7078 29.6049 12.2436 29.4281 11.8903 29.0749C11.1837 28.3681 11.1837 27.2182 11.8903 26.5116C12.5969 25.8051 13.7469 25.805 14.4536 26.5116C15.1602 27.2184 15.1602 28.3681 14.4536 29.0749C14.1003 29.4281 13.6361 29.6049 13.1719 29.6049ZM13.1719 27.231C13.0279 27.231 12.8838 27.2857 12.7742 27.3955C12.5548 27.6147 12.5548 27.9716 12.7742 28.191C12.9934 28.4104 13.3504 28.4102 13.5697 28.191C13.7891 27.9717 13.7891 27.6149 13.5697 27.3955C13.4601 27.2857 13.3161 27.231 13.1719 27.231Z" fill="#00AB55"/>
<path opacity="0.48" d="M12.3662 35.2225C12.2062 35.2225 12.0463 35.1615 11.9242 35.0395L11.1787 34.294L10.4332 35.0395C10.1891 35.2835 9.79343 35.2835 9.5493 35.0395C9.30518 34.7954 9.30518 34.3997 9.5493 34.1557L10.7368 32.9682C10.9809 32.7242 11.3766 32.7242 11.6207 32.9682L12.8082 34.1557C13.0523 34.3998 13.0523 34.7955 12.8082 35.0395C12.6861 35.1614 12.5262 35.2225 12.3662 35.2225Z" fill="#00AB55"/>
<path opacity="0.48" d="M53.3525 53.3224C53.1925 53.3224 53.0326 53.2614 52.9105 53.1394L52.165 52.3939L51.4195 53.1394C51.1754 53.3834 50.7798 53.3834 50.5356 53.1394C50.2915 52.8953 50.2915 52.4995 50.5356 52.2555L51.7231 51.068C51.9673 50.824 52.3629 50.824 52.607 51.068L53.7945 52.2555C54.0386 52.4996 54.0386 52.8954 53.7945 53.1394C53.6724 53.2612 53.5125 53.3224 53.3525 53.3224Z" fill="#00AB55"/>
<path d="M47.9999 34.7174L43.3129 29.6109C42.9684 29.2353 42.482 29.0214 41.9724 29.0215H36.1535L36.1533 43.0027H38.3791C38.3791 41.2442 39.8046 39.8187 41.5631 39.8187C43.3216 39.8187 44.7471 41.2442 44.7471 43.0027H46.18C46.6627 43.0028 47.1255 42.8111 47.4668 42.4698C47.8081 42.1285 47.9998 41.6656 47.9997 41.183L47.9999 34.7174Z" fill="#FFAB00"/>
<circle cx="41.5629" cy="43.0029" r="3.18402" fill="#B76E00"/>
<path fill-rule="evenodd" clip-rule="evenodd" d="M36.1533 34.7175V43.0028H26.4626C26.4626 41.2441 25.0369 39.8184 23.2782 39.8184C21.5195 39.8184 20.0938 41.2441 20.0938 43.0028H17.8197C17.337 43.0029 16.8741 42.8112 16.5329 42.4699C16.1916 42.1286 15.9999 41.6658 16 41.1831V25.991C15.9999 25.5084 16.1916 25.0455 16.5329 24.7043C16.8741 24.363 17.337 24.1713 17.8197 24.1714H19.7936C19.907 27.3796 22.5408 29.9218 25.751 29.9218C28.9613 29.9218 31.595 27.3796 31.7085 24.1714H34.3336C35.3386 24.1715 36.1532 24.9861 36.1533 25.991V34.7175Z" fill="#FFD666"/>
<path fill-rule="evenodd" clip-rule="evenodd" d="M31.7124 23.971C31.7124 24.038 31.7117 24.1051 31.7087 24.1714C31.5952 27.3797 28.9615 29.9219 25.7512 29.9219C22.541 29.9219 19.9072 27.3797 19.7938 24.1714C19.7908 24.1051 19.79 24.038 19.79 23.971C19.79 20.6787 22.459 18.0098 25.7512 18.0098C29.0435 18.0098 31.7124 20.6787 31.7124 23.971Z" fill="#61F3F3" stroke="#61F3F3"/>
<path fill-rule="evenodd" clip-rule="evenodd" d="M23.2778 39.8188C25.0363 39.8188 26.4618 41.2444 26.4618 43.0029C26.4618 44.7614 25.0363 46.1869 23.2778 46.1869C21.5193 46.1869 20.0938 44.7614 20.0938 43.0029C20.0938 41.2444 21.5193 39.8189 23.2778 39.8188Z" fill="#B76E00"/>
<path fill-rule="evenodd" clip-rule="evenodd" d="M27.7405 26.3554C27.6081 26.3556 27.4806 26.3052 27.3841 26.2146L25.3945 24.3517C25.2892 24.2531 25.2295 24.1152 25.2295 23.9709V20.1051C25.2295 19.817 25.463 19.5835 25.7511 19.5835C26.0392 19.5835 26.2727 19.817 26.2727 20.1051V23.7452L28.0971 25.4534C28.2534 25.5997 28.3044 25.8267 28.2257 26.0259C28.1471 26.225 27.9547 26.3558 27.7406 26.3558L27.7405 26.3554Z" fill="#006C9C"/>
</g>
<defs>
<linearGradient id="paint0_linear_296_3265" x1="43.8414" y1="68.4115" x2="70.1982" y2="12.931" gradientUnits="userSpaceOnUse">
<stop stop-color="#00AB55"/>
<stop offset="1" stop-color="#00AB55" stop-opacity="0.01"/>
</linearGradient>
<clipPath id="clip0_296_3265">
<rect width="64" height="64" fill="white" transform="translate(0 0.00976562)"/>
</clipPath>
</defs>
</svg>
