<svg width="64" height="65" viewBox="0 0 64 65" fill="none" xmlns="http://www.w3.org/2000/svg">
<g clip-path="url(#clip0_296_3264)">
<path d="M58.9345 16.6744C50.7574 10.3878 42.8261 15.5113 33.9795 13.6998C25.069 11.8752 21.5189 5.7998 11.37 8.60417C2.37975 11.0883 -3.07525 21.0481 1.867 29.3864C3.27537 31.7626 5.67462 33.5552 6.65512 36.2138C8.23675 40.5027 5.82925 43.7954 6.29887 48.0103C8.25037 65.5229 34.9956 58.7396 44.8368 53.2909C60.2705 44.7459 70.7115 25.7288 58.9345 16.6744Z" fill="url(#paint0_linear_296_3264)" fill-opacity="0.12"/>
<path opacity="0.24" d="M51.3966 10.3069C50.9324 10.3069 50.4683 10.1302 50.1149 9.77691C49.4083 9.07028 49.4083 7.92041 50.1149 7.21366C50.8216 6.50691 51.9716 6.50691 52.6782 7.21366C53.3848 7.92041 53.3848 9.07016 52.6782 9.77691C52.3249 10.1302 51.8608 10.3069 51.3966 10.3069ZM51.3967 7.93303C51.2526 7.93303 51.1086 7.98778 50.9989 8.09753C50.7797 8.31678 50.7797 8.67366 50.9989 8.89303C51.2182 9.11228 51.5751 9.11241 51.7944 8.89303C52.0137 8.67378 52.0137 8.31691 51.7944 8.09753C51.6847 7.98778 51.5407 7.93303 51.3967 7.93303Z" fill="#00AB55"/>
<path opacity="0.48" d="M54.54 16.4182C54.0759 16.4183 53.6118 16.2416 53.2584 15.8882C52.916 15.5458 52.7275 15.0907 52.7275 14.6066C52.7275 14.1224 52.916 13.6673 53.2584 13.3249C53.9649 12.6183 55.1148 12.6182 55.8215 13.3249C56.1639 13.6673 56.3524 14.1224 56.3524 14.6066C56.3524 15.0908 56.1639 15.5459 55.8214 15.8882C55.4684 16.2414 55.0042 16.4182 54.54 16.4182ZM54.54 14.0443C54.396 14.0443 54.2519 14.0991 54.1423 14.2088C54.0359 14.3151 53.9775 14.4563 53.9775 14.6066C53.9775 14.7568 54.036 14.8981 54.1423 15.0043C54.3617 15.2237 54.7185 15.2237 54.9378 15.0043C55.0442 14.8981 55.1025 14.7568 55.1025 14.6066C55.1025 14.4563 55.044 14.3152 54.9378 14.2088C54.8282 14.0991 54.6842 14.0443 54.54 14.0443Z" fill="#00AB55"/>
<path opacity="0.24" d="M13.1719 29.6049C12.7078 29.6049 12.2436 29.4281 11.8903 29.0749C11.1837 28.3681 11.1837 27.2182 11.8903 26.5116C12.5969 25.8051 13.7469 25.805 14.4536 26.5116C15.1602 27.2184 15.1602 28.3681 14.4536 29.0749C14.1003 29.4281 13.6361 29.6049 13.1719 29.6049ZM13.1719 27.231C13.0279 27.231 12.8838 27.2857 12.7742 27.3955C12.5548 27.6147 12.5548 27.9716 12.7742 28.191C12.9934 28.4104 13.3504 28.4102 13.5697 28.191C13.7891 27.9717 13.7891 27.6149 13.5697 27.3955C13.4601 27.2857 13.3161 27.231 13.1719 27.231Z" fill="#00AB55"/>
<path opacity="0.48" d="M12.3662 35.2225C12.2062 35.2225 12.0463 35.1615 11.9242 35.0395L11.1787 34.294L10.4332 35.0395C10.1891 35.2835 9.79343 35.2835 9.5493 35.0395C9.30518 34.7954 9.30518 34.3997 9.5493 34.1557L10.7368 32.9682C10.9809 32.7242 11.3766 32.7242 11.6207 32.9682L12.8082 34.1557C13.0523 34.3998 13.0523 34.7955 12.8082 35.0395C12.6861 35.1614 12.5262 35.2225 12.3662 35.2225Z" fill="#00AB55"/>
<path opacity="0.48" d="M53.3525 53.3224C53.1925 53.3224 53.0326 53.2614 52.9105 53.1394L52.165 52.3939L51.4195 53.1394C51.1754 53.3834 50.7798 53.3834 50.5356 53.1394C50.2915 52.8953 50.2915 52.4995 50.5356 52.2555L51.7231 51.068C51.9673 50.824 52.3629 50.824 52.607 51.068L53.7945 52.2555C54.0386 52.4996 54.0386 52.8954 53.7945 53.1394C53.6724 53.2612 53.5125 53.3224 53.3525 53.3224Z" fill="#00AB55"/>
<path d="M48 25.3728V38.645C48 39.4853 47.5333 40.2395 46.7823 40.615L32.6461 47.7781C32.3381 47.9311 32.0013 48.008 31.6652 48.008H31.6514C31.3053 48.0055 30.9598 47.9231 30.6462 47.7593L30.6406 47.7562L17.1814 40.6131C16.4529 40.2313 16 39.4841 16 38.6613V25.3566C16 24.9811 16.0937 24.6225 16.2649 24.3063C16.4699 23.929 16.7847 23.6128 17.1815 23.4054L30.6461 16.2592C31.2696 15.9337 32.0169 15.9268 32.6461 16.2404L32.6523 16.2429L46.7824 23.4029C47.1972 23.6103 47.5252 23.9333 47.7352 24.3226C47.9063 24.6381 48 24.9967 48 25.3728Z" fill="#FFD666"/>
<path d="M47.9999 25.3728V38.6449C47.9999 39.4853 47.5332 40.2394 46.7822 40.6149L32.646 47.778C32.338 47.9311 32.0012 48.0079 31.6651 48.0079H31.6514V32.2703L47.7351 24.3225C47.9062 24.638 47.9999 24.9966 47.9999 25.3728Z" fill="#FFAB00"/>
<path d="M47.7358 24.3225L40.5733 27.8619L38.8114 28.7329L31.6521 32.2704L16.2656 24.3063C16.4706 23.9289 16.7854 23.6128 17.1822 23.4054L22.9546 20.3414L24.9557 19.2793L30.6469 16.2591C30.9611 16.0948 31.3066 16.0117 31.6521 16.0098C31.9932 16.0079 32.3344 16.0848 32.6467 16.2404L32.653 16.2429L46.783 23.4029C47.1979 23.6103 47.5259 23.9333 47.7358 24.3225Z" fill="#FFF5CC"/>
<path d="M40.6123 28.1287C40.6123 28.1287 40.6123 28.1287 40.6123 28.1293V33.0582C40.6123 33.5755 40.1924 33.9954 39.6751 33.9954C39.1578 33.9954 38.7379 33.5755 38.7379 33.0582V28.6941L31.6517 24.9442L22.9541 20.3414L24.9553 19.2793L31.6517 22.823L40.1137 27.3009C40.1149 27.3015 40.1162 27.3021 40.1174 27.3027C40.1355 27.3127 40.153 27.324 40.1705 27.3346C40.1799 27.3402 40.1899 27.3459 40.1993 27.3521L40.1999 27.3527C40.273 27.4021 40.3373 27.4608 40.3917 27.5258C40.3942 27.5289 40.3967 27.5314 40.3986 27.5339C40.4123 27.5502 40.4242 27.5677 40.4367 27.5845C40.4423 27.5927 40.4486 27.6002 40.4542 27.6089C40.463 27.6214 40.4698 27.6345 40.478 27.6477C40.4861 27.6614 40.4948 27.6752 40.5023 27.6895C40.5067 27.6977 40.5105 27.7058 40.5142 27.7139C40.5242 27.7339 40.5336 27.7539 40.5423 27.7745C40.5436 27.7777 40.5442 27.7802 40.5455 27.7827C40.5561 27.8089 40.5648 27.8352 40.5723 27.862C40.5898 27.9177 40.6017 27.9757 40.6073 28.0357C40.6104 28.0668 40.6123 28.0974 40.6123 28.1287Z" fill="#FFD666"/>
<path d="M40.6107 28.1286C40.6107 28.1286 40.6107 28.1286 40.6107 28.1293V33.0581C40.6107 33.5754 40.1908 33.9953 39.6735 33.9953C39.1562 33.9953 38.7363 33.5754 38.7363 33.0581V28.7684L40.5707 27.8618C40.5882 27.9174 40.6001 27.9755 40.6057 28.0355C40.6088 28.0668 40.6107 28.0974 40.6107 28.1286Z" fill="#B76E00"/>
</g>
<defs>
<linearGradient id="paint0_linear_296_3264" x1="43.8414" y1="68.4115" x2="70.1982" y2="12.931" gradientUnits="userSpaceOnUse">
<stop stop-color="#00AB55"/>
<stop offset="1" stop-color="#00AB55" stop-opacity="0.01"/>
</linearGradient>
<clipPath id="clip0_296_3264">
<rect width="64" height="64" fill="white" transform="translate(0 0.00976562)"/>
</clipPath>
</defs>
</svg>
